# Generated by Visualization Toolkit
v 2336.24755859375 -790.8087158203125 -2833.923095703125
v 2334.593505859375 -793.4180297851562 -2833.992919921875
v 2331.7275390625 -794.5567016601562 -2834.18994140625
v 2328.744384765625 -793.7899169921875 -2834.43896484375
v 2326.783447265625 -791.4104614257812 -2834.644775390625
v 2326.59375 -788.3272705078125 -2834.728759765625
v 2328.247802734375 -785.7179565429688 -2834.658935546875
v 2331.11376953125 -784.5792846679688 -2834.4619140625
v 2334.096923828125 -785.3460693359375 -2834.212890625
v 2336.057861328125 -787.7255249023438 -2834.007080078125
v 2279.00927734375 -774.2444458007812 -2099.015869140625
v 2277.400634765625 -776.8660278320312 -2099.314208984375
v 2274.65380859375 -778.036865234375 -2100.10986328125
v 2271.81787109375 -777.3097534179688 -2101.098876953125
v 2269.97607421875 -774.9624633789062 -2101.9033203125
v 2269.83203125 -771.8915405273438 -2102.216064453125
v 2271.440673828125 -769.2699584960938 -2101.917724609375
v 2274.1875 -768.09912109375 -2101.1220703125
v 2277.0234375 -768.8262329101562 -2100.133056640625
v 2278.865234375 -771.1735229492188 -2099.32861328125
v 2143.30615234375 -738.7935180664062 -1880.3458251953125
v 2141.95068359375 -741.46875 -1881.091064453125
v 2139.5908203125 -742.7304077148438 -1882.636474609375
v 2137.127685546875 -742.0965576171875 -1884.3917236328125
v 2135.50244140625 -739.8093872070312 -1885.6864013671875
v 2135.33544921875 -736.7424926757812 -1886.0260009765625
v 2136.69091796875 -734.0672607421875 -1885.28076171875
v 2139.05078125 -732.8056030273438 -1883.7353515625
v 2141.513916015625 -733.439453125 -1881.9801025390625
v 2143.13916015625 -735.7266235351562 -1880.6854248046875
v 1060.6826171875 -769.3006591796875 -476.69573974609375
v 1059.56396484375 -771.9820556640625 -477.7481689453125
v 1057.015380859375 -773.3976440429688 -478.77301025390625
v 1054.010498046875 -773.0066528320312 -479.3787841796875
v 1051.697021484375 -770.9584350585938 -479.33416748046875
v 1050.958740234375 -768.035400390625 -478.6561279296875
v 1052.077392578125 -765.35400390625 -477.60369873046875
v 1054.6259765625 -763.9384155273438 -476.578857421875
v 1057.630859375 -764.3294067382812 -475.97308349609375
v 1059.9443359375 -766.3776245117188 -476.0177001953125
v 1095.65771484375 -844.03662109375 -339.0060729980469
v 1094.618896484375 -846.6989135742188 -340.181640625
v 1092.1292724609375 -848.5090942382812 -340.4535827636719
v 1089.1397705078125 -848.7757568359375 -339.718017578125
v 1086.7923583984375 -847.39697265625 -338.25592041015625
v 1085.983642578125 -844.8994140625 -336.6257629394531
v 1087.0224609375 -842.2371215820312 -335.4501953125
v 1089.5120849609375 -840.4269409179688 -335.1782531738281
v 1092.5015869140625 -840.1602783203125 -335.913818359375
v 1094.8489990234375 -841.5390625 -337.37591552734375
v 1147.256591796875 -930.2344970703125 -188.41986083984375
v 1146.2171630859375 -932.8956298828125 -189.59756469726562
v 1143.7275390625 -934.7058715820312 -189.86940002441406
v 1140.7386474609375 -934.9738159179688 -189.13150024414062
v 1138.392333984375 -933.5971069335938 -187.66574096679688
v 1137.584716796875 -931.1015625 -186.031982421875
v 1138.6241455078125 -928.4404296875 -184.85427856445312
v 1141.11376953125 -926.6301879882812 -184.5824432373047
v 1144.1026611328125 -926.3622436523438 -185.32034301757812
v 1146.448974609375 -927.7389526367188 -186.78610229492188
v 1192.9237060546875 -1028.77490234375 -7.65118932723999
v 1191.8961181640625 -1031.46337890625 -8.77609920501709
v 1189.38818359375 -1033.23681640625 -9.114092826843262
v 1186.35791015625 -1033.41796875 -8.536069869995117
v 1183.962890625 -1031.9375 -7.262814044952393
v 1183.1177978515625 -1029.361083984375 -5.780666828155518
v 1184.1453857421875 -1026.672607421875 -4.655757427215576
v 1186.6533203125 -1024.899169921875 -4.317763328552246
v 1189.68359375 -1024.718017578125 -4.895786285400391
v 1192.07861328125 -1026.198486328125 -6.169042110443115
v 1223.244140625 -1102.42529296875 151.6470489501953
v 1222.2327880859375 -1105.1553955078125 150.61122131347656
v 1219.7271728515625 -1106.9354248046875 150.29075622558594
v 1216.684326171875 -1107.0853271484375 150.8080596923828
v 1214.2664794921875 -1105.548095703125 151.96554565429688
v 1213.397216796875 -1102.91064453125 153.3210906982422
v 1214.4085693359375 -1100.1805419921875 154.35691833496094
v 1216.9141845703125 -1098.4005126953125 154.67738342285156
v 1219.95703125 -1098.2506103515625 154.1600799560547
v 1222.3748779296875 -1099.787841796875 153.00259399414062
v 1231.6446533203125 -1121.426025390625 194.92942810058594
v 1230.639892578125 -1124.171142578125 193.92727661132812
v 1228.1383056640625 -1125.9600830078125 193.626708984375
v 1225.0950927734375 -1126.109619140625 194.14254760742188
v 1222.6728515625 -1124.5626220703125 195.27774047851562
v 1221.7967529296875 -1121.909912109375 196.5987091064453
v 1222.801513671875 -1119.164794921875 197.60086059570312
v 1225.3031005859375 -1117.3758544921875 197.90142822265625
v 1228.3463134765625 -1117.226318359375 197.38558959960938
v 1230.7685546875 -1118.7733154296875 196.25039672851562
v 1238.731201171875 -1137.6962890625 232.6927032470703
v 1237.7197265625 -1140.426025390625 231.65594482421875
v 1235.2188720703125 -1142.216796875 231.3594970703125
v 1232.1839599609375 -1142.3846435546875 231.91656494140625
v 1229.774169921875 -1140.8656005859375 233.11439514160156
v 1228.91015625 -1138.23974609375 234.4954376220703
v 1229.921630859375 -1135.510009765625 235.53219604492188
v 1232.4224853515625 -1133.71923828125 235.82864379882812
v 1235.4573974609375 -1133.5513916015625 235.27157592773438
v 1237.8671875 -1135.0704345703125 234.07374572753906
v 1267.6981201171875 -1198.5264892578125 358.3079528808594
v 1266.667236328125 -1201.2158203125 357.18798828125
v 1264.1671142578125 -1203.00830078125 356.8953857421875
v 1261.15283203125 -1203.2193603515625 357.54193115234375
v 1258.7755126953125 -1201.7684326171875 358.8806457519531
v 1257.9432373046875 -1199.2095947265625 360.4001770019531
v 1258.97412109375 -1196.520263671875 361.5201416015625
v 1261.4742431640625 -1194.727783203125 361.812744140625
v 1264.488525390625 -1194.5167236328125 361.16619873046875
v 1266.8658447265625 -1195.9676513671875 359.8274841308594
v 1275.8809814453125 -1214.8924560546875 388.5316467285156
v 1274.8387451171875 -1217.5594482421875 387.36981201171875
v 1272.338134765625 -1219.3511962890625 387.07666015625
v 1269.3343505859375 -1219.583251953125 387.76416015625
v 1266.9747314453125 -1218.1669921875 389.16973876953125
v 1266.1605224609375 -1215.6434326171875 390.7565002441406
v 1267.2027587890625 -1212.9764404296875 391.9183349609375
v 1269.703369140625 -1211.1846923828125 392.21148681640625
v 1272.7071533203125 -1210.95263671875 391.52398681640625
v 1275.0667724609375 -1212.368896484375 390.118408203125
v 2336.24755859375 -790.8087158203125 -2833.923095703125
v 2334.593505859375 -793.4180297851562 -2833.992919921875
v 2331.7275390625 -794.5567016601562 -2834.18994140625
v 2328.744384765625 -793.7899169921875 -2834.43896484375
v 2326.783447265625 -791.4104614257812 -2834.644775390625
v 2326.59375 -788.3272705078125 -2834.728759765625
v 2328.247802734375 -785.7179565429688 -2834.658935546875
v 2331.11376953125 -784.5792846679688 -2834.4619140625
v 2334.096923828125 -785.3460693359375 -2834.212890625
v 2336.057861328125 -787.7255249023438 -2834.007080078125
v 1275.8809814453125 -1214.8924560546875 388.5316467285156
v 1274.8387451171875 -1217.5594482421875 387.36981201171875
v 1272.338134765625 -1219.3511962890625 387.07666015625
v 1269.3343505859375 -1219.583251953125 387.76416015625
v 1266.9747314453125 -1218.1669921875 389.16973876953125
v 1266.1605224609375 -1215.6434326171875 390.7565002441406
v 1267.2027587890625 -1212.9764404296875 391.9183349609375
v 1269.703369140625 -1211.1846923828125 392.21148681640625
v 1272.7071533203125 -1210.95263671875 391.52398681640625
v 1275.0667724609375 -1212.368896484375 390.118408203125
vn 0.9653649926185608 -0.24814863502979279 0.08057714998722076
vn 0.6345516443252563 -0.7700045108795166 0.0666128620505333
vn 0.06136114150285721 -0.9977447986602783 0.027204720303416252
vn -0.5352672338485718 -0.8443804979324341 -0.022594695910811424
vn -0.9274417161941528 -0.3684915602207184 -0.06376370787620544
vn -0.9653649926185608 0.24814863502979279 -0.08057714998722076
vn -0.6345516443252563 0.7700045108795166 -0.0666128620505333
vn -0.06136114150285721 0.9977447986602783 -0.027204720303416252
vn 0.5352672338485718 0.8443804979324341 0.022594695910811424
vn 0.9274417161941528 0.3684915602207184 0.06376370787620544
vn 0.9177220463752747 -0.2352927327156067 0.3200368285179138
vn 0.5960077047348022 -0.7596038579940796 0.2603398263454437
vn 0.04663866013288498 -0.9937720894813538 0.10120183229446411
vn -0.5205447673797607 -0.8483532071113586 -0.09659180790185928
vn -0.8888977766036987 -0.3788922131061554 -0.2574906647205353
vn -0.9177220463752747 0.2352927327156067 -0.3200368285179138
vn -0.5960077047348022 0.7596038579940796 -0.2603398263454437
vn -0.04663866013288498 0.9937720894813538 -0.10120183229446411
vn 0.5205447673797607 0.8483532071113586 0.09659180790185928
vn 0.8888977766036987 0.3788922131061554 0.2574906647205353
vn 0.7970565557479858 -0.2051035761833191 0.5680082440376282
vn 0.5259778499603271 -0.740144670009613 0.41896674036979675
vn 0.05399352312088013 -0.992475688457489 0.10989417880773544
vn -0.43861451745033264 -0.8657147288322449 -0.2411542385816574
vn -0.7636867165565491 -0.4082801342010498 -0.5000899434089661
vn -0.7970565557479858 0.2051035761833191 -0.5680082440376282
vn -0.5259778499603271 0.740144670009613 -0.41896674036979675
vn -0.05399352312088013 0.992475688457489 -0.10989417880773544
vn 0.43861451745033264 0.8657147288322449 0.2411542385816574
vn 0.7636867165565491 0.4082801342010498 0.5000899434089661
vn 0.9723984003067017 -0.12652722001075745 0.19604136049747467
vn 0.7486491799354553 -0.6628090143203735 -0.014444132335484028
vn 0.23894141614437103 -0.9459202885627747 -0.21941246092319489
vn -0.3620338439941406 -0.8677221536636353 -0.34057268500328064
vn -0.8247244954109192 -0.4580836594104767 -0.3316456973552704
vn -0.9723984003067017 0.12652722001075745 -0.19604136049747467
vn -0.7486491799354553 0.6628090143203735 0.014444132335484028
vn -0.23894141614437103 0.9459202885627747 0.21941246092319489
vn 0.3620338439941406 0.8677221536636353 0.34057268500328064
vn 0.8247244954109192 0.4580836594104767 0.3316456973552704
vn 0.9674178957939148 0.08628104627132416 -0.23802989721298218
vn 0.7596426010131836 -0.4461823105812073 -0.4731431305408478
vn 0.26170971989631653 -0.8082191944122314 -0.5275317430496216
vn -0.3361874222755432 -0.8615438342094421 -0.3804211914539337
vn -0.8056723475456238 -0.5857879519462585 -0.08800264447927475
vn -0.9674178957939148 -0.08628104627132416 0.23802989721298218
vn -0.7596426010131836 0.4461823105812073 0.4731431305408478
vn -0.26170971989631653 0.8082191944122314 0.5275317430496216
vn 0.3361874222755432 0.8615438342094421 0.3804211914539337
vn 0.8056723475456238 0.5857879519462585 0.08800264447927475
vn 0.9671932458877563 0.0867060199379921 -0.2387872040271759
vn 0.7592920660972595 -0.44551822543144226 -0.4743301272392273
vn 0.26136714220046997 -0.8075696229934692 -0.5286951065063477
vn -0.3363911509513855 -0.8611569404602051 -0.38111647963523865
vn -0.8056594729423523 -0.5858114957809448 -0.08796432614326477
vn -0.9671932458877563 -0.0867060199379921 0.2387872040271759
vn -0.7592920660972595 0.44551822543144226 0.4743301272392273
vn -0.26136714220046997 0.8075696229934692 0.5286951065063477
vn 0.3363911509513855 0.8611569404602051 0.38111647963523865
vn 0.8056594729423523 0.5858114957809448 0.08796432614326477
vn 0.9805997014045715 0.0586148202419281 -0.18705226480960846
vn 0.7750620245933533 -0.4790685772895813 -0.41203412413597107
vn 0.2734770178794861 -0.8337640762329102 -0.4796329736709595
vn -0.33256691694259644 -0.8699900507926941 -0.36402830481529236
vn -0.8115816116333008 -0.573909342288971 -0.10937721282243729
vn -0.9805997014045715 -0.0586148202419281 0.18705226480960846
vn -0.7750620245933533 0.4790685772895813 0.41203412413597107
vn -0.2734770178794861 0.8337640762329102 0.4796329736709595
vn 0.33256691694259644 0.8699900507926941 0.36402830481529236
vn 0.8115816116333008 0.573909342288971 0.10937721282243729
vn 0.9846933484077454 0.048528797924518585 -0.16740356385707855
vn 0.7824319005012512 -0.4974920451641083 -0.3745690584182739
vn 0.28130805492401123 -0.8534878492355347 -0.4386618733406067
vn -0.3272659182548523 -0.8834803104400635 -0.33520078659057617
vn -0.8108354210853577 -0.5760133266448975 -0.10370439291000366
vn -0.9846933484077454 -0.048528797924518585 0.16740356385707855
vn -0.7824319005012512 0.4974920451641083 0.3745690584182739
vn -0.28130805492401123 0.8534878492355347 0.4386618733406067
vn 0.3272659182548523 0.8834803104400635 0.33520078659057617
vn 0.8108354210853577 0.5760133266448975 0.10370439291000366
vn 0.9847812056541443 0.04838774725794792 -0.16692687571048737
vn 0.7838486433029175 -0.5006290674209595 -0.3673579692840576
vn 0.2835124731063843 -0.8584226369857788 -0.4274708032608032
vn -0.32511577010154724 -0.8883278965950012 -0.3243043124675751
vn -0.8095608949661255 -0.5789220929145813 -0.0972646102309227
vn -0.9847812056541443 -0.04838774725794792 0.16692687571048737
vn -0.7838486433029175 0.5006290674209595 0.3673579692840576
vn -0.2835124731063843 0.8584226369857788 0.4274708032608032
vn 0.32511577010154724 0.8883278965950012 0.3243043124675751
vn 0.8095608949661255 0.5789220929145813 0.0972646102309227
vn 0.9821143746376038 0.05433990806341171 -0.18027350306510925
vn 0.7797987461090088 -0.4915905296802521 -0.3876243531703949
vn 0.2796265482902527 -0.8497501015663147 -0.446915864944458
vn -0.32735350728034973 -0.8833339810371399 -0.33550071716308594
vn -0.809295654296875 -0.5795143246650696 -0.09593568742275238
vn -0.9821143746376038 -0.05433990806341171 0.18027350306510925
vn -0.7797987461090088 0.4915905296802521 0.3876243531703949
vn -0.2796265482902527 0.8497501015663147 0.446915864944458
vn 0.32735350728034973 0.8833339810371399 0.33550071716308594
vn 0.809295654296875 0.5795143246650696 0.09593568742275238
vn 0.9754798412322998 0.06830430775880814 -0.20922140777111053
vn 0.7693156003952026 -0.46955233812332153 -0.4332136809825897
vn 0.2692989706993103 -0.8280559778213501 -0.49173304438591003
vn -0.33358073234558105 -0.8702703714370728 -0.36242711544036865
vn -0.8090439438819885 -0.5800710320472717 -0.09468632936477661
vn -0.9754798412322998 -0.06830430775880814 0.20922140777111053
vn -0.7693156003952026 0.46955233812332153 0.4332136809825897
vn -0.2692989706993103 0.8280559778213501 0.49173304438591003
vn 0.33358073234558105 0.8702703714370728 0.36242711544036865
vn 0.8090439438819885 0.5800710320472717 0.09468632936477661
vn 0.9720389246940613 0.07510533183813095 -0.22248491644859314
vn 0.7635902166366577 -0.4582984149456024 -0.45485442876815796
vn 0.2634759843349457 -0.8166477680206299 -0.5134850144386292
vn -0.3372770845890045 -0.8630653619766235 -0.37598177790641785
vn -0.8092017769813538 -0.5798214077949524 -0.09486627578735352
vn -0.9720389246940613 -0.07510533183813095 0.22248491644859314
vn -0.7635902166366577 0.4582984149456024 0.45485442876815796
vn -0.2634759843349457 0.8166477680206299 0.5134850144386292
vn 0.3372770845890045 0.8630653619766235 0.37598177790641785
vn 0.8092017769813538 0.5798214077949524 0.09486627578735352
vn 0.07743453234434128 -0.02241525985300541 -0.9967454075813293
vn 0.07743453234434128 -0.02241525985300541 -0.9967454075813293
vn 0.07743453234434128 -0.02241525985300541 -0.9967454075813293
vn 0.07743453234434128 -0.02241525985300541 -0.9967454075813293
vn 0.07743453234434128 -0.02241525985300541 -0.9967454075813293
vn 0.07743453234434128 -0.02241525985300541 -0.9967454075813293
vn 0.07743453234434128 -0.02241525985300541 -0.9967454075813293
vn 0.07743453234434128 -0.02241525985300541 -0.9967454075813293
vn 0.07743453234434128 -0.02241525985300541 -0.9967454075813293
vn 0.07743453234434128 -0.02241525985300541 -0.9967454075813293
vn 0.23159219324588776 -0.46317750215530396 0.8554716110229492
vn 0.23159219324588776 -0.46317750215530396 0.8554716110229492
vn 0.23159219324588776 -0.46317750215530396 0.8554716110229492
vn 0.23159219324588776 -0.46317750215530396 0.8554716110229492
vn 0.23159219324588776 -0.46317750215530396 0.8554716110229492
vn 0.23159219324588776 -0.46317750215530396 0.8554716110229492
vn 0.23159219324588776 -0.46317750215530396 0.8554716110229492
vn 0.23159219324588776 -0.46317750215530396 0.8554716110229492
vn 0.23159219324588776 -0.46317750215530396 0.8554716110229492
vn 0.23159219324588776 -0.46317750215530396 0.8554716110229492
f 2//2 1//1 12//12
f 12//12 1//1 11//11
f 12//12 11//11 22//22
f 22//22 11//11 21//21
f 22//22 21//21 32//32
f 32//32 21//21 31//31
f 32//32 31//31 42//42
f 42//42 31//31 41//41
f 42//42 41//41 52//52
f 52//52 41//41 51//51
f 52//52 51//51 62//62
f 62//62 51//51 61//61
f 62//62 61//61 72//72
f 72//72 61//61 71//71
f 72//72 71//71 82//82
f 82//82 71//71 81//81
f 82//82 81//81 92//92
f 92//92 81//81 91//91
f 92//92 91//91 102//102
f 102//102 91//91 101//101
f 102//102 101//101 112//112
f 112//112 101//101 111//111
f 3//3 2//2 13//13
f 13//13 2//2 12//12
f 13//13 12//12 23//23
f 23//23 12//12 22//22
f 23//23 22//22 33//33
f 33//33 22//22 32//32
f 33//33 32//32 43//43
f 43//43 32//32 42//42
f 43//43 42//42 53//53
f 53//53 42//42 52//52
f 53//53 52//52 63//63
f 63//63 52//52 62//62
f 63//63 62//62 73//73
f 73//73 62//62 72//72
f 73//73 72//72 83//83
f 83//83 72//72 82//82
f 83//83 82//82 93//93
f 93//93 82//82 92//92
f 93//93 92//92 103//103
f 103//103 92//92 102//102
f 103//103 102//102 113//113
f 113//113 102//102 112//112
f 4//4 3//3 14//14
f 14//14 3//3 13//13
f 14//14 13//13 24//24
f 24//24 13//13 23//23
f 24//24 23//23 34//34
f 34//34 23//23 33//33
f 34//34 33//33 44//44
f 44//44 33//33 43//43
f 44//44 43//43 54//54
f 54//54 43//43 53//53
f 54//54 53//53 64//64
f 64//64 53//53 63//63
f 64//64 63//63 74//74
f 74//74 63//63 73//73
f 74//74 73//73 84//84
f 84//84 73//73 83//83
f 84//84 83//83 94//94
f 94//94 83//83 93//93
f 94//94 93//93 104//104
f 104//104 93//93 103//103
f 104//104 103//103 114//114
f 114//114 103//103 113//113
f 5//5 4//4 15//15
f 15//15 4//4 14//14
f 15//15 14//14 25//25
f 25//25 14//14 24//24
f 25//25 24//24 35//35
f 35//35 24//24 34//34
f 35//35 34//34 45//45
f 45//45 34//34 44//44
f 45//45 44//44 55//55
f 55//55 44//44 54//54
f 55//55 54//54 65//65
f 65//65 54//54 64//64
f 65//65 64//64 75//75
f 75//75 64//64 74//74
f 75//75 74//74 85//85
f 85//85 74//74 84//84
f 85//85 84//84 95//95
f 95//95 84//84 94//94
f 95//95 94//94 105//105
f 105//105 94//94 104//104
f 105//105 104//104 115//115
f 115//115 104//104 114//114
f 6//6 5//5 16//16
f 16//16 5//5 15//15
f 16//16 15//15 26//26
f 26//26 15//15 25//25
f 26//26 25//25 36//36
f 36//36 25//25 35//35
f 36//36 35//35 46//46
f 46//46 35//35 45//45
f 46//46 45//45 56//56
f 56//56 45//45 55//55
f 56//56 55//55 66//66
f 66//66 55//55 65//65
f 66//66 65//65 76//76
f 76//76 65//65 75//75
f 76//76 75//75 86//86
f 86//86 75//75 85//85
f 86//86 85//85 96//96
f 96//96 85//85 95//95
f 96//96 95//95 106//106
f 106//106 95//95 105//105
f 106//106 105//105 116//116
f 116//116 105//105 115//115
f 7//7 6//6 17//17
f 17//17 6//6 16//16
f 17//17 16//16 27//27
f 27//27 16//16 26//26
f 27//27 26//26 37//37
f 37//37 26//26 36//36
f 37//37 36//36 47//47
f 47//47 36//36 46//46
f 47//47 46//46 57//57
f 57//57 46//46 56//56
f 57//57 56//56 67//67
f 67//67 56//56 66//66
f 67//67 66//66 77//77
f 77//77 66//66 76//76
f 77//77 76//76 87//87
f 87//87 76//76 86//86
f 87//87 86//86 97//97
f 97//97 86//86 96//96
f 97//97 96//96 107//107
f 107//107 96//96 106//106
f 107//107 106//106 117//117
f 117//117 106//106 116//116
f 8//8 7//7 18//18
f 18//18 7//7 17//17
f 18//18 17//17 28//28
f 28//28 17//17 27//27
f 28//28 27//27 38//38
f 38//38 27//27 37//37
f 38//38 37//37 48//48
f 48//48 37//37 47//47
f 48//48 47//47 58//58
f 58//58 47//47 57//57
f 58//58 57//57 68//68
f 68//68 57//57 67//67
f 68//68 67//67 78//78
f 78//78 67//67 77//77
f 78//78 77//77 88//88
f 88//88 77//77 87//87
f 88//88 87//87 98//98
f 98//98 87//87 97//97
f 98//98 97//97 108//108
f 108//108 97//97 107//107
f 108//108 107//107 118//118
f 118//118 107//107 117//117
f 9//9 8//8 19//19
f 19//19 8//8 18//18
f 19//19 18//18 29//29
f 29//29 18//18 28//28
f 29//29 28//28 39//39
f 39//39 28//28 38//38
f 39//39 38//38 49//49
f 49//49 38//38 48//48
f 49//49 48//48 59//59
f 59//59 48//48 58//58
f 59//59 58//58 69//69
f 69//69 58//58 68//68
f 69//69 68//68 79//79
f 79//79 68//68 78//78
f 79//79 78//78 89//89
f 89//89 78//78 88//88
f 89//89 88//88 99//99
f 99//99 88//88 98//98
f 99//99 98//98 109//109
f 109//109 98//98 108//108
f 109//109 108//108 119//119
f 119//119 108//108 118//118
f 10//10 9//9 20//20
f 20//20 9//9 19//19
f 20//20 19//19 30//30
f 30//30 19//19 29//29
f 30//30 29//29 40//40
f 40//40 29//29 39//39
f 40//40 39//39 50//50
f 50//50 39//39 49//49
f 50//50 49//49 60//60
f 60//60 49//49 59//59
f 60//60 59//59 70//70
f 70//70 59//59 69//69
f 70//70 69//69 80//80
f 80//80 69//69 79//79
f 80//80 79//79 90//90
f 90//90 79//79 89//89
f 90//90 89//89 100//100
f 100//100 89//89 99//99
f 100//100 99//99 110//110
f 110//110 99//99 109//109
f 110//110 109//109 120//120
f 120//120 109//109 119//119
f 1//1 10//10 11//11
f 11//11 10//10 20//20
f 11//11 20//20 21//21
f 21//21 20//20 30//30
f 21//21 30//30 31//31
f 31//31 30//30 40//40
f 31//31 40//40 41//41
f 41//41 40//40 50//50
f 41//41 50//50 51//51
f 51//51 50//50 60//60
f 51//51 60//60 61//61
f 61//61 60//60 70//70
f 61//61 70//70 71//71
f 71//71 70//70 80//80
f 71//71 80//80 81//81
f 81//81 80//80 90//90
f 81//81 90//90 91//91
f 91//91 90//90 100//100
f 91//91 100//100 101//101
f 101//101 100//100 110//110
f 101//101 110//110 111//111
f 111//111 110//110 120//120
f 121//121 122//122 130//130
f 130//130 122//122 123//123
f 130//130 123//123 129//129
f 129//129 123//123 124//124
f 129//129 124//124 128//128
f 128//128 124//124 125//125
f 128//128 125//125 127//127
f 127//127 125//125 126//126
f 131//131 140//140 132//132
f 132//132 140//140 139//139
f 132//132 139//139 133//133
f 133//133 139//139 138//138
f 133//133 138//138 134//134
f 134//134 138//138 137//137
f 134//134 137//137 135//135
f 135//135 137//137 136//136
