# Generated by Visualization Toolkit
v -125.08304595947266 -114.35115051269531 -2793.9306640625
v -128.0013885498047 -115.35984802246094 -2794.052734375
v -130.9495086669922 -114.46179962158203 -2794.279296875
v -132.8013153076172 -112.00003051757812 -2794.5234375
v -132.8494873046875 -108.91484832763672 -2794.692138671875
v -131.07562255859375 -106.38468933105469 -2794.72119140625
v -128.1572723388672 -105.37599182128906 -2794.59912109375
v -125.20914459228516 -106.27404022216797 -2794.37255859375
v -123.35733795166016 -108.73580932617188 -2794.12841796875
v -123.30917358398438 -111.82099151611328 -2793.959716796875
v -169.5994110107422 -74.73528289794922 -2057.139404296875
v -172.51463317871094 -75.74701690673828 -2057.3037109375
v -175.45457458496094 -74.85690307617188 -2057.640869140625
v -177.2962646484375 -72.40493774414062 -2058.021728515625
v -177.3362579345703 -69.32769012451172 -2058.30126953125
v -175.5592498779297 -66.8005599975586 -2058.372314453125
v -172.64402770996094 -65.78882598876953 -2058.2080078125
v -169.70408630371094 -66.67893981933594 -2057.870849609375
v -167.86239624023438 -69.13090515136719 -2057.489990234375
v -167.82240295410156 -72.2081527709961 -2057.21044921875
v -190.3214569091797 -52.012447357177734 -1876.7442626953125
v -193.25442504882812 -52.938194274902344 -1876.4447021484375
v -196.19691467285156 -52.003665924072266 -1876.5771484375
v -198.02499389648438 -49.56581115722656 -1877.0911865234375
v -198.04037475585938 -46.555816650390625 -1877.790283203125
v -196.23719787597656 -44.12339401245117 -1878.4075927734375
v -193.30422973632812 -43.19764709472656 -1878.7071533203125
v -190.3617401123047 -44.13217544555664 -1878.57470703125
v -188.53366088867188 -46.570030212402344 -1878.0606689453125
v -188.51828002929688 -49.58002471923828 -1877.361572265625
v 64.38993835449219 434.1875305175781 -467.5365295410156
v 61.5448112487793 433.5070495605469 -466.5408630371094
v 58.690467834472656 434.6313781738281 -466.1697082519531
v 56.91716384887695 437.1310729980469 -466.56488037109375
v 56.902244567871094 440.0513000488281 -467.5754089355469
v 58.65140914916992 442.2766418457031 -468.8153381347656
v 61.49653244018555 442.9571228027344 -469.8110046386719
v 64.35087585449219 441.8327941894531 -470.1821594238281
v 66.12417602539062 439.3330993652344 -469.7869873046875
v 66.13909912109375 436.4128723144531 -468.7764587402344
v 112.5767593383789 481.4332275390625 -332.7806396484375
v 109.8333969116211 480.74896240234375 -331.5336608886719
v 107.04698181152344 481.8916931152344 -330.8414306640625
v 105.28182983398438 484.4249267578125 -330.9682922363281
v 105.212158203125 487.38104248046875 -331.8658447265625
v 106.86458587646484 489.63092041015625 -333.19122314453125
v 109.60794830322266 490.315185546875 -334.4382019042969
v 112.39436340332031 489.1724548339844 -335.13043212890625
v 114.15951538085938 486.63922119140625 -335.0035705566406
v 114.22918701171875 483.68310546875 -334.10601806640625
v 177.328125 526.3954467773438 -169.4854736328125
v 174.57315063476562 525.70361328125 -168.2686767578125
v 171.79812622070312 526.8560791015625 -167.54739379882812
v 170.0630340576172 529.4126586914062 -167.5971221923828
v 170.0305938720703 532.3968505859375 -168.3988800048828
v 171.71322631835938 534.6687622070312 -169.64639282226562
v 174.46820068359375 535.360595703125 -170.86318969726562
v 177.24322509765625 534.2081298828125 -171.58447265625
v 178.9783172607422 531.6515502929688 -171.5347442626953
v 179.01075744628906 528.6673583984375 -170.7329864501953
v 246.46961975097656 579.728271484375 27.959129333496094
v 243.63677978515625 578.9739379882812 28.93646240234375
v 240.79779052734375 580.0752563476562 29.462162017822266
v 239.03704833984375 582.611572265625 29.335430145263672
v 239.02708435058594 585.6140747070312 28.604671478271484
v 240.77171325683594 587.9359130859375 27.549015045166016
v 243.60455322265625 588.6902465820312 26.57168197631836
v 246.44354248046875 587.5889282226562 26.045982360839844
v 248.20428466796875 585.0526123046875 26.172714233398438
v 248.21424865722656 582.0501098632812 26.903472900390625
v 258.8912048339844 592.5477905273438 86.31421661376953
v 256.0021057128906 591.7369384765625 87.05240631103516
v 253.12013244628906 592.7958374023438 87.40161895751953
v 251.34603881835938 595.320068359375 87.22847747802734
v 251.3574981689453 598.345458984375 86.59911346435547
v 253.15013122558594 600.7163696289062 85.7539291381836
v 256.0392150878906 601.5272216796875 85.01573944091797
v 258.92120361328125 600.4683227539062 84.6665267944336
v 260.6952819824219 597.944091796875 84.83966827392578
v 260.6838073730469 594.918701171875 85.46903228759766
v 260.2925720214844 594.0494384765625 94.01429748535156
v 257.3900146484375 593.2244873046875 94.68053436279297
v 254.49917602539062 594.2741088867188 94.9814453125
v 252.72425842285156 596.79736328125 94.80207824707031
v 252.74322509765625 599.8303833007812 94.21095275878906
v 254.54881286621094 602.2147216796875 93.43385314941406
v 257.45135498046875 603.0396728515625 92.76761627197266
v 260.3421936035156 601.9900512695312 92.46670532226562
v 262.1170959472656 599.466796875 92.64607238769531
v 262.09814453125 596.4337768554688 93.23719787597656
v 261.5795593261719 595.5352783203125 101.72077178955078
v 258.6616516113281 594.6932983398438 102.29180145263672
v 255.76629638671875 595.73779296875 102.56575775146484
v 253.99940490722656 598.269775390625 102.4380111694336
v 254.03587341308594 601.3220825195312 101.95734405517578
v 255.8617706298828 603.7288818359375 101.30736541748047
v 258.7796936035156 604.5708618164062 100.73633575439453
v 261.675048828125 603.5263671875 100.4623794555664
v 263.44195556640625 600.994384765625 100.59012603759766
v 263.4054870605469 597.9420776367188 101.07079315185547
v 269.36395263671875 602.420654296875 159.43116760253906
v 266.4351501464844 601.5694580078125 159.9279327392578
v 263.5390319824219 602.6138305664062 160.19403076171875
v 261.7817687988281 605.1548461914062 160.12783813476562
v 261.8346252441406 608.221923828125 159.754638671875
v 263.6773681640625 610.6435546875 159.2169647216797
v 266.6061706542969 611.4947509765625 158.72019958496094
v 269.5022888183594 610.4503784179688 158.4541015625
v 271.2595520019531 607.9093627929688 158.52029418945312
v 271.2066955566406 604.84228515625 158.89349365234375
v -125.08304595947266 -114.35115051269531 -2793.9306640625
v -128.0013885498047 -115.35984802246094 -2794.052734375
v -130.9495086669922 -114.46179962158203 -2794.279296875
v -132.8013153076172 -112.00003051757812 -2794.5234375
v -132.8494873046875 -108.91484832763672 -2794.692138671875
v -131.07562255859375 -106.38468933105469 -2794.72119140625
v -128.1572723388672 -105.37599182128906 -2794.59912109375
v -125.20914459228516 -106.27404022216797 -2794.37255859375
v -123.35733795166016 -108.73580932617188 -2794.12841796875
v -123.30917358398438 -111.82099151611328 -2793.959716796875
v 269.36395263671875 602.420654296875 159.43116760253906
v 266.4351501464844 601.5694580078125 159.9279327392578
v 263.5390319824219 602.6138305664062 160.19403076171875
v 261.7817687988281 605.1548461914062 160.12783813476562
v 261.8346252441406 608.221923828125 159.754638671875
v 263.6773681640625 610.6435546875 159.2169647216797
v 266.6061706542969 611.4947509765625 158.72019958496094
v 269.5022888183594 610.4503784179688 158.4541015625
v 271.2595520019531 607.9093627929688 158.52029418945312
v 271.2066955566406 604.84228515625 158.89349365234375
vn 0.5992575287818909 -0.7966455221176147 0.07903405278921127
vn 0.015587433241307735 -0.9983856678009033 0.05461763218045235
vn -0.5740365386009216 -0.8187764286994934 0.009339126758277416
vn -0.944398045539856 -0.32642245292663574 -0.03950660675764084
vn -0.9540315866470337 0.2906138300895691 -0.07326215505599976
vn -0.5992575287818909 0.7966455221176147 -0.07903405278921127
vn -0.015587433241307735 0.9983856678009033 -0.05461763218045235
vn 0.5740365386009216 0.8187764286994934 -0.009339126758277416
vn 0.944398045539856 0.32642245292663574 0.03950660675764084
vn 0.9540315866470337 -0.2906138300895691 0.07326215505599976
vn 0.595984935760498 -0.7934724688529968 0.12330225855112076
vn 0.012939844280481339 -0.9958186149597168 0.09043136239051819
vn -0.5750477910041809 -0.8177959322929382 0.02301875501871109
vn -0.9433867335319519 -0.3274029791355133 -0.05318623408675194
vn -0.9513840079307556 0.28804677724838257 -0.1090758889913559
vn -0.595984935760498 0.7934724688529968 -0.12330225855112076
vn -0.012939844280481339 0.9958186149597168 -0.09043136239051819
vn 0.5750477910041809 0.8177959322929382 -0.02301875501871109
vn 0.9433867335319519 0.3274029791355133 0.05318623408675194
vn 0.9513840079307556 -0.28804677724838257 0.1090758889913559
vn 0.5915751457214355 -0.7889054417610168 0.16633416712284088
vn 0.0049790674820542336 -0.9740550518035889 0.22625631093978882
vn -0.5835188627243042 -0.7871487736701965 0.1997562199831009
vn -0.9491323828697205 -0.29957839846611023 0.09695605933666229
vn -0.9522096514701843 0.3024207353591919 -0.04287802800536156
vn -0.5915751457214355 0.7889054417610168 -0.16633416712284088
vn -0.0049790674820542336 0.9740550518035889 -0.22625631093978882
vn 0.5835188627243042 0.7871487736701965 -0.1997562199831009
vn 0.9491323828697205 0.29957839846611023 -0.09695605933666229
vn 0.9522096514701843 -0.3024207353591919 0.04287802800536156
vn 0.5738528966903687 -0.8089126348495483 0.127879798412323
vn 0.004828095901757479 -0.9450064301490784 0.32701608538627625
vn -0.5660408735275269 -0.7201399207115173 0.4012433588504791
vn -0.9207014441490173 -0.2202044278383255 0.32220929861068726
vn -0.9236853718757629 0.3638416528701782 0.12010223418474197
vn -0.5738528966903687 0.8089126348495483 -0.127879798412323
vn -0.004828095901757479 0.9450064301490784 -0.32701608538627625
vn 0.5660408735275269 0.7201399207115173 -0.4012433588504791
vn 0.9207014441490173 0.2202044278383255 -0.32220929861068726
vn 0.9236853718757629 -0.3638416528701782 -0.12010223418474197
vn 0.5712166428565979 -0.8197717666625977 0.04105859994888306
vn 0.02254517748951912 -0.956623911857605 0.29045209288597107
vn -0.534737765789032 -0.7280782461166382 0.4289027750492096
vn -0.8877691030502319 -0.2214314341545105 0.4035271406173706
vn -0.9017027616500854 0.36979466676712036 0.2240178883075714
vn -0.5712166428565979 0.8197717666625977 -0.04105859994888306
vn -0.02254517748951912 0.956623911857605 -0.29045209288597107
vn 0.534737765789032 0.7280782461166382 -0.4289027750492096
vn 0.8877691030502319 0.2214314341545105 -0.4035271406173706
vn 0.9017027616500854 -0.36979466676712036 -0.2240178883075714
vn 0.561490535736084 -0.8273266553878784 0.01609301008284092
vn 0.010495008900761604 -0.9656993746757507 0.25945061445236206
vn -0.54450923204422 -0.735207736492157 0.40370693802833557
vn -0.8915295004844666 -0.2238917201757431 0.39376088976860046
vn -0.8980157971382141 0.37294328212738037 0.23341159522533417
vn -0.561490535736084 0.8273266553878784 -0.01609301008284092
vn -0.010495008900761604 0.9656993746757507 -0.25945061445236206
vn 0.54450923204422 0.735207736492157 -0.40370693802833557
vn 0.8915295004844666 0.2238917201757431 -0.39376088976860046
vn 0.8980157971382141 -0.37294328212738037 -0.23341159522533417
vn 0.5697908997535706 -0.8207657337188721 0.04101143032312393
vn 0.0032236988190561533 -0.9716315269470215 0.23647791147232056
vn -0.5645748376846313 -0.7513670921325684 0.3416178524494171
vn -0.9167249798774719 -0.24410594999790192 0.3162713944911957
vn -0.9187173247337341 0.35639533400535583 0.1701200157403946
vn -0.5697908997535706 0.8207657337188721 -0.04101143032312393
vn -0.0032236988190561533 0.9716315269470215 -0.23647791147232056
vn 0.5645748376846313 0.7513670921325684 -0.3416178524494171
vn 0.9167249798774719 0.24410594999790192 -0.3162713944911957
vn 0.9187173247337341 -0.35639533400535583 -0.1701200157403946
vn 0.5741063356399536 -0.8168614506721497 0.05602950602769852
vn -0.0037082117050886154 -0.979033350944519 0.20366626977920532
vn -0.5801063776016235 -0.7672477960586548 0.2735094428062439
vn -0.9349235892295837 -0.26239967346191406 0.23888128995895386
vn -0.93263179063797 0.34267619252204895 0.11300861835479736
vn -0.5741063356399536 0.8168614506721497 -0.05602950602769852
vn 0.0037082117050886154 0.979033350944519 -0.20366626977920532
vn 0.5801063776016235 0.7672477960586548 -0.2735094428062439
vn 0.9349235892295837 0.26239967346191406 -0.23888128995895386
vn 0.93263179063797 -0.34267619252204895 -0.11300861835479736
vn 0.5743748545646667 -0.8165319561958313 0.058043863624334335
vn -0.006135066505521536 -0.9815139174461365 0.19129237532615662
vn -0.5843015909194946 -0.7715909481048584 0.25147369503974915
vn -0.9392848014831543 -0.2669464647769928 0.2156006097793579
vn -0.9354931116104126 0.3396625220775604 0.09737543016672134
vn -0.5743748545646667 0.8165319561958313 -0.058043863624334335
vn 0.006135066505521536 0.9815139174461365 -0.19129237532615662
vn 0.5843015909194946 0.7715909481048584 -0.25147369503974915
vn 0.9392848014831543 0.2669464647769928 -0.2156006097793579
vn 0.9354931116104126 -0.3396625220775604 -0.09737543016672134
vn 0.5717797875404358 -0.8193649053573608 0.04134064540266991
vn -0.011801248416304588 -0.9877581596374512 0.15554611384868622
vn -0.5908746123313904 -0.7788613438606262 0.2103382647037506
vn -0.9442539811134338 -0.2724660038948059 0.18478834629058838
vn -0.9369603991508484 0.33800208568573 0.08865554630756378
vn -0.5717797875404358 0.8193649053573608 -0.04134064540266991
vn 0.011801248416304588 0.9877581596374512 -0.15554611384868622
vn 0.5908746123313904 0.7788613438606262 -0.2103382647037506
vn 0.9442539811134338 0.2724660038948059 -0.18478834629058838
vn 0.9369603991508484 -0.33800208568573 -0.08865554630756378
vn 0.5686588883399963 -0.8222944736480713 0.021420512348413467
vn -0.01710045523941517 -0.9925328493118286 0.12077295780181885
vn -0.5963280200958252 -0.7836573719978333 0.17399422824382782
vn -0.9477785229682922 -0.2754514515399933 0.16075563430786133
vn -0.9372098445892334 0.33796757459640503 0.086113840341568
vn -0.5686588883399963 0.8222944736480713 -0.021420512348413467
vn 0.01710045523941517 0.9925328493118286 -0.12077295780181885
vn 0.5963280200958252 0.7836573719978333 -0.17399422824382782
vn 0.9477785229682922 0.2754514515399933 -0.16075563430786133
vn 0.9372098445892334 -0.33796757459640503 -0.086113840341568
vn 0.060218553990125656 -0.05358774587512016 -0.996745765209198
vn 0.060218553990125656 -0.05358774587512016 -0.996745765209198
vn 0.060218553990125656 -0.05358774587512016 -0.996745765209198
vn 0.060218553990125656 -0.05358774587512016 -0.996745765209198
vn 0.060218553990125656 -0.05358774587512016 -0.996745765209198
vn 0.060218553990125656 -0.05358774587512016 -0.996745765209198
vn 0.060218553990125656 -0.05358774587512016 -0.996745765209198
vn 0.060218553990125656 -0.05358774587512016 -0.996745765209198
vn 0.060218553990125656 -0.05358774587512016 -0.996745765209198
vn 0.060218553990125656 -0.05358774587512016 -0.996745765209198
vn 0.13278722763061523 0.11746622622013092 0.9841591715812683
vn 0.13278722763061523 0.11746622622013092 0.9841591715812683
vn 0.13278722763061523 0.11746622622013092 0.9841591715812683
vn 0.13278722763061523 0.11746622622013092 0.9841591715812683
vn 0.13278722763061523 0.11746622622013092 0.9841591715812683
vn 0.13278722763061523 0.11746622622013092 0.9841591715812683
vn 0.13278722763061523 0.11746622622013092 0.9841591715812683
vn 0.13278722763061523 0.11746622622013092 0.9841591715812683
vn 0.13278722763061523 0.11746622622013092 0.9841591715812683
vn 0.13278722763061523 0.11746622622013092 0.9841591715812683
f 2//2 1//1 12//12
f 12//12 1//1 11//11
f 12//12 11//11 22//22
f 22//22 11//11 21//21
f 22//22 21//21 32//32
f 32//32 21//21 31//31
f 32//32 31//31 42//42
f 42//42 31//31 41//41
f 42//42 41//41 52//52
f 52//52 41//41 51//51
f 52//52 51//51 62//62
f 62//62 51//51 61//61
f 62//62 61//61 72//72
f 72//72 61//61 71//71
f 72//72 71//71 82//82
f 82//82 71//71 81//81
f 82//82 81//81 92//92
f 92//92 81//81 91//91
f 92//92 91//91 102//102
f 102//102 91//91 101//101
f 3//3 2//2 13//13
f 13//13 2//2 12//12
f 13//13 12//12 23//23
f 23//23 12//12 22//22
f 23//23 22//22 33//33
f 33//33 22//22 32//32
f 33//33 32//32 43//43
f 43//43 32//32 42//42
f 43//43 42//42 53//53
f 53//53 42//42 52//52
f 53//53 52//52 63//63
f 63//63 52//52 62//62
f 63//63 62//62 73//73
f 73//73 62//62 72//72
f 73//73 72//72 83//83
f 83//83 72//72 82//82
f 83//83 82//82 93//93
f 93//93 82//82 92//92
f 93//93 92//92 103//103
f 103//103 92//92 102//102
f 4//4 3//3 14//14
f 14//14 3//3 13//13
f 14//14 13//13 24//24
f 24//24 13//13 23//23
f 24//24 23//23 34//34
f 34//34 23//23 33//33
f 34//34 33//33 44//44
f 44//44 33//33 43//43
f 44//44 43//43 54//54
f 54//54 43//43 53//53
f 54//54 53//53 64//64
f 64//64 53//53 63//63
f 64//64 63//63 74//74
f 74//74 63//63 73//73
f 74//74 73//73 84//84
f 84//84 73//73 83//83
f 84//84 83//83 94//94
f 94//94 83//83 93//93
f 94//94 93//93 104//104
f 104//104 93//93 103//103
f 5//5 4//4 15//15
f 15//15 4//4 14//14
f 15//15 14//14 25//25
f 25//25 14//14 24//24
f 25//25 24//24 35//35
f 35//35 24//24 34//34
f 35//35 34//34 45//45
f 45//45 34//34 44//44
f 45//45 44//44 55//55
f 55//55 44//44 54//54
f 55//55 54//54 65//65
f 65//65 54//54 64//64
f 65//65 64//64 75//75
f 75//75 64//64 74//74
f 75//75 74//74 85//85
f 85//85 74//74 84//84
f 85//85 84//84 95//95
f 95//95 84//84 94//94
f 95//95 94//94 105//105
f 105//105 94//94 104//104
f 6//6 5//5 16//16
f 16//16 5//5 15//15
f 16//16 15//15 26//26
f 26//26 15//15 25//25
f 26//26 25//25 36//36
f 36//36 25//25 35//35
f 36//36 35//35 46//46
f 46//46 35//35 45//45
f 46//46 45//45 56//56
f 56//56 45//45 55//55
f 56//56 55//55 66//66
f 66//66 55//55 65//65
f 66//66 65//65 76//76
f 76//76 65//65 75//75
f 76//76 75//75 86//86
f 86//86 75//75 85//85
f 86//86 85//85 96//96
f 96//96 85//85 95//95
f 96//96 95//95 106//106
f 106//106 95//95 105//105
f 7//7 6//6 17//17
f 17//17 6//6 16//16
f 17//17 16//16 27//27
f 27//27 16//16 26//26
f 27//27 26//26 37//37
f 37//37 26//26 36//36
f 37//37 36//36 47//47
f 47//47 36//36 46//46
f 47//47 46//46 57//57
f 57//57 46//46 56//56
f 57//57 56//56 67//67
f 67//67 56//56 66//66
f 67//67 66//66 77//77
f 77//77 66//66 76//76
f 77//77 76//76 87//87
f 87//87 76//76 86//86
f 87//87 86//86 97//97
f 97//97 86//86 96//96
f 97//97 96//96 107//107
f 107//107 96//96 106//106
f 8//8 7//7 18//18
f 18//18 7//7 17//17
f 18//18 17//17 28//28
f 28//28 17//17 27//27
f 28//28 27//27 38//38
f 38//38 27//27 37//37
f 38//38 37//37 48//48
f 48//48 37//37 47//47
f 48//48 47//47 58//58
f 58//58 47//47 57//57
f 58//58 57//57 68//68
f 68//68 57//57 67//67
f 68//68 67//67 78//78
f 78//78 67//67 77//77
f 78//78 77//77 88//88
f 88//88 77//77 87//87
f 88//88 87//87 98//98
f 98//98 87//87 97//97
f 98//98 97//97 108//108
f 108//108 97//97 107//107
f 9//9 8//8 19//19
f 19//19 8//8 18//18
f 19//19 18//18 29//29
f 29//29 18//18 28//28
f 29//29 28//28 39//39
f 39//39 28//28 38//38
f 39//39 38//38 49//49
f 49//49 38//38 48//48
f 49//49 48//48 59//59
f 59//59 48//48 58//58
f 59//59 58//58 69//69
f 69//69 58//58 68//68
f 69//69 68//68 79//79
f 79//79 68//68 78//78
f 79//79 78//78 89//89
f 89//89 78//78 88//88
f 89//89 88//88 99//99
f 99//99 88//88 98//98
f 99//99 98//98 109//109
f 109//109 98//98 108//108
f 10//10 9//9 20//20
f 20//20 9//9 19//19
f 20//20 19//19 30//30
f 30//30 19//19 29//29
f 30//30 29//29 40//40
f 40//40 29//29 39//39
f 40//40 39//39 50//50
f 50//50 39//39 49//49
f 50//50 49//49 60//60
f 60//60 49//49 59//59
f 60//60 59//59 70//70
f 70//70 59//59 69//69
f 70//70 69//69 80//80
f 80//80 69//69 79//79
f 80//80 79//79 90//90
f 90//90 79//79 89//89
f 90//90 89//89 100//100
f 100//100 89//89 99//99
f 100//100 99//99 110//110
f 110//110 99//99 109//109
f 1//1 10//10 11//11
f 11//11 10//10 20//20
f 11//11 20//20 21//21
f 21//21 20//20 30//30
f 21//21 30//30 31//31
f 31//31 30//30 40//40
f 31//31 40//40 41//41
f 41//41 40//40 50//50
f 41//41 50//50 51//51
f 51//51 50//50 60//60
f 51//51 60//60 61//61
f 61//61 60//60 70//70
f 61//61 70//70 71//71
f 71//71 70//70 80//80
f 71//71 80//80 81//81
f 81//81 80//80 90//90
f 81//81 90//90 91//91
f 91//91 90//90 100//100
f 91//91 100//100 101//101
f 101//101 100//100 110//110
f 111//111 112//112 120//120
f 120//120 112//112 113//113
f 120//120 113//113 119//119
f 119//119 113//113 114//114
f 119//119 114//114 118//118
f 118//118 114//114 115//115
f 118//118 115//115 117//117
f 117//117 115//115 116//116
f 121//121 130//130 122//122
f 122//122 130//130 129//129
f 122//122 129//129 123//123
f 123//123 129//129 128//128
f 123//123 128//128 124//124
f 124//124 128//128 127//127
f 124//124 127//127 125//125
f 125//125 127//127 126//126
