# Generated by Visualization Toolkit
v 2320.829345703125 -791.058349609375 -2833.5341796875
v 2319.4130859375 -788.3192138671875 -2833.735107421875
v 2319.871337890625 -785.2931518554688 -2834.16162109375
v 2322.029052734375 -783.135986328125 -2834.65087890625
v 2325.062255859375 -782.6716918945312 -2835.01611328125
v 2327.812255859375 -784.07763671875 -2835.11767578125
v 2329.228515625 -786.8167724609375 -2834.916748046875
v 2328.770263671875 -789.8428344726562 -2834.490234375
v 2326.612548828125 -792 -2834.0009765625
v 2323.579345703125 -792.4642944335938 -2833.6357421875
v 2395.444091796875 -698.4151611328125 -2096.967041015625
v 2393.98681640625 -695.7224731445312 -2097.38525390625
v 2394.337646484375 -692.8179931640625 -2098.38037109375
v 2396.362548828125 -690.8112182617188 -2099.572265625
v 2399.288330078125 -690.468505859375 -2100.506103515625
v 2401.997314453125 -691.9208984375 -2100.824951171875
v 2403.45458984375 -694.6135864257812 -2100.40673828125
v 2403.103759765625 -697.51806640625 -2099.41162109375
v 2401.078857421875 -699.5248413085938 -2098.2197265625
v 2398.153076171875 -699.8675537109375 -2097.285888671875
v 2502.570556640625 -585.6598510742188 -1884.912109375
v 2501.018798828125 -583.0679931640625 -1885.5628662109375
v 2501.1484375 -580.3997192382812 -1887.1162109375
v 2502.909912109375 -578.6742553710938 -1888.978759765625
v 2505.63037109375 -578.5506591796875 -1890.439208984375
v 2508.270751953125 -580.0761108398438 -1890.939697265625
v 2509.822509765625 -582.66796875 -1890.2889404296875
v 2509.69287109375 -585.3362426757812 -1888.735595703125
v 2507.931396484375 -587.0617065429688 -1886.873046875
v 2505.2109375 -587.185302734375 -1885.41259765625
v 3190.294189453125 189.06585693359375 -555.70654296875
v 3188.7470703125 191.66265869140625 -556.3486328125
v 3188.87060546875 194.32412719726562 -557.9140014648438
v 3190.617431640625 196.03370666503906 -559.8048095703125
v 3193.3203125 196.13836669921875 -561.2987670898438
v 3195.947021484375 194.59814453125 -561.8253173828125
v 3197.494140625 192.0013427734375 -561.1832275390625
v 3197.37060546875 189.33987426757812 -559.6178588867188
v 3195.623779296875 187.6302947998047 -557.72705078125
v 3192.9208984375 187.525634765625 -556.2330932617188
v 3250.88916015625 249.66050720214844 -444.38604736328125
v 3249.365966796875 252.28184509277344 -444.9837341308594
v 3249.505859375 254.96054077148438 -446.51806640625
v 3251.255859375 256.6734313964844 -448.4029541015625
v 3253.947265625 256.7662353515625 -449.9184875488281
v 3256.55224609375 255.20350646972656 -450.48577880859375
v 3258.075439453125 252.58216857910156 -449.8880920410156
v 3257.935546875 249.90347290039062 -448.353759765625
v 3256.185546875 248.1905975341797 -446.4688720703125
v 3253.494140625 248.09779357910156 -444.9533386230469
v 2320.829345703125 -791.058349609375 -2833.5341796875
v 2319.4130859375 -788.3192138671875 -2833.735107421875
v 2319.871337890625 -785.2931518554688 -2834.16162109375
v 2322.029052734375 -783.135986328125 -2834.65087890625
v 2325.062255859375 -782.6716918945312 -2835.01611328125
v 2327.812255859375 -784.07763671875 -2835.11767578125
v 2329.228515625 -786.8167724609375 -2834.916748046875
v 2328.770263671875 -789.8428344726562 -2834.490234375
v 2326.612548828125 -792 -2834.0009765625
v 2323.579345703125 -792.4642944335938 -2833.6357421875
v 3250.88916015625 249.66050720214844 -444.38604736328125
v 3249.365966796875 252.28184509277344 -444.9837341308594
v 3249.505859375 254.96054077148438 -446.51806640625
v 3251.255859375 256.6734313964844 -448.4029541015625
v 3253.947265625 256.7662353515625 -449.9184875488281
v 3256.55224609375 255.20350646972656 -450.48577880859375
v 3258.075439453125 252.58216857910156 -449.8880920410156
v 3257.935546875 249.90347290039062 -448.353759765625
v 3256.185546875 248.1905975341797 -446.4688720703125
v 3253.494140625 248.09779357910156 -444.9533386230469
vn -0.6982967257499695 -0.6980738043785095 0.15834982693195343
vn -0.9815599918365479 -0.15024711191654205 0.11817685514688492
vn -0.8899006843566895 0.4549688398838043 0.032864343374967575
vn -0.45832958817481995 0.8864021897315979 -0.0650012344121933
vn 0.14830784499645233 0.9792600274085999 -0.1380385458469391
vn 0.6982967257499695 0.6980738043785095 -0.15834982693195343
vn 0.9815599918365479 0.15024711191654205 -0.11817685514688492
vn 0.8899006843566895 -0.4549688398838043 -0.032864343374967575
vn 0.45832958817481995 -0.8864021897315979 0.0650012344121933
vn -0.14830784499645233 -0.9792600274085999 0.1380385458469391
vn -0.6553128361701965 -0.6494215130805969 0.38576775789260864
vn -0.9467852711677551 -0.11088661849498749 0.30216184258461
vn -0.876617968082428 0.470003217458725 0.10314035415649414
vn -0.4716123640537262 0.8713678121566772 -0.13527724146842957
vn 0.1135331317782402 0.9398995041847229 -0.32202354073524475
vn 0.6553128361701965 0.6494215130805969 -0.38576775789260864
vn 0.9467852711677551 0.11088661849498749 -0.30216184258461
vn 0.876617968082428 -0.470003217458725 -0.10314035415649414
vn 0.4716123640537262 -0.8713678121566772 0.13527724146842957
vn -0.1135331317782402 -0.9398995041847229 0.32202354073524475
vn -0.570007860660553 -0.558375358581543 0.6027503609657288
vn -0.8803626894950867 -0.040003202855587006 0.4726111888885498
vn -0.8544488549232483 0.49364882707595825 0.16195057332515717
vn -0.5021646618843079 0.8387437462806702 -0.21056964993476868
vn 0.04192940890789032 0.8634670972824097 -0.5026594400405884
vn 0.570007860660553 0.558375358581543 -0.6027503609657288
vn 0.8803626894950867 0.040003202855587006 -0.4726111888885498
vn 0.8544488549232483 -0.49364882707595825 -0.16195057332515717
vn 0.5021646618843079 -0.8387437462806702 0.21056964993476868
vn -0.04192940890789032 -0.8634670972824097 0.5026594400405884
vn -0.565285325050354 -0.5532287955284119 0.611874520778656
vn -0.8747089505195618 -0.03386986628174782 0.48346367478370667
vn -0.8500234484672546 0.4984261989593506 0.1703861653804779
vn -0.5006579160690308 0.8403403759002686 -0.20777307450771332
vn 0.039941925555467606 0.8612731099128723 -0.506570041179657
vn 0.565285325050354 0.5532287955284119 -0.611874520778656
vn 0.8747089505195618 0.03386986628174782 -0.48346367478370667
vn 0.8500234484672546 -0.4984261989593506 -0.1703861653804779
vn 0.5006579160690308 -0.8403403759002686 0.20777307450771332
vn -0.039941925555467606 -0.8612731099128723 0.506570041179657
vn -0.5662937164306641 -0.5542993545532227 0.609970211982727
vn -0.8709598183631897 -0.03003220073878765 0.49043557047843933
vn -0.8429489135742188 0.5057061910629272 0.1835712045431137
vn -0.492960125207901 0.8482820391654968 -0.19341112673282623
vn 0.045322634279727936 0.8668429851531982 -0.49651700258255005
vn 0.5662937164306641 0.5542993545532227 -0.609970211982727
vn 0.8709598183631897 0.03003220073878765 -0.49043557047843933
vn 0.8429489135742188 -0.5057061910629272 -0.1835712045431137
vn 0.492960125207901 -0.8482820391654968 0.19341112673282623
vn -0.045322634279727936 -0.8668429851531982 0.49651700258255005
vn -0.09987416118383408 -0.12403737753629684 -0.9872385263442993
vn -0.09987416118383408 -0.12403737753629684 -0.9872385263442993
vn -0.09987416118383408 -0.12403737753629684 -0.9872385263442993
vn -0.09987416118383408 -0.12403737753629684 -0.9872385263442993
vn -0.09987416118383408 -0.12403737753629684 -0.9872385263442993
vn -0.09987416118383408 -0.12403737753629684 -0.9872385263442993
vn -0.09987416118383408 -0.12403737753629684 -0.9872385263442993
vn -0.09987416118383408 -0.12403737753629684 -0.9872385263442993
vn -0.09987416118383408 -0.12403737753629684 -0.9872385263442993
vn -0.09987416118383408 -0.12403737753629684 -0.9872385263442993
vn 0.4313299357891083 0.43132928013801575 0.7924074530601501
vn 0.4313299357891083 0.43132928013801575 0.7924074530601501
vn 0.4313299357891083 0.43132928013801575 0.7924074530601501
vn 0.4313299357891083 0.43132928013801575 0.7924074530601501
vn 0.4313299357891083 0.43132928013801575 0.7924074530601501
vn 0.4313299357891083 0.43132928013801575 0.7924074530601501
vn 0.4313299357891083 0.43132928013801575 0.7924074530601501
vn 0.4313299357891083 0.43132928013801575 0.7924074530601501
vn 0.4313299357891083 0.43132928013801575 0.7924074530601501
vn 0.4313299357891083 0.43132928013801575 0.7924074530601501
f 2//2 1//1 12//12
f 12//12 1//1 11//11
f 12//12 11//11 22//22
f 22//22 11//11 21//21
f 22//22 21//21 32//32
f 32//32 21//21 31//31
f 32//32 31//31 42//42
f 42//42 31//31 41//41
f 3//3 2//2 13//13
f 13//13 2//2 12//12
f 13//13 12//12 23//23
f 23//23 12//12 22//22
f 23//23 22//22 33//33
f 33//33 22//22 32//32
f 33//33 32//32 43//43
f 43//43 32//32 42//42
f 4//4 3//3 14//14
f 14//14 3//3 13//13
f 14//14 13//13 24//24
f 24//24 13//13 23//23
f 24//24 23//23 34//34
f 34//34 23//23 33//33
f 34//34 33//33 44//44
f 44//44 33//33 43//43
f 5//5 4//4 15//15
f 15//15 4//4 14//14
f 15//15 14//14 25//25
f 25//25 14//14 24//24
f 25//25 24//24 35//35
f 35//35 24//24 34//34
f 35//35 34//34 45//45
f 45//45 34//34 44//44
f 6//6 5//5 16//16
f 16//16 5//5 15//15
f 16//16 15//15 26//26
f 26//26 15//15 25//25
f 26//26 25//25 36//36
f 36//36 25//25 35//35
f 36//36 35//35 46//46
f 46//46 35//35 45//45
f 7//7 6//6 17//17
f 17//17 6//6 16//16
f 17//17 16//16 27//27
f 27//27 16//16 26//26
f 27//27 26//26 37//37
f 37//37 26//26 36//36
f 37//37 36//36 47//47
f 47//47 36//36 46//46
f 8//8 7//7 18//18
f 18//18 7//7 17//17
f 18//18 17//17 28//28
f 28//28 17//17 27//27
f 28//28 27//27 38//38
f 38//38 27//27 37//37
f 38//38 37//37 48//48
f 48//48 37//37 47//47
f 9//9 8//8 19//19
f 19//19 8//8 18//18
f 19//19 18//18 29//29
f 29//29 18//18 28//28
f 29//29 28//28 39//39
f 39//39 28//28 38//38
f 39//39 38//38 49//49
f 49//49 38//38 48//48
f 10//10 9//9 20//20
f 20//20 9//9 19//19
f 20//20 19//19 30//30
f 30//30 19//19 29//29
f 30//30 29//29 40//40
f 40//40 29//29 39//39
f 40//40 39//39 50//50
f 50//50 39//39 49//49
f 1//1 10//10 11//11
f 11//11 10//10 20//20
f 11//11 20//20 21//21
f 21//21 20//20 30//30
f 21//21 30//30 31//31
f 31//31 30//30 40//40
f 31//31 40//40 41//41
f 41//41 40//40 50//50
f 51//51 52//52 60//60
f 60//60 52//52 53//53
f 60//60 53//53 59//59
f 59//59 53//53 54//54
f 59//59 54//54 58//58
f 58//58 54//54 55//55
f 58//58 55//55 57//57
f 57//57 55//55 56//56
f 61//61 70//70 62//62
f 62//62 70//70 69//69
f 62//62 69//69 63//63
f 63//63 69//69 68//68
f 63//63 68//68 64//64
f 64//64 68//68 67//67
f 64//64 67//67 65//65
f 65//65 67//67 66//66
