# Generated by Visualization Toolkit
v 2336.24755859375 -790.8087158203125 -2833.923095703125
v 2334.593505859375 -793.4180297851562 -2833.992919921875
v 2331.7275390625 -794.5567016601562 -2834.18994140625
v 2328.744384765625 -793.7899169921875 -2834.43896484375
v 2326.783447265625 -791.4104614257812 -2834.644775390625
v 2326.59375 -788.3272705078125 -2834.728759765625
v 2328.247802734375 -785.7179565429688 -2834.658935546875
v 2331.11376953125 -784.5792846679688 -2834.4619140625
v 2334.096923828125 -785.3460693359375 -2834.212890625
v 2336.057861328125 -787.7255249023438 -2834.007080078125
v 2279.00927734375 -774.2444458007812 -2099.015869140625
v 2277.400634765625 -776.8660278320312 -2099.314208984375
v 2274.65380859375 -778.036865234375 -2100.10986328125
v 2271.81787109375 -777.3097534179688 -2101.098876953125
v 2269.97607421875 -774.9624633789062 -2101.9033203125
v 2269.83203125 -771.8915405273438 -2102.216064453125
v 2271.440673828125 -769.2699584960938 -2101.917724609375
v 2274.1875 -768.09912109375 -2101.1220703125
v 2277.0234375 -768.8262329101562 -2100.133056640625
v 2278.865234375 -771.1735229492188 -2099.32861328125
v 2142.75830078125 -738.6497802734375 -1879.66357421875
v 2141.39013671875 -741.332763671875 -1880.355712890625
v 2139.231689453125 -742.6541748046875 -1882.1287841796875
v 2137.107177734375 -742.1091918945312 -1884.3056640625
v 2135.828125 -739.9060668945312 -1886.0548095703125
v 2135.88330078125 -736.88623046875 -1886.708251953125
v 2137.25146484375 -734.2032470703125 -1886.01611328125
v 2139.409912109375 -732.8818359375 -1884.2430419921875
v 2141.534423828125 -733.4268188476562 -1882.066162109375
v 2142.8134765625 -735.6299438476562 -1880.3170166015625
v 102.5126953125 -268.284423828125 -513.2404174804688
v 101.44258880615234 -271.0337219238281 -514.1598510742188
v 99.71477508544922 -272.459228515625 -516.2886962890625
v 97.98922729492188 -272.0164489746094 -518.8136596679688
v 96.925048828125 -269.87451171875 -520.7703857421875
v 96.9287109375 -266.8515625 -521.4114379882812
v 97.99881744384766 -264.1022644042969 -520.4920043945312
v 99.72663116455078 -262.6767578125 -518.3631591796875
v 101.45217895507812 -263.1195373535156 -515.8381958007812
v 102.516357421875 -265.261474609375 -513.8814697265625
v -67.00381469726562 -256.2021789550781 -385.89263916015625
v -67.91070556640625 -258.96832275390625 -386.9295654296875
v -69.64592742919922 -260.3974609375 -389.0498962402344
v -71.54668426513672 -259.9436950683594 -391.4436950683594
v -72.88694763183594 -257.7803955078125 -393.1966857910156
v -73.15478515625 -254.7338104248047 -393.63922119140625
v -72.24789428710938 -251.96768188476562 -392.602294921875
v -70.5126724243164 -250.53855895996094 -390.4819641113281
v -68.6119155883789 -250.9923095703125 -388.0881652832031
v -67.27165222167969 -253.15562438964844 -386.3351745605469
v -238.19151306152344 -259.12054443359375 -240.4263916015625
v -239.11090087890625 -261.8819885253906 -241.46487426757812
v -240.97311401367188 -263.3011779785156 -243.48158264160156
v -243.06687927246094 -262.8360900878906 -245.70620727539062
v -244.59243774414062 -260.6643371582031 -247.28903198242188
v -244.9670867919922 -257.615478515625 -247.62545776367188
v -244.04769897460938 -254.85403442382812 -246.58697509765625
v -242.18548583984375 -253.43482971191406 -244.5702667236328
v -240.0917205810547 -253.89993286132812 -242.34564208984375
v -238.566162109375 -256.0716857910156 -240.7628173828125
v -412.9145202636719 -263.01458740234375 -59.977516174316406
v -413.90618896484375 -265.7775573730469 -60.9427604675293
v -415.9189147949219 -267.20001220703125 -62.80683517456055
v -418.1838684082031 -266.73858642578125 -64.85772705078125
v -419.8359680175781 -264.569580078125 -66.31206512451172
v -420.2441101074219 -261.52142333984375 -66.61434173583984
v -419.25244140625 -258.7584533691406 -65.64909362792969
v -417.2397155761719 -257.33599853515625 -63.7850227355957
v -414.9747619628906 -257.79742431640625 -61.734130859375
v -413.3226623535156 -259.9664306640625 -60.27979278564453
v -416.3934326171875 -263.1109619140625 -55.905460357666016
v -417.3973388671875 -265.87420654296875 -56.857200622558594
v -419.4638366699219 -267.2982177734375 -58.66023635864258
v -421.8036193847656 -266.83905029296875 -60.62587356567383
v -423.52294921875 -264.6720886230469 -62.00330352783203
v -423.96514892578125 -261.62506103515625 -62.26639938354492
v -422.96124267578125 -258.86181640625 -61.314659118652344
v -420.8947448730469 -257.43780517578125 -59.51162338256836
v -418.5549621582031 -257.89697265625 -57.54598617553711
v -416.83563232421875 -260.0639343261719 -56.168556213378906
v -419.7493896484375 -263.30908203125 -51.90824508666992
v -420.7826232910156 -266.073486328125 -52.824554443359375
v -422.8841247558594 -267.4989013671875 -54.585533142089844
v -425.25115966796875 -267.0408935546875 -56.51854705810547
v -426.9795837402344 -264.8743896484375 -57.885250091552734
v -427.40924072265625 -261.826904296875 -58.16360855102539
v -426.3760070800781 -259.0625 -57.24729919433594
v -424.2745056152344 -257.6370849609375 -55.48632049560547
v -421.907470703125 -258.0950927734375 -53.553306579589844
v -420.1790466308594 -260.2615966796875 -52.18660354614258
v -420.6452331542969 -263.3089599609375 -50.79331588745117
v -421.6874694824219 -266.0736083984375 -51.69863510131836
v -423.796142578125 -267.49920654296875 -53.45088195800781
v -426.1657409667969 -267.041259765625 -55.38076400756836
v -427.89117431640625 -264.87469482421875 -56.751129150390625
v -428.3133850097656 -261.8270263671875 -57.03853988647461
v -427.2711486816406 -259.0623779296875 -56.13322067260742
v -425.1624755859375 -257.63677978515625 -54.38097381591797
v -422.7928771972656 -258.0947265625 -52.45109176635742
v -421.06744384765625 -260.26129150390625 -51.080726623535156
v -435.8798828125 -264.010498046875 -32.501556396484375
v -436.87042236328125 -266.77301025390625 -33.46929168701172
v -438.933837890625 -268.19671630859375 -35.27606964111328
v -441.2820129394531 -267.73785400390625 -37.23175811767578
v -443.0179748535156 -265.5716247558594 -38.589351654052734
v -443.47869873046875 -262.5255126953125 -38.830299377441406
v -442.4881591796875 -259.76300048828125 -37.86256408691406
v -440.42474365234375 -258.33929443359375 -36.0557861328125
v -438.0765686035156 -258.79815673828125 -34.10009765625
v -436.3406066894531 -260.9643859863281 -32.74250411987305
v -590.6939697265625 -274.6112976074219 149.24510192871094
v -591.666259765625 -277.3726806640625 148.255859375
v -593.7130126953125 -278.79541015625 146.42942810058594
v -596.0524291992188 -278.3360290527344 144.46343994140625
v -597.791015625 -276.1700134277344 143.1088409423828
v -598.2646484375 -273.1247253417969 142.88304138183594
v -597.2923583984375 -270.36334228515625 143.87228393554688
v -595.24560546875 -268.94061279296875 145.69871520996094
v -592.9061889648438 -269.3999938964844 147.66470336914062
v -591.1676025390625 -271.5660095214844 149.01930236816406
v 2336.24755859375 -790.8087158203125 -2833.923095703125
v 2334.593505859375 -793.4180297851562 -2833.992919921875
v 2331.7275390625 -794.5567016601562 -2834.18994140625
v 2328.744384765625 -793.7899169921875 -2834.43896484375
v 2326.783447265625 -791.4104614257812 -2834.644775390625
v 2326.59375 -788.3272705078125 -2834.728759765625
v 2328.247802734375 -785.7179565429688 -2834.658935546875
v 2331.11376953125 -784.5792846679688 -2834.4619140625
v 2334.096923828125 -785.3460693359375 -2834.212890625
v 2336.057861328125 -787.7255249023438 -2834.007080078125
v -590.6939697265625 -274.6112976074219 149.24510192871094
v -591.666259765625 -277.3726806640625 148.255859375
v -593.7130126953125 -278.79541015625 146.42942810058594
v -596.0524291992188 -278.3360290527344 144.46343994140625
v -597.791015625 -276.1700134277344 143.1088409423828
v -598.2646484375 -273.1247253417969 142.88304138183594
v -597.2923583984375 -270.36334228515625 143.87228393554688
v -595.24560546875 -268.94061279296875 145.69871520996094
v -592.9061889648438 -269.3999938964844 147.66470336914062
v -591.1676025390625 -271.5660095214844 149.01930236816406
vn 0.9653649926185608 -0.24814863502979279 0.08057714998722076
vn 0.6345516443252563 -0.7700045108795166 0.0666128620505333
vn 0.06136114150285721 -0.9977447986602783 0.027204720303416252
vn -0.5352672338485718 -0.8443804979324341 -0.022594695910811424
vn -0.9274417161941528 -0.3684915602207184 -0.06376370787620544
vn -0.9653649926185608 0.24814863502979279 -0.08057714998722076
vn -0.6345516443252563 0.7700045108795166 -0.0666128620505333
vn -0.06136114150285721 0.9977447986602783 -0.027204720303416252
vn 0.5352672338485718 0.8443804979324341 0.022594695910811424
vn 0.9274417161941528 0.3684915602207184 0.06376370787620544
vn 0.9177220463752747 -0.2352927327156067 0.3200368285179138
vn 0.5960077047348022 -0.7596038579940796 0.2603398263454437
vn 0.04663866013288498 -0.9937720894813538 0.10120183229446411
vn -0.5205447673797607 -0.8483532071113586 -0.09659180790185928
vn -0.8888977766036987 -0.3788922131061554 -0.2574906647205353
vn -0.9177220463752747 0.2352927327156067 -0.3200368285179138
vn -0.5960077047348022 0.7596038579940796 -0.2603398263454437
vn -0.04663866013288498 0.9937720894813538 -0.10120183229446411
vn 0.5205447673797607 0.8483532071113586 0.09659180790185928
vn 0.8888977766036987 0.3788922131061554 0.2574906647205353
vn 0.6874865889549255 -0.17635397613048553 0.7044582366943359
vn 0.41386207938194275 -0.7129538059234619 0.5660521984100342
vn -0.01784370467066765 -0.9772295355796814 0.21143339574337006
vn -0.4427337944507599 -0.868236780166626 -0.2239457666873932
vn -0.6985146403312683 -0.42760708928108215 -0.5737852454185486
vn -0.6874865889549255 0.17635397613048553 -0.7044582366943359
vn -0.41386207938194275 0.7129538059234619 -0.5660521984100342
vn 0.01784370467066765 0.9772295355796814 -0.21143339574337006
vn 0.4427337944507599 0.868236780166626 0.2239457666873932
vn 0.6985146403312683 0.42760708928108215 0.5737852454185486
vn 0.5583988428115845 -0.14328736066818237 0.8171042799949646
vn 0.3443770706653595 -0.6931450366973877 0.6332096457481384
vn -0.0011850310256704688 -0.9782448410987854 0.20745037496089935
vn -0.34629449248313904 -0.8896883726119995 -0.297547847032547
vn -0.5591312646865845 -0.46130117774009705 -0.6888929009437561
vn -0.5583988428115845 0.14328736066818237 -0.8171042799949646
vn -0.3443770706653595 0.6931450366973877 -0.6332096457481384
vn 0.0011850310256704688 0.9782448410987854 -0.20745037496089935
vn 0.34629449248313904 0.8896883726119995 0.297547847032547
vn 0.5591312646865845 0.46130117774009705 0.6888929009437561
vn 0.6150972843170166 -0.14683783054351807 0.7746573090553284
vn 0.43371883034706116 -0.7000641822814941 0.5672725439071655
vn 0.0866745114326477 -0.9858898520469666 0.14320889115333557
vn -0.29347652196884155 -0.8951390385627747 -0.33555567264556885
vn -0.5615295171737671 -0.46247559785842896 -0.6861493587493896
vn -0.6150972843170166 0.14683783054351807 -0.7746573090553284
vn -0.43371883034706116 0.7000641822814941 -0.5672725439071655
vn -0.0866745114326477 0.9858898520469666 -0.14320889115333557
vn 0.29347652196884155 0.8951390385627747 0.33555567264556885
vn 0.5615295171737671 0.46247559785842896 0.6861493587493896
vn 0.6775561571121216 -0.15050919353961945 0.7199060320854187
vn 0.4936806261539459 -0.7027940154075623 0.5122109055519104
vn 0.12123587727546692 -0.9866354465484619 0.10886863619089127
vn -0.2975168526172638 -0.8936156630516052 -0.33605775237083435
vn -0.602628231048584 -0.4592650532722473 -0.6526215076446533
vn -0.6775561571121216 0.15050919353961945 -0.7199060320854187
vn -0.4936806261539459 0.7027940154075623 -0.5122109055519104
vn -0.12123587727546692 0.9866354465484619 -0.10886863619089127
vn 0.2975168526172638 0.8936156630516052 0.33605775237083435
vn 0.602628231048584 0.4592650532722473 0.6526215076446533
vn 0.7329599261283875 -0.14931704103946686 0.6636822819709778
vn 0.5346245765686035 -0.7019121050834656 0.4706335961818695
vn 0.1320807933807373 -0.9864006042480469 0.09781885892152786
vn -0.3209133446216583 -0.8941175937652588 -0.31235936284065247
vn -0.651329517364502 -0.46031203866004944 -0.603226900100708
vn -0.7329599261283875 0.14931704103946686 -0.6636822819709778
vn -0.5346245765686035 0.7019121050834656 -0.4706335961818695
vn -0.1320807933807373 0.9864006042480469 -0.09781885892152786
vn 0.3209133446216583 0.8941175937652588 0.31235936284065247
vn 0.651329517364502 0.46031203866004944 0.603226900100708
vn 0.757169783115387 -0.14858970046043396 0.6360935568809509
vn 0.5563928484916687 -0.701240062713623 0.44574591517448425
vn 0.14309272170066833 -0.9860405325889587 0.0851384773850441
vn -0.3248639404773712 -0.8942070603370667 -0.3079889714717865
vn -0.6687335968017578 -0.4608168601989746 -0.5834751129150391
vn -0.757169783115387 0.14858970046043396 -0.6360935568809509
vn -0.5563928484916687 0.701240062713623 -0.44574591517448425
vn -0.14309272170066833 0.9860405325889587 -0.0851384773850441
vn 0.3248639404773712 0.8942070603370667 0.3079889714717865
vn 0.6687335968017578 0.4608168601989746 0.5834751129150391
vn 0.7659871578216553 -0.14821526408195496 0.6255364418029785
vn 0.5593371391296387 -0.7010957598686218 0.4422745108604431
vn 0.1390393078327179 -0.9861814975738525 0.09007871150970459
vn -0.3343667984008789 -0.8945794105529785 -0.2965240776538849
vn -0.6800561547279358 -0.46127840876579285 -0.5698647499084473
vn -0.7659871578216553 0.14821526408195496 -0.6255364418029785
vn -0.5593371391296387 0.7010957598686218 -0.4422745108604431
vn -0.1390393078327179 0.9861814975738525 -0.09007871150970459
vn 0.3343667984008789 0.8945794105529785 0.2965240776538849
vn 0.6800561547279358 0.46127840876579285 0.5698647499084473
vn 0.766818106174469 -0.1481942981481552 0.6245225667953491
vn 0.5583652853965759 -0.7011222839355469 0.4434588551521301
vn 0.1366359144449234 -0.9862453937530518 0.09300890564918518
vn -0.337283730506897 -0.8946563005447388 -0.292967289686203
vn -0.6823724508285522 -0.4613388776779175 -0.5670399069786072
vn -0.766818106174469 0.1481942981481552 -0.6245225667953491
vn -0.5583652853965759 0.7011222839355469 -0.4434588551521301
vn -0.1366359144449234 0.9862453937530518 -0.09300890564918518
vn 0.337283730506897 0.8946563005447388 0.292967289686203
vn 0.6823724508285522 0.4613388776779175 0.5670399069786072
vn 0.7598806023597717 -0.14849808812141418 0.6328742504119873
vn 0.5617737174034119 -0.7010007500648499 0.43932709097862244
vn 0.1490883231163025 -0.9857448935508728 0.0779719352722168
vn -0.32054370641708374 -0.8939680457115173 -0.3131658434867859
vn -0.6677389740943909 -0.4607257843017578 -0.5846849083900452
vn -0.7598806023597717 0.14849808812141418 -0.6328742504119873
vn -0.5617737174034119 0.7010007500648499 -0.43932709097862244
vn -0.1490883231163025 0.9857448935508728 -0.0779719352722168
vn 0.32054370641708374 0.8939680457115173 0.3131658434867859
vn 0.6677389740943909 0.4607257843017578 0.5846849083900452
vn 0.7570627331733704 -0.14865782856941223 0.6362050771713257
vn 0.5626124143600464 -0.7009357810020447 0.43835631012916565
vn 0.15326333045959473 -0.9854801297187805 0.07307032495737076
vn -0.31462717056274414 -0.8936045169830322 -0.3201260268688202
vn -0.6623407602310181 -0.46040239930152893 -0.5910451412200928
vn -0.7570627331733704 0.14865782856941223 -0.6362050771713257
vn -0.5626124143600464 0.7009357810020447 -0.43835631012916565
vn -0.15326333045959473 0.9854801297187805 -0.07307032495737076
vn 0.31462717056274414 0.8936045169830322 0.3201260268688202
vn 0.6623407602310181 0.46040239930152893 0.5910451412200928
vn 0.07743453234434128 -0.02241525985300541 -0.9967454075813293
vn 0.07743453234434128 -0.02241525985300541 -0.9967454075813293
vn 0.07743453234434128 -0.02241525985300541 -0.9967454075813293
vn 0.07743453234434128 -0.02241525985300541 -0.9967454075813293
vn 0.07743453234434128 -0.02241525985300541 -0.9967454075813293
vn 0.07743453234434128 -0.02241525985300541 -0.9967454075813293
vn 0.07743453234434128 -0.02241525985300541 -0.9967454075813293
vn 0.07743453234434128 -0.02241525985300541 -0.9967454075813293
vn 0.07743453234434128 -0.02241525985300541 -0.9967454075813293
vn 0.07743453234434128 -0.02241525985300541 -0.9967454075813293
vn -0.6478111147880554 -0.04435918107628822 0.7605084180831909
vn -0.6478111147880554 -0.04435918107628822 0.7605084180831909
vn -0.6478111147880554 -0.04435918107628822 0.7605084180831909
vn -0.6478111147880554 -0.04435918107628822 0.7605084180831909
vn -0.6478111147880554 -0.04435918107628822 0.7605084180831909
vn -0.6478111147880554 -0.04435918107628822 0.7605084180831909
vn -0.6478111147880554 -0.04435918107628822 0.7605084180831909
vn -0.6478111147880554 -0.04435918107628822 0.7605084180831909
vn -0.6478111147880554 -0.04435918107628822 0.7605084180831909
vn -0.6478111147880554 -0.04435918107628822 0.7605084180831909
f 2//2 1//1 12//12
f 12//12 1//1 11//11
f 12//12 11//11 22//22
f 22//22 11//11 21//21
f 22//22 21//21 32//32
f 32//32 21//21 31//31
f 32//32 31//31 42//42
f 42//42 31//31 41//41
f 42//42 41//41 52//52
f 52//52 41//41 51//51
f 52//52 51//51 62//62
f 62//62 51//51 61//61
f 62//62 61//61 72//72
f 72//72 61//61 71//71
f 72//72 71//71 82//82
f 82//82 71//71 81//81
f 82//82 81//81 92//92
f 92//92 81//81 91//91
f 92//92 91//91 102//102
f 102//102 91//91 101//101
f 102//102 101//101 112//112
f 112//112 101//101 111//111
f 3//3 2//2 13//13
f 13//13 2//2 12//12
f 13//13 12//12 23//23
f 23//23 12//12 22//22
f 23//23 22//22 33//33
f 33//33 22//22 32//32
f 33//33 32//32 43//43
f 43//43 32//32 42//42
f 43//43 42//42 53//53
f 53//53 42//42 52//52
f 53//53 52//52 63//63
f 63//63 52//52 62//62
f 63//63 62//62 73//73
f 73//73 62//62 72//72
f 73//73 72//72 83//83
f 83//83 72//72 82//82
f 83//83 82//82 93//93
f 93//93 82//82 92//92
f 93//93 92//92 103//103
f 103//103 92//92 102//102
f 103//103 102//102 113//113
f 113//113 102//102 112//112
f 4//4 3//3 14//14
f 14//14 3//3 13//13
f 14//14 13//13 24//24
f 24//24 13//13 23//23
f 24//24 23//23 34//34
f 34//34 23//23 33//33
f 34//34 33//33 44//44
f 44//44 33//33 43//43
f 44//44 43//43 54//54
f 54//54 43//43 53//53
f 54//54 53//53 64//64
f 64//64 53//53 63//63
f 64//64 63//63 74//74
f 74//74 63//63 73//73
f 74//74 73//73 84//84
f 84//84 73//73 83//83
f 84//84 83//83 94//94
f 94//94 83//83 93//93
f 94//94 93//93 104//104
f 104//104 93//93 103//103
f 104//104 103//103 114//114
f 114//114 103//103 113//113
f 5//5 4//4 15//15
f 15//15 4//4 14//14
f 15//15 14//14 25//25
f 25//25 14//14 24//24
f 25//25 24//24 35//35
f 35//35 24//24 34//34
f 35//35 34//34 45//45
f 45//45 34//34 44//44
f 45//45 44//44 55//55
f 55//55 44//44 54//54
f 55//55 54//54 65//65
f 65//65 54//54 64//64
f 65//65 64//64 75//75
f 75//75 64//64 74//74
f 75//75 74//74 85//85
f 85//85 74//74 84//84
f 85//85 84//84 95//95
f 95//95 84//84 94//94
f 95//95 94//94 105//105
f 105//105 94//94 104//104
f 105//105 104//104 115//115
f 115//115 104//104 114//114
f 6//6 5//5 16//16
f 16//16 5//5 15//15
f 16//16 15//15 26//26
f 26//26 15//15 25//25
f 26//26 25//25 36//36
f 36//36 25//25 35//35
f 36//36 35//35 46//46
f 46//46 35//35 45//45
f 46//46 45//45 56//56
f 56//56 45//45 55//55
f 56//56 55//55 66//66
f 66//66 55//55 65//65
f 66//66 65//65 76//76
f 76//76 65//65 75//75
f 76//76 75//75 86//86
f 86//86 75//75 85//85
f 86//86 85//85 96//96
f 96//96 85//85 95//95
f 96//96 95//95 106//106
f 106//106 95//95 105//105
f 106//106 105//105 116//116
f 116//116 105//105 115//115
f 7//7 6//6 17//17
f 17//17 6//6 16//16
f 17//17 16//16 27//27
f 27//27 16//16 26//26
f 27//27 26//26 37//37
f 37//37 26//26 36//36
f 37//37 36//36 47//47
f 47//47 36//36 46//46
f 47//47 46//46 57//57
f 57//57 46//46 56//56
f 57//57 56//56 67//67
f 67//67 56//56 66//66
f 67//67 66//66 77//77
f 77//77 66//66 76//76
f 77//77 76//76 87//87
f 87//87 76//76 86//86
f 87//87 86//86 97//97
f 97//97 86//86 96//96
f 97//97 96//96 107//107
f 107//107 96//96 106//106
f 107//107 106//106 117//117
f 117//117 106//106 116//116
f 8//8 7//7 18//18
f 18//18 7//7 17//17
f 18//18 17//17 28//28
f 28//28 17//17 27//27
f 28//28 27//27 38//38
f 38//38 27//27 37//37
f 38//38 37//37 48//48
f 48//48 37//37 47//47
f 48//48 47//47 58//58
f 58//58 47//47 57//57
f 58//58 57//57 68//68
f 68//68 57//57 67//67
f 68//68 67//67 78//78
f 78//78 67//67 77//77
f 78//78 77//77 88//88
f 88//88 77//77 87//87
f 88//88 87//87 98//98
f 98//98 87//87 97//97
f 98//98 97//97 108//108
f 108//108 97//97 107//107
f 108//108 107//107 118//118
f 118//118 107//107 117//117
f 9//9 8//8 19//19
f 19//19 8//8 18//18
f 19//19 18//18 29//29
f 29//29 18//18 28//28
f 29//29 28//28 39//39
f 39//39 28//28 38//38
f 39//39 38//38 49//49
f 49//49 38//38 48//48
f 49//49 48//48 59//59
f 59//59 48//48 58//58
f 59//59 58//58 69//69
f 69//69 58//58 68//68
f 69//69 68//68 79//79
f 79//79 68//68 78//78
f 79//79 78//78 89//89
f 89//89 78//78 88//88
f 89//89 88//88 99//99
f 99//99 88//88 98//98
f 99//99 98//98 109//109
f 109//109 98//98 108//108
f 109//109 108//108 119//119
f 119//119 108//108 118//118
f 10//10 9//9 20//20
f 20//20 9//9 19//19
f 20//20 19//19 30//30
f 30//30 19//19 29//29
f 30//30 29//29 40//40
f 40//40 29//29 39//39
f 40//40 39//39 50//50
f 50//50 39//39 49//49
f 50//50 49//49 60//60
f 60//60 49//49 59//59
f 60//60 59//59 70//70
f 70//70 59//59 69//69
f 70//70 69//69 80//80
f 80//80 69//69 79//79
f 80//80 79//79 90//90
f 90//90 79//79 89//89
f 90//90 89//89 100//100
f 100//100 89//89 99//99
f 100//100 99//99 110//110
f 110//110 99//99 109//109
f 110//110 109//109 120//120
f 120//120 109//109 119//119
f 1//1 10//10 11//11
f 11//11 10//10 20//20
f 11//11 20//20 21//21
f 21//21 20//20 30//30
f 21//21 30//30 31//31
f 31//31 30//30 40//40
f 31//31 40//40 41//41
f 41//41 40//40 50//50
f 41//41 50//50 51//51
f 51//51 50//50 60//60
f 51//51 60//60 61//61
f 61//61 60//60 70//70
f 61//61 70//70 71//71
f 71//71 70//70 80//80
f 71//71 80//80 81//81
f 81//81 80//80 90//90
f 81//81 90//90 91//91
f 91//91 90//90 100//100
f 91//91 100//100 101//101
f 101//101 100//100 110//110
f 101//101 110//110 111//111
f 111//111 110//110 120//120
f 121//121 122//122 130//130
f 130//130 122//122 123//123
f 130//130 123//123 129//129
f 129//129 123//123 124//124
f 129//129 124//124 128//128
f 128//128 124//124 125//125
f 128//128 125//125 127//127
f 127//127 125//125 126//126
f 131//131 140//140 132//132
f 132//132 140//140 139//139
f 132//132 139//139 133//133
f 133//133 139//139 138//138
f 133//133 138//138 134//134
f 134//134 138//138 137//137
f 134//134 137//137 135//135
f 135//135 137//137 136//136
