# Generated by Visualization Toolkit
v 2320.99072265625 -791.2112426757812 -2830.528076171875
v 2319.454345703125 -788.5361328125 -2830.70947265625
v 2319.77685546875 -785.4912719726562 -2831.12646484375
v 2321.8349609375 -783.2396240234375 -2831.619384765625
v 2324.8427734375 -782.6412963867188 -2832.00048828125
v 2327.65087890625 -783.9247436523438 -2832.123779296875
v 2329.187255859375 -786.599853515625 -2831.9423828125
v 2328.86474609375 -789.6447143554688 -2831.525390625
v 2326.806640625 -791.8963623046875 -2831.032470703125
v 2323.798828125 -792.4946899414062 -2830.6513671875
v 2395.599853515625 -698.5648193359375 -2096.966796875
v 2394.023681640625 -695.9368286132812 -2097.3642578125
v 2394.241455078125 -693.01513671875 -2098.3466796875
v 2396.170166015625 -690.9158325195312 -2099.5390625
v 2399.0732421875 -690.440673828125 -2100.48583984375
v 2401.841552734375 -691.771240234375 -2100.8251953125
v 2403.417724609375 -694.3992309570312 -2100.427734375
v 2403.199951171875 -697.3209228515625 -2099.4453125
v 2401.271240234375 -699.4202270507812 -2098.2529296875
v 2398.3681640625 -699.8953857421875 -2097.30615234375
v 3148.084716796875 150.00527954101562 -548.3956909179688
v 3146.49951171875 152.62501525878906 -548.8113403320312
v 3146.717529296875 155.55299377441406 -549.7749633789062
v 3148.655517578125 157.67083740234375 -550.91845703125
v 3151.573486328125 158.16958618164062 -551.8050537109375
v 3154.356689453125 156.85873413085938 -552.0961303710938
v 3155.94189453125 154.23899841308594 -551.6804809570312
v 3155.723876953125 151.31101989746094 -550.7168579101562
v 3153.785888671875 149.19317626953125 -549.5733642578125
v 3150.867919921875 148.69442749023438 -548.686767578125
v 3154.484375 162.71253967285156 -439.091796875
v 3152.932861328125 165.37928771972656 -439.266357421875
v 3153.248291015625 168.44813537597656 -439.4446105957031
v 3155.310302734375 170.74688720703125 -439.55841064453125
v 3158.331298828125 171.3975067138672 -439.5643310546875
v 3161.1572265625 170.15147399902344 -439.4600830078125
v 3162.708740234375 167.48472595214844 -439.2855224609375
v 3162.393310546875 164.41587829589844 -439.1072692871094
v 3160.331298828125 162.11712646484375 -438.99346923828125
v 3157.310302734375 161.4665069580078 -438.987548828125
v 3144.093994140625 162.95240783691406 -310.159423828125
v 3142.516357421875 165.60791015625 -310.0672912597656
v 3142.773681640625 168.6545867919922 -309.6194152832031
v 3144.76806640625 170.9287109375 -308.9868469238281
v 3147.737548828125 171.56163024902344 -308.4112548828125
v 3150.547607421875 170.3115997314453 -308.1124267578125
v 3152.125244140625 167.65609741210938 -308.2045593261719
v 3151.867919921875 164.6094207763672 -308.6524353027344
v 3149.87353515625 162.33529663085938 -309.2850036621094
v 3146.904052734375 161.70237731933594 -309.860595703125
v 3108.173583984375 124.104736328125 -169.77337646484375
v 3106.531005859375 126.70057678222656 -169.43722534179688
v 3106.6416015625 129.61398315429688 -168.4130401611328
v 3108.462890625 131.73214721679688 -167.09202575683594
v 3111.299560546875 132.24600219726562 -165.978759765625
v 3114.067626953125 130.95925903320312 -165.49847412109375
v 3115.710205078125 128.36341857910156 -165.83462524414062
v 3115.599609375 125.45000457763672 -166.8588104248047
v 3113.7783203125 123.33184051513672 -168.17982482910156
v 3110.941650390625 122.81800079345703 -169.2930908203125
v 3079.398193359375 95.73493194580078 -100.04834747314453
v 3077.74951171875 98.32371520996094 -99.68876647949219
v 3077.80859375 101.18303680419922 -98.51832580566406
v 3079.55322265625 103.22073364257812 -96.9841079711914
v 3082.31640625 103.65847778320312 -95.672119140625
v 3085.043212890625 102.32906341552734 -95.08350372314453
v 3086.69189453125 99.74028015136719 -95.44308471679688
v 3086.6328125 96.8809585571289 -96.613525390625
v 3084.88818359375 94.84326171875 -98.14774322509766
v 3082.125 94.405517578125 -99.45973205566406
v 3030.791015625 48.92810821533203 18.4687557220459
v 3029.146484375 51.52088928222656 18.81827163696289
v 3029.2109375 54.38528823852539 19.975950241088867
v 3030.959716796875 56.42720031738281 21.49959945678711
v 3033.724853515625 56.86669158935547 22.80723762512207
v 3036.4501953125 55.535888671875 23.399389266967773
v 3038.0947265625 52.94310760498047 23.04987335205078
v 3038.0302734375 50.07870864868164 21.892194747924805
v 3036.281494140625 48.03679656982422 20.368545532226562
v 3033.516357421875 47.59730529785156 19.0609073638916
v 2320.99072265625 -791.2112426757812 -2830.528076171875
v 2319.454345703125 -788.5361328125 -2830.70947265625
v 2319.77685546875 -785.4912719726562 -2831.12646484375
v 2321.8349609375 -783.2396240234375 -2831.619384765625
v 2324.8427734375 -782.6412963867188 -2832.00048828125
v 2327.65087890625 -783.9247436523438 -2832.123779296875
v 2329.187255859375 -786.599853515625 -2831.9423828125
v 2328.86474609375 -789.6447143554688 -2831.525390625
v 2326.806640625 -791.8963623046875 -2831.032470703125
v 2323.798828125 -792.4946899414062 -2830.6513671875
v 3030.791015625 48.92810821533203 18.4687557220459
v 3029.146484375 51.52088928222656 18.81827163696289
v 3029.2109375 54.38528823852539 19.975950241088867
v 3030.959716796875 56.42720031738281 21.49959945678711
v 3033.724853515625 56.86669158935547 22.80723762512207
v 3036.4501953125 55.535888671875 23.399389266967773
v 3038.0947265625 52.94310760498047 23.04987335205078
v 3038.0302734375 50.07870864868164 21.892194747924805
v 3036.281494140625 48.03679656982422 20.368545532226562
v 3033.516357421875 47.59730529785156 19.0609073638916
vn -0.6660387516021729 -0.7286474108695984 0.15957869589328766
vn -0.9732961654663086 -0.19363120198249817 0.12329459935426712
vn -0.9087875485420227 0.41534554958343506 0.039916157722473145
vn -0.4971529543399811 0.8656744360923767 -0.05870889499783516
vn 0.1043771430850029 0.9853450655937195 -0.13490915298461914
vn 0.6660387516021729 0.7286474108695984 -0.15957869589328766
vn 0.9732961654663086 0.19363120198249817 -0.12329459935426712
vn 0.9087875485420227 -0.41534554958343506 -0.039916157722473145
vn 0.4971529543399811 -0.8656744360923767 0.05870889499783516
vn -0.1043771430850029 -0.9853450655937195 0.13490915298461914
vn -0.6241587996482849 -0.6793638467788696 0.385863333940506
vn -0.9394145607948303 -0.15375998616218567 0.30636271834373474
vn -0.895845890045166 0.43057501316070557 0.1098419651389122
vn -0.5100945830345154 0.8504449725151062 -0.12863470613956451
vn 0.07049556821584702 0.945473849773407 -0.31797727942466736
vn 0.6241587996482849 0.6793638467788696 -0.385863333940506
vn 0.9394145607948303 0.15375998616218567 -0.30636271834373474
vn 0.895845890045166 -0.43057501316070557 -0.1098419651389122
vn 0.5100945830345154 -0.8504449725151062 0.12863470613956451
vn -0.07049556821584702 -0.945473849773407 0.31797727942466736
vn -0.6271900534629822 -0.6853456497192383 0.37004587054252625
vn -0.9442616105079651 -0.16139811277389526 0.2869158089160919
vn -0.9006572961807251 0.4241980314254761 0.09419363737106323
vn -0.5130325555801392 0.8477649688720703 -0.13450729846954346
vn 0.07055322825908661 0.9475144743919373 -0.311830997467041
vn 0.6271900534629822 0.6853456497192383 -0.37004587054252625
vn 0.9442616105079651 0.16139811277389526 -0.2869158089160919
vn 0.9006572961807251 -0.4241980314254761 -0.09419363737106323
vn 0.5130325555801392 -0.8477649688720703 0.13450729846954346
vn -0.07055322825908661 -0.9475144743919373 0.311830997467041
vn -0.6672824025154114 -0.743893563747406 0.036831170320510864
vn -0.9775823354721069 -0.2105449140071869 0.0019148002611473203
vn -0.9144790172576904 0.40322476625442505 -0.033732958137989044
vn -0.5020757913589478 0.8629763126373291 -0.056495871394872665
vn 0.10210327804088593 0.9931002259254456 -0.05767928436398506
vn 0.6672824025154114 0.743893563747406 -0.036831170320510864
vn 0.9775823354721069 0.2105449140071869 -0.0019148002611473203
vn 0.9144790172576904 -0.40322476625442505 0.033732958137989044
vn 0.5020757913589478 -0.8629763126373291 0.056495871394872665
vn -0.10210327804088593 -0.9931002259254456 0.05767928436398506
vn -0.6453848481178284 -0.7359194159507751 -0.20469750463962555
vn -0.9609123468399048 -0.20481780171394348 -0.18627172708511353
vn -0.9094039797782898 0.4045172333717346 -0.09669648110866547
vn -0.5105342268943787 0.8593404293060303 0.029813535511493683
vn 0.08334226161241531 0.9859247803688049 0.14493578672409058
vn 0.6453848481178284 0.7359194159507751 0.20469750463962555
vn 0.9609123468399048 0.20481780171394348 0.18627172708511353
vn 0.9094039797782898 -0.4045172333717346 0.09669648110866547
vn 0.5105342268943787 -0.8593404293060303 -0.029813535511493683
vn -0.08334226161241531 -0.9859247803688049 -0.14493578672409058
vn -0.589413583278656 -0.6854515671730042 -0.4274900555610657
vn -0.9179118275642395 -0.16628387570381165 -0.36026033759117126
vn -0.8957989811897278 0.4163985848426819 -0.15542343258857727
vn -0.5315213203430176 0.8400309681892395 0.10877996683120728
vn 0.035779405385255814 0.9428000450134277 0.33143311738967896
vn 0.589413583278656 0.6854515671730042 0.4274900555610657
vn 0.9179118275642395 0.16628387570381165 0.36026033759117126
vn 0.8957989811897278 -0.4163985848426819 0.15542343258857727
vn 0.5315213203430176 -0.8400309681892395 -0.10877996683120728
vn -0.035779405385255814 -0.9428000450134277 -0.33143311738967896
vn -0.5645154714584351 -0.6594132781028748 -0.49648407101631165
vn -0.894245982170105 -0.141656756401062 -0.42456746101379395
vn -0.8824049234390259 0.4302078187465668 -0.19048050045967102
vn -0.5335151553153992 0.8377476334571838 0.11636354774236679
vn 0.019159236922860146 0.9252963066101074 0.3787606656551361
vn 0.5645154714584351 0.6594132781028748 0.49648407101631165
vn 0.894245982170105 0.141656756401062 0.42456746101379395
vn 0.8824049234390259 -0.4302078187465668 0.19048050045967102
vn 0.5335151553153992 -0.8377476334571838 -0.11636354774236679
vn -0.019159236922860146 -0.9252963066101074 -0.3787606656551361
vn -0.5659164190292358 -0.660777747631073 -0.4930632412433624
vn -0.8948230743408203 -0.1422220766544342 -0.423160195350647
vn -0.8819377422332764 0.43065759539604187 -0.19162434339523315
vn -0.5321821570396423 0.8390406966209412 0.11310549825429916
vn 0.020848939195275307 0.9269387722015381 0.374632865190506
vn 0.5659164190292358 0.660777747631073 0.4930632412433624
vn 0.8948230743408203 0.1422220766544342 0.423160195350647
vn 0.8819377422332764 -0.43065759539604187 0.19162434339523315
vn 0.5321821570396423 -0.8390406966209412 -0.11310549825429916
vn -0.020848939195275307 -0.9269387722015381 -0.374632865190506
vn -0.10027280449867249 -0.12453246861696243 -0.9871357679367065
vn -0.10027280449867249 -0.12453246861696243 -0.9871357679367065
vn -0.10027280449867249 -0.12453246861696243 -0.9871357679367065
vn -0.10027280449867249 -0.12453246861696243 -0.9871357679367065
vn -0.10027280449867249 -0.12453246861696243 -0.9871357679367065
vn -0.10027280449867249 -0.12453246861696243 -0.9871357679367065
vn -0.10027280449867249 -0.12453246861696243 -0.9871357679367065
vn -0.10027280449867249 -0.12453246861696243 -0.9871357679367065
vn -0.10027280449867249 -0.12453246861696243 -0.9871357679367065
vn -0.10027280449867249 -0.12453246861696243 -0.9871357679367065
vn -0.3564063012599945 -0.34320536255836487 0.8690136075019836
vn -0.3564063012599945 -0.34320536255836487 0.8690136075019836
vn -0.3564063012599945 -0.34320536255836487 0.8690136075019836
vn -0.3564063012599945 -0.34320536255836487 0.8690136075019836
vn -0.3564063012599945 -0.34320536255836487 0.8690136075019836
vn -0.3564063012599945 -0.34320536255836487 0.8690136075019836
vn -0.3564063012599945 -0.34320536255836487 0.8690136075019836
vn -0.3564063012599945 -0.34320536255836487 0.8690136075019836
vn -0.3564063012599945 -0.34320536255836487 0.8690136075019836
vn -0.3564063012599945 -0.34320536255836487 0.8690136075019836
f 2//2 1//1 12//12
f 12//12 1//1 11//11
f 12//12 11//11 22//22
f 22//22 11//11 21//21
f 22//22 21//21 32//32
f 32//32 21//21 31//31
f 32//32 31//31 42//42
f 42//42 31//31 41//41
f 42//42 41//41 52//52
f 52//52 41//41 51//51
f 52//52 51//51 62//62
f 62//62 51//51 61//61
f 62//62 61//61 72//72
f 72//72 61//61 71//71
f 3//3 2//2 13//13
f 13//13 2//2 12//12
f 13//13 12//12 23//23
f 23//23 12//12 22//22
f 23//23 22//22 33//33
f 33//33 22//22 32//32
f 33//33 32//32 43//43
f 43//43 32//32 42//42
f 43//43 42//42 53//53
f 53//53 42//42 52//52
f 53//53 52//52 63//63
f 63//63 52//52 62//62
f 63//63 62//62 73//73
f 73//73 62//62 72//72
f 4//4 3//3 14//14
f 14//14 3//3 13//13
f 14//14 13//13 24//24
f 24//24 13//13 23//23
f 24//24 23//23 34//34
f 34//34 23//23 33//33
f 34//34 33//33 44//44
f 44//44 33//33 43//43
f 44//44 43//43 54//54
f 54//54 43//43 53//53
f 54//54 53//53 64//64
f 64//64 53//53 63//63
f 64//64 63//63 74//74
f 74//74 63//63 73//73
f 5//5 4//4 15//15
f 15//15 4//4 14//14
f 15//15 14//14 25//25
f 25//25 14//14 24//24
f 25//25 24//24 35//35
f 35//35 24//24 34//34
f 35//35 34//34 45//45
f 45//45 34//34 44//44
f 45//45 44//44 55//55
f 55//55 44//44 54//54
f 55//55 54//54 65//65
f 65//65 54//54 64//64
f 65//65 64//64 75//75
f 75//75 64//64 74//74
f 6//6 5//5 16//16
f 16//16 5//5 15//15
f 16//16 15//15 26//26
f 26//26 15//15 25//25
f 26//26 25//25 36//36
f 36//36 25//25 35//35
f 36//36 35//35 46//46
f 46//46 35//35 45//45
f 46//46 45//45 56//56
f 56//56 45//45 55//55
f 56//56 55//55 66//66
f 66//66 55//55 65//65
f 66//66 65//65 76//76
f 76//76 65//65 75//75
f 7//7 6//6 17//17
f 17//17 6//6 16//16
f 17//17 16//16 27//27
f 27//27 16//16 26//26
f 27//27 26//26 37//37
f 37//37 26//26 36//36
f 37//37 36//36 47//47
f 47//47 36//36 46//46
f 47//47 46//46 57//57
f 57//57 46//46 56//56
f 57//57 56//56 67//67
f 67//67 56//56 66//66
f 67//67 66//66 77//77
f 77//77 66//66 76//76
f 8//8 7//7 18//18
f 18//18 7//7 17//17
f 18//18 17//17 28//28
f 28//28 17//17 27//27
f 28//28 27//27 38//38
f 38//38 27//27 37//37
f 38//38 37//37 48//48
f 48//48 37//37 47//47
f 48//48 47//47 58//58
f 58//58 47//47 57//57
f 58//58 57//57 68//68
f 68//68 57//57 67//67
f 68//68 67//67 78//78
f 78//78 67//67 77//77
f 9//9 8//8 19//19
f 19//19 8//8 18//18
f 19//19 18//18 29//29
f 29//29 18//18 28//28
f 29//29 28//28 39//39
f 39//39 28//28 38//38
f 39//39 38//38 49//49
f 49//49 38//38 48//48
f 49//49 48//48 59//59
f 59//59 48//48 58//58
f 59//59 58//58 69//69
f 69//69 58//58 68//68
f 69//69 68//68 79//79
f 79//79 68//68 78//78
f 10//10 9//9 20//20
f 20//20 9//9 19//19
f 20//20 19//19 30//30
f 30//30 19//19 29//29
f 30//30 29//29 40//40
f 40//40 29//29 39//39
f 40//40 39//39 50//50
f 50//50 39//39 49//49
f 50//50 49//49 60//60
f 60//60 49//49 59//59
f 60//60 59//59 70//70
f 70//70 59//59 69//69
f 70//70 69//69 80//80
f 80//80 69//69 79//79
f 1//1 10//10 11//11
f 11//11 10//10 20//20
f 11//11 20//20 21//21
f 21//21 20//20 30//30
f 21//21 30//30 31//31
f 31//31 30//30 40//40
f 31//31 40//40 41//41
f 41//41 40//40 50//50
f 41//41 50//50 51//51
f 51//51 50//50 60//60
f 51//51 60//60 61//61
f 61//61 60//60 70//70
f 61//61 70//70 71//71
f 71//71 70//70 80//80
f 81//81 82//82 90//90
f 90//90 82//82 83//83
f 90//90 83//83 89//89
f 89//89 83//83 84//84
f 89//89 84//84 88//88
f 88//88 84//84 85//85
f 88//88 85//85 87//87
f 87//87 85//85 86//86
f 91//91 100//100 92//92
f 92//92 100//100 99//99
f 92//92 99//99 93//93
f 93//93 99//99 98//98
f 93//93 98//98 94//94
f 94//94 98//98 97//97
f 94//94 97//97 95//95
f 95//95 97//97 96//96
