# Generated by Visualization Toolkit
v -120.4864273071289 -108.94725799560547 -2794.071533203125
v -121.48526000976562 -111.87055206298828 -2794.14794921875
v -124.00968170166016 -113.64694213867188 -2794.29248046875
v -127.09546661376953 -113.59790802001953 -2794.44970703125
v -129.56393432617188 -111.74217987060547 -2794.5595703125
v -130.4722137451172 -108.78858184814453 -2794.580322265625
v -129.473388671875 -105.86528778076172 -2794.50390625
v -126.94896697998047 -104.08889770507812 -2794.359375
v -123.8631820678711 -104.13793182373047 -2794.2021484375
v -121.39471435546875 -105.99365997314453 -2794.09228515625
v -158.11521911621094 -115.35002136230469 -2057.68359375
v -159.10855102539062 -118.27278137207031 -2057.824462890625
v -161.61859130859375 -120.04779815673828 -2058.137939453125
v -164.6865692138672 -119.99705505371094 -2058.50390625
v -167.14065551757812 -118.13994598388672 -2058.782958984375
v -168.04344177246094 -115.18582153320312 -2058.8681640625
v -167.05010986328125 -112.2630615234375 -2058.727294921875
v -164.54006958007812 -110.48804473876953 -2058.413818359375
v -161.4720916748047 -110.53878784179688 -2058.0478515625
v -159.01800537109375 -112.3958969116211 -2057.768798828125
v -192.65940856933594 -116.55258178710938 -1874.7786865234375
v -193.65609741210938 -119.47456359863281 -1874.9119873046875
v -196.15133666992188 -121.24810791015625 -1875.333251953125
v -199.1920166015625 -121.19578552246094 -1875.881591796875
v -201.61671447753906 -119.33757019042969 -1876.3475341796875
v -202.49925231933594 -116.38325500488281 -1876.5531005859375
v -201.5025634765625 -113.46127319335938 -1876.4197998046875
v -199.00732421875 -111.68772888183594 -1875.99853515625
v -195.96664428710938 -111.74005126953125 -1875.4501953125
v -193.5419464111328 -113.5982666015625 -1874.9842529296875
v -435.55999755859375 -62.820369720458984 -459.719482421875
v -436.4952697753906 -65.64324951171875 -458.8794250488281
v -438.8759460449219 -67.25325775146484 -457.743896484375
v -441.79266357421875 -67.03543090820312 -456.74664306640625
v -444.13134765625 -65.07296752929688 -456.26861572265625
v -444.9986572265625 -62.1154670715332 -456.49237060546875
v -444.0633850097656 -59.2925910949707 -457.3324279785156
v -441.6827087402344 -57.682579040527344 -458.46795654296875
v -438.7659912109375 -57.90040588378906 -459.4652099609375
v -436.42730712890625 -59.86286544799805 -459.9432373046875
v -291.29742431640625 -13.754598617553711 -338.9275207519531
v -291.3499450683594 -16.278444290161133 -337.1452331542969
v -292.3686218261719 -17.423192977905273 -334.4617614746094
v -293.9643249511719 -16.751588821411133 -331.902099609375
v -295.5275573730469 -14.520161628723145 -330.4439697265625
v -296.46124267578125 -11.581241607666016 -330.6443176269531
v -296.4087219238281 -9.057394981384277 -332.4266052246094
v -295.3900451660156 -7.912646770477295 -335.1100769042969
v -293.7943420410156 -8.584251403808594 -337.66973876953125
v -292.2311096191406 -10.815678596496582 -339.12786865234375
v 162.611083984375 151.91107177734375 -213.4083251953125
v 162.85191345214844 149.5022430419922 -211.48773193359375
v 162.24046325683594 148.51808166503906 -208.6230010986328
v 161.01031494140625 149.33450317382812 -205.90834045410156
v 159.63133239746094 151.63967895507812 -204.3806915283203
v 158.6302490234375 154.5531005859375 -204.62353515625
v 158.38941955566406 156.96192932128906 -206.54412841796875
v 159.00086975097656 157.9460906982422 -209.4088592529297
v 160.23101806640625 157.12966918945312 -212.12351989746094
v 161.61000061035156 154.82449340820312 -213.6511688232422
v 856.06591796875 414.99493408203125 70.12619018554688
v 855.6253051757812 412.3302307128906 71.6275863647461
v 853.998779296875 410.9648742675781 73.87248229980469
v 851.8077392578125 411.42047119140625 76.0033950805664
v 849.8889770507812 413.52294921875 77.20638275146484
v 848.9754638671875 416.46923828125 77.02195739746094
v 849.4160766601562 419.1339416503906 75.52056121826172
v 851.0426025390625 420.4992980957031 73.27566528320312
v 853.233642578125 420.043701171875 71.1447525024414
v 855.1524047851562 417.94122314453125 69.94176483154297
v 939.011962890625 444.0047912597656 238.05563354492188
v 938.0537719726562 441.1549377441406 238.76931762695312
v 935.6696166992188 439.5186462402344 239.85914611816406
v 932.770263671875 439.720947265625 240.90882873535156
v 930.4630737304688 441.6845397949219 241.51744079589844
v 929.62939453125 444.6593933105469 241.4525146484375
v 930.5875854492188 447.5092468261719 240.73883056640625
v 932.9717407226562 449.1455383300781 239.6490020751953
v 935.87109375 448.9432373046875 238.5993194580078
v 938.1782836914062 446.9796447753906 237.99070739746094
v 949.7696533203125 447.45330810546875 279.45672607421875
v 948.7393798828125 444.5811462402344 279.9448547363281
v 946.25048828125 442.9125061035156 280.7000427246094
v 943.253662109375 443.08477783203125 281.4338684082031
v 940.8935546875 445.0321960449219 281.8659973144531
v 940.0716552734375 448.0108642578125 281.8314208984375
v 941.1019287109375 450.8830261230469 281.3432922363281
v 943.5908203125 452.5516662597656 280.5881042480469
v 946.587646484375 452.37939453125 279.8542785644531
v 948.94775390625 450.4319763183594 279.4221496582031
v 953.4842529296875 448.65814208984375 294.94677734375
v 952.4511108398438 445.7850036621094 295.42315673828125
v 949.9548950195312 444.11395263671875 296.1481628417969
v 946.9490966796875 444.2832336425781 296.8448486328125
v 944.5817260742188 446.22821044921875 297.24713134765625
v 943.757080078125 449.20599365234375 297.20135498046875
v 944.7902221679688 452.0791320800781 296.7249755859375
v 947.2864379882812 453.75018310546875 295.9999694824219
v 950.292236328125 453.5809020996094 295.30328369140625
v 952.6596069335938 451.63592529296875 294.9010009765625
v 977.0880737304688 457.15948486328125 396.30340576171875
v 976.05615234375 454.2867736816406 396.78466796875
v 973.5591430664062 452.6154479980469 397.50634765625
v 970.5509033203125 452.7839050292969 398.1927795410156
v 968.180419921875 454.7278137207031 398.5817565917969
v 967.3532104492188 457.70465087890625 398.52471923828125
v 968.3851318359375 460.5773620605469 398.04345703125
v 970.8821411132812 462.2486877441406 397.32177734375
v 973.890380859375 462.0802307128906 396.6353454589844
v 976.2608642578125 460.1363220214844 396.2463684082031
v -120.4864273071289 -108.94725799560547 -2794.071533203125
v -121.48526000976562 -111.87055206298828 -2794.14794921875
v -124.00968170166016 -113.64694213867188 -2794.29248046875
v -127.09546661376953 -113.59790802001953 -2794.44970703125
v -129.56393432617188 -111.74217987060547 -2794.5595703125
v -130.4722137451172 -108.78858184814453 -2794.580322265625
v -129.473388671875 -105.86528778076172 -2794.50390625
v -126.94896697998047 -104.08889770507812 -2794.359375
v -123.8631820678711 -104.13793182373047 -2794.2021484375
v -121.39471435546875 -105.99365997314453 -2794.09228515625
v 977.0880737304688 457.15948486328125 396.30340576171875
v 976.05615234375 454.2867736816406 396.78466796875
v 973.5591430664062 452.6154479980469 397.50634765625
v 970.5509033203125 452.7839050292969 398.1927795410156
v 968.180419921875 454.7278137207031 398.5817565917969
v 967.3532104492188 457.70465087890625 398.52471923828125
v 968.3851318359375 460.5773620605469 398.04345703125
v 970.8821411132812 462.2486877441406 397.32177734375
v 973.890380859375 462.0802307128906 396.6353454589844
v 976.2608642578125 460.1363220214844 396.2463684082031
vn 0.9985790848731995 -0.015867047011852264 0.05087294057011604
vn 0.7988131642341614 -0.6005257964134216 0.03558455780148506
vn 0.29392778873443604 -0.9558041095733643 0.0067040808498859406
vn -0.32322800159454346 -0.9459977149963379 -0.024737125262618065
vn -0.8169217109680176 -0.5748524069786072 -0.046729590743780136
vn -0.9985790848731995 0.015867047011852264 -0.05087294057011604
vn -0.7988131642341614 0.6005257964134216 -0.03558455780148506
vn -0.29392778873443604 0.9558041095733643 -0.0067040808498859406
vn 0.32322800159454346 0.9459977149963379 0.024737125262618065
vn 0.8169217109680176 0.5748524069786072 0.046729590743780136
vn 0.9928225874900818 -0.016419261693954468 0.11846377700567245
vn 0.7941560745239258 -0.6009725332260132 0.09026669710874557
vn 0.2921489477157593 -0.9559747576713562 0.0275908000767231
vn -0.3214491605758667 -0.945827066898346 -0.045623842626810074
vn -0.812264621257782 -0.5744056105613708 -0.10141173005104065
vn -0.9928225874900818 0.016419261693954468 -0.11846377700567245
vn -0.7941560745239258 0.6009725332260132 -0.09026669710874557
vn -0.2921489477157593 0.9559747576713562 -0.0275908000767231
vn 0.3214491605758667 0.945827066898346 0.045623842626810074
vn 0.812264621257782 0.5744056105613708 0.10141173005104065
vn 0.9839856624603271 -0.01693316176533699 0.17744162678718567
vn 0.7846463322639465 -0.6013292670249939 0.1507754772901535
vn 0.2855988144874573 -0.9560379981994629 0.06651822477579117
vn -0.32253775000572205 -0.9455727338790894 -0.043146733194589615
vn -0.8074758648872375 -0.5739307999610901 -0.13633111119270325
vn -0.9839856624603271 0.01693316176533699 -0.17744162678718567
vn -0.7846463322639465 0.6013292670249939 -0.1507754772901535
vn -0.2855988144874573 0.9560379981994629 -0.06651822477579117
vn 0.32253775000572205 0.9455727338790894 0.043146733194589615
vn 0.8074758648872375 0.5739307999610901 0.13633111119270325
vn 0.9438682794570923 -0.07048998028039932 -0.3227131962776184
vn 0.756809413433075 -0.6350656151771545 -0.1546972543001175
vn 0.2806750237941742 -0.9570677280426025 0.0724077969789505
vn -0.30266764760017395 -0.9135025143623352 0.27185553312301636
vn -0.7704015970230103 -0.5210103988647461 0.3674636781215668
vn -0.9438682794570923 0.07048998028039932 0.3227131962776184
vn -0.756809413433075 0.6350656151771545 0.1546972543001175
vn -0.2806750237941742 0.9570677280426025 -0.0724077969789505
vn 0.30266764760017395 0.9135025143623352 -0.27185553312301636
vn 0.7704015970230103 0.5210103988647461 -0.3674636781215668
vn 0.5163812637329102 -0.21733573079109192 -0.8283209204673767
vn 0.5058771371841431 -0.7221049666404724 -0.47186094522476196
vn 0.3021451234817505 -0.9510546326637268 0.0648338571190834
vn -0.016996072605252266 -0.8167337775230408 0.5767643451690674
vn -0.3296453356742859 -0.37044835090637207 0.8683904409408569
vn -0.5163812637329102 0.21733573079109192 0.8283209204673767
vn -0.5058771371841431 0.7221049666404724 0.47186094522476196
vn -0.3021451234817505 0.9510546326637268 -0.0648338571190834
vn 0.016996072605252266 0.8167337775230408 -0.5767643451690674
vn 0.3296453356742859 0.37044835090637207 -0.8683904409408569
vn 0.39808419346809387 -0.2642021179199219 -0.8784794807434082
vn 0.4462478756904602 -0.7459690570831299 -0.49436119198799133
vn 0.3239600360393524 -0.9428011775016785 0.07858628779649734
vn 0.07793048024177551 -0.7795153260231018 0.6215164661407471
vn -0.19786587357521057 -0.31848108768463135 0.9270485043525696
vn -0.39808419346809387 0.2642021179199219 0.8784794807434082
vn -0.4462478756904602 0.7459690570831299 0.49436119198799133
vn -0.3239600360393524 0.9428011775016785 -0.07858628779649734
vn -0.07793048024177551 0.7795153260231018 -0.6215164661407471
vn 0.19786587357521057 0.31848108768463135 -0.9270485043525696
vn 0.7090477347373962 -0.14742764830589294 -0.6895769834518433
vn 0.6209187507629395 -0.6803733706474304 -0.3892967998981476
vn 0.295619934797287 -0.9534395337104797 0.059681523591279984
vn -0.14259564876556396 -0.8623242378234863 0.4858635365962982
vn -0.5263445377349854 -0.4418303966522217 0.726462185382843
vn -0.7090477347373962 0.14742764830589294 0.6895769834518433
vn -0.6209187507629395 0.6803733706474304 0.3892967998981476
vn -0.295619934797287 0.9534395337104797 -0.059681523591279984
vn 0.14259564876556396 0.8623242378234863 -0.4858635365962982
vn 0.5263445377349854 0.4418303966522217 -0.726462185382843
vn 0.9382575154304504 -0.06546175479888916 -0.3396875560283661
vn 0.7466164231300354 -0.6354321241378784 -0.19695177674293518
vn 0.26979321241378784 -0.9626889824867249 0.02101290412247181
vn -0.31008180975914 -0.9222313761711121 0.23095136880874634
vn -0.7715161442756653 -0.5295127630233765 0.3526742458343506
vn -0.9382575154304504 0.06546175479888916 0.3396875560283661
vn -0.7466164231300354 0.6354321241378784 0.19695177674293518
vn -0.26979321241378784 0.9626889824867249 -0.02101290412247181
vn 0.31008180975914 0.9222313761711121 -0.23095136880874634
vn 0.7715161442756653 0.5295127630233765 -0.3526742458343506
vn 0.9697943329811096 -0.05575268343091011 -0.23746705055236816
vn 0.7637431025505066 -0.6301904320716858 -0.13984443247318268
vn 0.26596799492836 -0.9639168381690979 0.011194002814590931
vn -0.33339786529541016 -0.929459810256958 0.15795670449733734
vn -0.8054170608520508 -0.5399807095527649 0.24438533186912537
vn -0.9697943329811096 0.05575268343091011 0.23746705055236816
vn -0.7637431025505066 0.6301904320716858 0.13984443247318268
vn -0.26596799492836 0.9639168381690979 -0.011194002814590931
vn 0.33339786529541016 0.929459810256958 -0.15795670449733734
vn 0.8054170608520508 0.5399807095527649 -0.24438533186912537
vn 0.9727115035057068 -0.0547836571931839 -0.22545742988586426
vn 0.7660905718803406 -0.6294108033180237 -0.13018187880516052
vn 0.26684901118278503 -0.9636244177818298 0.014818721450865269
vn -0.3343197703361511 -0.9297662377357483 0.1541590690612793
vn -0.8077897429466248 -0.5407689809799194 0.23461590707302094
vn -0.9727115035057068 0.0547836571931839 0.22545742988586426
vn -0.7660905718803406 0.6294108033180237 0.13018187880516052
vn -0.26684901118278503 0.9636244177818298 -0.014818721450865269
vn 0.3343197703361511 0.9297662377357483 -0.1541590690612793
vn 0.8077897429466248 0.5407689809799194 -0.23461590707302094
vn 0.9734910726547241 -0.054514773190021515 -0.2221333235502243
vn 0.7670971751213074 -0.6290602087974548 -0.12587787210941315
vn 0.26769816875457764 -0.9633259773254395 0.018458662554621696
vn -0.3339524269104004 -0.9296340346336365 0.15574461221694946
vn -0.8080445528030396 -0.5408534407615662 0.23354141414165497
vn -0.9734910726547241 0.054514773190021515 0.2221333235502243
vn -0.7670971751213074 0.6290602087974548 0.12587787210941315
vn -0.26769816875457764 0.9633259773254395 -0.018458662554621696
vn 0.3339524269104004 0.9296340346336365 -0.15574461221694946
vn 0.8080445528030396 0.5408534407615662 -0.23354141414165497
vn 0.05101504549384117 0.008683412335813046 -0.998660147190094
vn 0.05101504549384117 0.008683412335813046 -0.998660147190094
vn 0.05101504549384117 0.008683412335813046 -0.998660147190094
vn 0.05101504549384117 0.008683412335813046 -0.998660147190094
vn 0.05101504549384117 0.008683412335813046 -0.998660147190094
vn 0.05101504549384117 0.008683412335813046 -0.998660147190094
vn 0.05101504549384117 0.008683412335813046 -0.998660147190094
vn 0.05101504549384117 0.008683412335813046 -0.998660147190094
vn 0.05101504549384117 0.008683412335813046 -0.998660147190094
vn 0.05101504549384117 0.008683412335813046 -0.998660147190094
vn 0.22605709731578827 0.0814189538359642 0.970705509185791
vn 0.22605709731578827 0.0814189538359642 0.970705509185791
vn 0.22605709731578827 0.0814189538359642 0.970705509185791
vn 0.22605709731578827 0.0814189538359642 0.970705509185791
vn 0.22605709731578827 0.0814189538359642 0.970705509185791
vn 0.22605709731578827 0.0814189538359642 0.970705509185791
vn 0.22605709731578827 0.0814189538359642 0.970705509185791
vn 0.22605709731578827 0.0814189538359642 0.970705509185791
vn 0.22605709731578827 0.0814189538359642 0.970705509185791
vn 0.22605709731578827 0.0814189538359642 0.970705509185791
f 2//2 1//1 12//12
f 12//12 1//1 11//11
f 12//12 11//11 22//22
f 22//22 11//11 21//21
f 22//22 21//21 32//32
f 32//32 21//21 31//31
f 32//32 31//31 42//42
f 42//42 31//31 41//41
f 42//42 41//41 52//52
f 52//52 41//41 51//51
f 52//52 51//51 62//62
f 62//62 51//51 61//61
f 62//62 61//61 72//72
f 72//72 61//61 71//71
f 72//72 71//71 82//82
f 82//82 71//71 81//81
f 82//82 81//81 92//92
f 92//92 81//81 91//91
f 92//92 91//91 102//102
f 102//102 91//91 101//101
f 3//3 2//2 13//13
f 13//13 2//2 12//12
f 13//13 12//12 23//23
f 23//23 12//12 22//22
f 23//23 22//22 33//33
f 33//33 22//22 32//32
f 33//33 32//32 43//43
f 43//43 32//32 42//42
f 43//43 42//42 53//53
f 53//53 42//42 52//52
f 53//53 52//52 63//63
f 63//63 52//52 62//62
f 63//63 62//62 73//73
f 73//73 62//62 72//72
f 73//73 72//72 83//83
f 83//83 72//72 82//82
f 83//83 82//82 93//93
f 93//93 82//82 92//92
f 93//93 92//92 103//103
f 103//103 92//92 102//102
f 4//4 3//3 14//14
f 14//14 3//3 13//13
f 14//14 13//13 24//24
f 24//24 13//13 23//23
f 24//24 23//23 34//34
f 34//34 23//23 33//33
f 34//34 33//33 44//44
f 44//44 33//33 43//43
f 44//44 43//43 54//54
f 54//54 43//43 53//53
f 54//54 53//53 64//64
f 64//64 53//53 63//63
f 64//64 63//63 74//74
f 74//74 63//63 73//73
f 74//74 73//73 84//84
f 84//84 73//73 83//83
f 84//84 83//83 94//94
f 94//94 83//83 93//93
f 94//94 93//93 104//104
f 104//104 93//93 103//103
f 5//5 4//4 15//15
f 15//15 4//4 14//14
f 15//15 14//14 25//25
f 25//25 14//14 24//24
f 25//25 24//24 35//35
f 35//35 24//24 34//34
f 35//35 34//34 45//45
f 45//45 34//34 44//44
f 45//45 44//44 55//55
f 55//55 44//44 54//54
f 55//55 54//54 65//65
f 65//65 54//54 64//64
f 65//65 64//64 75//75
f 75//75 64//64 74//74
f 75//75 74//74 85//85
f 85//85 74//74 84//84
f 85//85 84//84 95//95
f 95//95 84//84 94//94
f 95//95 94//94 105//105
f 105//105 94//94 104//104
f 6//6 5//5 16//16
f 16//16 5//5 15//15
f 16//16 15//15 26//26
f 26//26 15//15 25//25
f 26//26 25//25 36//36
f 36//36 25//25 35//35
f 36//36 35//35 46//46
f 46//46 35//35 45//45
f 46//46 45//45 56//56
f 56//56 45//45 55//55
f 56//56 55//55 66//66
f 66//66 55//55 65//65
f 66//66 65//65 76//76
f 76//76 65//65 75//75
f 76//76 75//75 86//86
f 86//86 75//75 85//85
f 86//86 85//85 96//96
f 96//96 85//85 95//95
f 96//96 95//95 106//106
f 106//106 95//95 105//105
f 7//7 6//6 17//17
f 17//17 6//6 16//16
f 17//17 16//16 27//27
f 27//27 16//16 26//26
f 27//27 26//26 37//37
f 37//37 26//26 36//36
f 37//37 36//36 47//47
f 47//47 36//36 46//46
f 47//47 46//46 57//57
f 57//57 46//46 56//56
f 57//57 56//56 67//67
f 67//67 56//56 66//66
f 67//67 66//66 77//77
f 77//77 66//66 76//76
f 77//77 76//76 87//87
f 87//87 76//76 86//86
f 87//87 86//86 97//97
f 97//97 86//86 96//96
f 97//97 96//96 107//107
f 107//107 96//96 106//106
f 8//8 7//7 18//18
f 18//18 7//7 17//17
f 18//18 17//17 28//28
f 28//28 17//17 27//27
f 28//28 27//27 38//38
f 38//38 27//27 37//37
f 38//38 37//37 48//48
f 48//48 37//37 47//47
f 48//48 47//47 58//58
f 58//58 47//47 57//57
f 58//58 57//57 68//68
f 68//68 57//57 67//67
f 68//68 67//67 78//78
f 78//78 67//67 77//77
f 78//78 77//77 88//88
f 88//88 77//77 87//87
f 88//88 87//87 98//98
f 98//98 87//87 97//97
f 98//98 97//97 108//108
f 108//108 97//97 107//107
f 9//9 8//8 19//19
f 19//19 8//8 18//18
f 19//19 18//18 29//29
f 29//29 18//18 28//28
f 29//29 28//28 39//39
f 39//39 28//28 38//38
f 39//39 38//38 49//49
f 49//49 38//38 48//48
f 49//49 48//48 59//59
f 59//59 48//48 58//58
f 59//59 58//58 69//69
f 69//69 58//58 68//68
f 69//69 68//68 79//79
f 79//79 68//68 78//78
f 79//79 78//78 89//89
f 89//89 78//78 88//88
f 89//89 88//88 99//99
f 99//99 88//88 98//98
f 99//99 98//98 109//109
f 109//109 98//98 108//108
f 10//10 9//9 20//20
f 20//20 9//9 19//19
f 20//20 19//19 30//30
f 30//30 19//19 29//29
f 30//30 29//29 40//40
f 40//40 29//29 39//39
f 40//40 39//39 50//50
f 50//50 39//39 49//49
f 50//50 49//49 60//60
f 60//60 49//49 59//59
f 60//60 59//59 70//70
f 70//70 59//59 69//69
f 70//70 69//69 80//80
f 80//80 69//69 79//79
f 80//80 79//79 90//90
f 90//90 79//79 89//89
f 90//90 89//89 100//100
f 100//100 89//89 99//99
f 100//100 99//99 110//110
f 110//110 99//99 109//109
f 1//1 10//10 11//11
f 11//11 10//10 20//20
f 11//11 20//20 21//21
f 21//21 20//20 30//30
f 21//21 30//30 31//31
f 31//31 30//30 40//40
f 31//31 40//40 41//41
f 41//41 40//40 50//50
f 41//41 50//50 51//51
f 51//51 50//50 60//60
f 51//51 60//60 61//61
f 61//61 60//60 70//70
f 61//61 70//70 71//71
f 71//71 70//70 80//80
f 71//71 80//80 81//81
f 81//81 80//80 90//90
f 81//81 90//90 91//91
f 91//91 90//90 100//100
f 91//91 100//100 101//101
f 101//101 100//100 110//110
f 111//111 112//112 120//120
f 120//120 112//112 113//113
f 120//120 113//113 119//119
f 119//119 113//113 114//114
f 119//119 114//114 118//118
f 118//118 114//114 115//115
f 118//118 115//115 117//117
f 117//117 115//115 116//116
f 121//121 130//130 122//122
f 122//122 130//130 129//129
f 122//122 129//129 123//123
f 123//123 129//129 128//128
f 123//123 128//128 124//124
f 124//124 128//128 127//127
f 124//124 127//127 125//125
f 125//125 127//127 126//126
