# Generated by Visualization Toolkit
v 2327.5380859375 -784.5852661132812 -2833.724365234375
v 2328.97021484375 -787.2604370117188 -2833.1396484375
v 2328.626220703125 -790.0531005859375 -2831.862060546875
v 2326.637939453125 -791.8965454101562 -2830.3798828125
v 2323.764404296875 -792.0866088867188 -2829.2587890625
v 2321.103515625 -790.5507202148438 -2828.927490234375
v 2319.67138671875 -787.8755493164062 -2829.51220703125
v 2320.015380859375 -785.0828857421875 -2830.789794921875
v 2322.003662109375 -783.2394409179688 -2832.27197265625
v 2324.877197265625 -783.0493774414062 -2833.39306640625
v 3154.378173828125 156.20001220703125 -554.3939819335938
v 3155.764404296875 153.47035217285156 -553.9735717773438
v 3155.30029296875 150.53506469726562 -553.126220703125
v 3153.163330078125 148.51531982421875 -552.1757202148438
v 3150.169921875 148.18260192871094 -551.4849853515625
v 3147.463134765625 149.66400146484375 -551.3179321289062
v 3146.076904296875 152.39366149902344 -551.7383422851562
v 3146.541015625 155.32894897460938 -552.585693359375
v 3148.677978515625 157.34869384765625 -553.5361938476562
v 3151.67138671875 157.68141174316406 -554.2269287109375
v 3161.408203125 170.0108184814453 -438.4546813964844
v 3162.77001953125 167.24273681640625 -438.275146484375
v 3162.241455078125 164.2031707763672 -438.0997314453125
v 3160.0244140625 162.05313110351562 -437.99542236328125
v 3156.965576171875 161.61387634277344 -438.0020751953125
v 3154.2333984375 163.0531768798828 -438.1171569824219
v 3152.87158203125 165.82125854492188 -438.29669189453125
v 3153.400146484375 168.86082458496094 -438.47210693359375
v 3155.6171875 171.0108642578125 -438.576416015625
v 3158.676025390625 171.4501190185547 -438.56976318359375
v 3150.816162109375 170.08079528808594 -308.1930236816406
v 3152.210693359375 167.3282012939453 -308.3585510253906
v 3151.737548828125 164.3096923828125 -308.82098388671875
v 3149.577392578125 162.17822265625 -309.4037170410156
v 3146.55517578125 161.74794006347656 -309.8841857910156
v 3143.825439453125 163.18321228027344 -310.0788269042969
v 3142.430908203125 165.93580627441406 -309.9132995605469
v 3142.904052734375 168.95431518554688 -309.45086669921875
v 3145.064208984375 171.08578491210938 -308.8681335449219
v 3148.08642578125 171.5160675048828 -308.3876647949219
v 3123.194580078125 133.2655487060547 -171.65301513671875
v 3124.644775390625 130.57159423828125 -172.08705139160156
v 3124.25244140625 127.63333129882812 -172.9599151611328
v 3122.16748046875 125.57308959960938 -173.93821716308594
v 3119.18603515625 125.17781066894531 -174.64825439453125
v 3116.447021484375 126.59846496582031 -174.81884765625
v 3114.996826171875 129.29241943359375 -174.3848114013672
v 3115.38916015625 132.23068237304688 -173.51194763183594
v 3117.47412109375 134.29092407226562 -172.5336456298828
v 3120.45556640625 134.6862030029297 -171.8236083984375
v 2327.5380859375 -784.5852661132812 -2833.724365234375
v 2328.97021484375 -787.2604370117188 -2833.1396484375
v 2328.626220703125 -790.0531005859375 -2831.862060546875
v 2326.637939453125 -791.8965454101562 -2830.3798828125
v 2323.764404296875 -792.0866088867188 -2829.2587890625
v 2321.103515625 -790.5507202148438 -2828.927490234375
v 2319.67138671875 -787.8755493164062 -2829.51220703125
v 2320.015380859375 -785.0828857421875 -2830.789794921875
v 2322.003662109375 -783.2394409179688 -2832.27197265625
v 2324.877197265625 -783.0493774414062 -2833.39306640625
v 3123.194580078125 133.2655487060547 -171.65301513671875
v 3124.644775390625 130.57159423828125 -172.08705139160156
v 3124.25244140625 127.63333129882812 -172.9599151611328
v 3122.16748046875 125.57308959960938 -173.93821716308594
v 3119.18603515625 125.17781066894531 -174.64825439453125
v 3116.447021484375 126.59846496582031 -174.81884765625
v 3114.996826171875 129.29241943359375 -174.3848114013672
v 3115.38916015625 132.23068237304688 -173.51194763183594
v 3117.47412109375 134.29092407226562 -172.5336456298828
v 3120.45556640625 134.6862030029297 -171.8236083984375
vn 0.6434597373008728 0.5965460538864136 -0.4796794652938843
vn 0.9298613667488098 0.061510201543569565 -0.36273184418678284
vn 0.8610875606536865 -0.4970204532146454 -0.107232965528965
vn 0.46340757608413696 -0.865706205368042 0.18922525644302368
vn -0.11127834767103195 -0.9037215709686279 0.4134058654308319
vn -0.6434597373008728 -0.5965460538864136 0.4796794652938843
vn -0.9298613667488098 -0.061510201543569565 0.36273184418678284
vn -0.8610875606536865 0.4970204532146454 0.107232965528965
vn -0.46340757608413696 0.865706205368042 -0.18922525644302368
vn 0.11127834767103195 0.9037215709686279 -0.4134058654308319
vn 0.6915097832679749 0.6536015868186951 -0.30760231614112854
vn 0.9687346816062927 0.10766908526420593 -0.2235184907913208
vn 0.8759358525276184 -0.47938933968544006 -0.05405820161104202
vn 0.4485592842102051 -0.8833373188972473 0.1360504925251007
vn -0.15015166997909546 -0.9498804807662964 0.2741925120353699
vn -0.6915097832679749 -0.6536015868186951 0.30760231614112854
vn -0.9687346816062927 -0.10766908526420593 0.2235184907913208
vn -0.8759358525276184 0.47938933968544006 0.05405820161104202
vn -0.4485592842102051 0.8833373188972473 -0.1360504925251007
vn 0.15015166997909546 0.9498804807662964 -0.2741925120353699
vn 0.7174758315086365 0.6957651376724243 -0.033752620220184326
vn 0.9898431897163391 0.1421472430229187 0.0021535258274525404
vn 0.8841240406036377 -0.4657661020755768 0.03723709657788277
vn 0.44069957733154297 -0.8957726359367371 0.05809736251831055
vn -0.17105713486671448 -0.9836244583129883 0.056766409426927567
vn -0.7174758315086365 -0.6957651376724243 0.033752620220184326
vn -0.9898431897163391 -0.1421472430229187 -0.0021535258274525404
vn -0.8841240406036377 0.4657661020755768 -0.03723709657788277
vn -0.44069957733154297 0.8957726359367371 -0.05809736251831055
vn 0.17105713486671448 0.9836244583129883 -0.056766409426927567
vn 0.6990509629249573 0.6897580027580261 0.18857811391353607
vn 0.9779772758483887 0.13923971354961395 0.15547603368759155
vn 0.8833494782447815 -0.46446341276168823 0.06298738718032837
vn 0.45131227374076843 -0.8907572627067566 -0.053560301661491394
vn -0.15311092138290405 -0.9768121838569641 -0.14964976906776428
vn -0.6990509629249573 -0.6897580027580261 -0.18857811391353607
vn -0.9779772758483887 -0.13923971354961395 -0.15547603368759155
vn -0.8833494782447815 0.46446341276168823 -0.06298738718032837
vn -0.45131227374076843 0.8907572627067566 0.053560301661491394
vn 0.15311092138290405 0.9768121838569641 0.14964976906776428
vn 0.6747415661811829 0.6667078137397766 0.3165825605392456
vn 0.9648007154464722 0.12791629135608673 0.22977593541145325
vn 0.8863388299942017 -0.4597349166870117 0.05520270764827728
vn 0.46932557225227356 -0.8717830181121826 -0.14045608043670654
vn -0.1269540637731552 -0.9508395791053772 -0.282465398311615
vn -0.6747415661811829 -0.6667078137397766 -0.3165825605392456
vn -0.9648007154464722 -0.12791629135608673 -0.22977593541145325
vn -0.8863388299942017 0.4597349166870117 -0.05520270764827728
vn -0.46932557225227356 0.8717830181121826 0.14045608043670654
vn 0.1269540637731552 0.9508395791053772 0.282465398311615
vn -0.3179410696029663 -0.3617512881755829 -0.8763843178749084
vn -0.3179410696029663 -0.3617512881755829 -0.8763843178749084
vn -0.3179410696029663 -0.3617512881755829 -0.8763843178749084
vn -0.3179410696029663 -0.3617512881755829 -0.8763843178749084
vn -0.3179410696029663 -0.3617512881755829 -0.8763843178749084
vn -0.3179410696029663 -0.3617512881755829 -0.8763843178749084
vn -0.3179410696029663 -0.3617512881755829 -0.8763843178749084
vn -0.3179410696029663 -0.3617512881755829 -0.8763843178749084
vn -0.3179410696029663 -0.3617512881755829 -0.8763843178749084
vn -0.3179410696029663 -0.3617512881755829 -0.8763843178749084
vn -0.19173216819763184 -0.25587525963783264 0.9475054740905762
vn -0.19173216819763184 -0.25587525963783264 0.9475054740905762
vn -0.19173216819763184 -0.25587525963783264 0.9475054740905762
vn -0.19173216819763184 -0.25587525963783264 0.9475054740905762
vn -0.19173216819763184 -0.25587525963783264 0.9475054740905762
vn -0.19173216819763184 -0.25587525963783264 0.9475054740905762
vn -0.19173216819763184 -0.25587525963783264 0.9475054740905762
vn -0.19173216819763184 -0.25587525963783264 0.9475054740905762
vn -0.19173216819763184 -0.25587525963783264 0.9475054740905762
vn -0.19173216819763184 -0.25587525963783264 0.9475054740905762
f 2//2 1//1 12//12
f 12//12 1//1 11//11
f 12//12 11//11 22//22
f 22//22 11//11 21//21
f 22//22 21//21 32//32
f 32//32 21//21 31//31
f 32//32 31//31 42//42
f 42//42 31//31 41//41
f 3//3 2//2 13//13
f 13//13 2//2 12//12
f 13//13 12//12 23//23
f 23//23 12//12 22//22
f 23//23 22//22 33//33
f 33//33 22//22 32//32
f 33//33 32//32 43//43
f 43//43 32//32 42//42
f 4//4 3//3 14//14
f 14//14 3//3 13//13
f 14//14 13//13 24//24
f 24//24 13//13 23//23
f 24//24 23//23 34//34
f 34//34 23//23 33//33
f 34//34 33//33 44//44
f 44//44 33//33 43//43
f 5//5 4//4 15//15
f 15//15 4//4 14//14
f 15//15 14//14 25//25
f 25//25 14//14 24//24
f 25//25 24//24 35//35
f 35//35 24//24 34//34
f 35//35 34//34 45//45
f 45//45 34//34 44//44
f 6//6 5//5 16//16
f 16//16 5//5 15//15
f 16//16 15//15 26//26
f 26//26 15//15 25//25
f 26//26 25//25 36//36
f 36//36 25//25 35//35
f 36//36 35//35 46//46
f 46//46 35//35 45//45
f 7//7 6//6 17//17
f 17//17 6//6 16//16
f 17//17 16//16 27//27
f 27//27 16//16 26//26
f 27//27 26//26 37//37
f 37//37 26//26 36//36
f 37//37 36//36 47//47
f 47//47 36//36 46//46
f 8//8 7//7 18//18
f 18//18 7//7 17//17
f 18//18 17//17 28//28
f 28//28 17//17 27//27
f 28//28 27//27 38//38
f 38//38 27//27 37//37
f 38//38 37//37 48//48
f 48//48 37//37 47//47
f 9//9 8//8 19//19
f 19//19 8//8 18//18
f 19//19 18//18 29//29
f 29//29 18//18 28//28
f 29//29 28//28 39//39
f 39//39 28//28 38//38
f 39//39 38//38 49//49
f 49//49 38//38 48//48
f 10//10 9//9 20//20
f 20//20 9//9 19//19
f 20//20 19//19 30//30
f 30//30 19//19 29//29
f 30//30 29//29 40//40
f 40//40 29//29 39//39
f 40//40 39//39 50//50
f 50//50 39//39 49//49
f 1//1 10//10 11//11
f 11//11 10//10 20//20
f 11//11 20//20 21//21
f 21//21 20//20 30//30
f 21//21 30//30 31//31
f 31//31 30//30 40//40
f 31//31 40//40 41//41
f 41//41 40//40 50//50
f 51//51 52//52 60//60
f 60//60 52//52 53//53
f 60//60 53//53 59//59
f 59//59 53//53 54//54
f 59//59 54//54 58//58
f 58//58 54//54 55//55
f 58//58 55//55 57//57
f 57//57 55//55 56//56
f 61//61 70//70 62//62
f 62//62 70//70 69//69
f 62//62 69//69 63//63
f 63//63 69//69 68//68
f 63//63 68//68 64//64
f 64//64 68//68 67//67
f 64//64 67//67 65//65
f 65//65 67//67 66//66
