# Generated by Visualization Toolkit
v -10078.2587890625 -2576.480712890625 -2783.885009765625
v -10081.314453125 -2576.019287109375 -2783.88818359375
v -10083.515625 -2573.857666015625 -2784.05859375
v -10084.0234375 -2570.821533203125 -2784.3310546875
v -10082.6416015625 -2568.070556640625 -2784.6015625
v -10079.8994140625 -2566.655517578125 -2784.766845703125
v -10076.84375 -2567.116943359375 -2784.763671875
v -10074.642578125 -2569.278564453125 -2784.59326171875
v -10074.134765625 -2572.314697265625 -2784.32080078125
v -10075.5166015625 -2575.065673828125 -2784.05029296875
v -10069.1767578125 -2510.92822265625 -2072.86962890625
v -10072.228515625 -2510.5341796875 -2073.148681640625
v -10074.421875 -2508.548583984375 -2074.0419921875
v -10074.91796875 -2505.72998046875 -2075.207763671875
v -10073.52734375 -2503.1552734375 -2076.200927734375
v -10070.7822265625 -2501.8076171875 -2076.64208984375
v -10067.73046875 -2502.20166015625 -2076.363037109375
v -10065.537109375 -2504.187255859375 -2075.4697265625
v -10065.041015625 -2507.005859375 -2074.303955078125
v -10066.431640625 -2509.58056640625 -2073.310791015625
v -10184.2705078125 -1625.9349365234375 -982.6654052734375
v -10187.3037109375 -1625.696533203125 -983.202880859375
v -10189.4501953125 -1624.1104736328125 -984.7613525390625
v -10189.8876953125 -1621.7823486328125 -986.7455444335938
v -10188.451171875 -1619.6015625 -988.3975830078125
v -10185.6884765625 -1618.4010009765625 -989.08642578125
v -10182.6552734375 -1618.639404296875 -988.5489501953125
v -10180.5087890625 -1620.2254638671875 -986.990478515625
v -10180.0712890625 -1622.5535888671875 -985.0062866210938
v -10181.5078125 -1624.734375 -983.354248046875
v -10281.3427734375 -927.4246215820312 -161.6888885498047
v -10284.3798828125 -927.162109375 -162.1944122314453
v -10286.5380859375 -925.488525390625 -163.64016723632812
v -10286.9931640625 -923.043212890625 -165.47390747070312
v -10285.5712890625 -920.7601928710938 -166.99520874023438
v -10282.8154296875 -919.5114135742188 -167.6229705810547
v -10279.7783203125 -919.77392578125 -167.11744689941406
v -10277.6201171875 -921.447509765625 -165.67169189453125
v -10277.1650390625 -923.892822265625 -163.83795166015625
v -10278.5869140625 -926.1758422851562 -162.316650390625
v -10302.97265625 -777.5052490234375 78.91280364990234
v -10306.0205078125 -777.1700439453125 78.52880096435547
v -10308.2119140625 -775.2679443359375 77.46690368652344
v -10308.7109375 -772.5255126953125 76.13273620605469
v -10307.3251953125 -769.9903564453125 75.03589630126953
v -10304.5859375 -768.6307373046875 74.59534454345703
v -10301.5380859375 -768.9659423828125 74.9793472290039
v -10299.3466796875 -770.8680419921875 76.04124450683594
v -10298.84765625 -773.6104736328125 77.37541198730469
v -10300.2333984375 -776.1456298828125 78.47225189208984
v -10328.5234375 -632.53759765625 506.786865234375
v -10331.580078125 -632.1416625976562 506.5661315917969
v -10333.7958984375 -630.0750732421875 505.9588317871094
v -10334.3251953125 -627.1273193359375 505.1969299316406
v -10332.9638671875 -624.4242553710938 504.5714416503906
v -10330.234375 -622.9984130859375 504.3212890625
v -10327.177734375 -623.3943481445312 504.5420227050781
v -10324.9619140625 -625.4609375 505.1493225097656
v -10324.4326171875 -628.40869140625 505.9112243652344
v -10325.7939453125 -631.1117553710938 506.5367126464844
v -10330.0107421875 -620.3198852539062 579.8445434570312
v -10333.0703125 -619.90673828125 579.70751953125
v -10335.29296875 -617.798095703125 579.3018188476562
v -10335.8291015625 -614.7994995117188 578.7824096679688
v -10334.474609375 -612.0562133789062 578.34765625
v -10331.7470703125 -610.6161499023438 578.1636352539062
v -10328.6875 -611.029296875 578.3006591796875
v -10326.46484375 -613.137939453125 578.7063598632812
v -10325.9287109375 -616.1365356445312 579.2257690429688
v -10327.283203125 -618.8798217773438 579.6605224609375
v -10334.51171875 -587.4168701171875 772.10205078125
v -10337.5703125 -587.0054931640625 771.9544067382812
v -10339.79296875 -584.899169921875 771.535400390625
v -10340.3291015625 -581.9024047851562 771.0051879882812
v -10338.9736328125 -579.1598510742188 770.5662231445312
v -10336.24609375 -577.7191162109375 770.3861083984375
v -10333.1875 -578.1304931640625 770.5337524414062
v -10330.96484375 -580.23681640625 770.9527587890625
v -10330.4287109375 -583.2335815429688 771.4829711914062
v -10331.7841796875 -585.9761352539062 771.9219360351562
v -10335.912109375 -578.3179931640625 824.4657592773438
v -10338.970703125 -577.9068603515625 824.3167114257812
v -10341.1923828125 -575.8002319335938 823.8992919921875
v -10341.728515625 -572.8027954101562 823.3729248046875
v -10340.3740234375 -570.0594482421875 822.9386596679688
v -10337.646484375 -568.6180419921875 822.7623901367188
v -10334.587890625 -569.0291748046875 822.9114379882812
v -10332.3662109375 -571.1358032226562 823.328857421875
v -10331.830078125 -574.1332397460938 823.855224609375
v -10333.1845703125 -576.8765869140625 824.2894897460938
v -10336.4111328125 -574.9202880859375 844.661865234375
v -10339.470703125 -574.5084838867188 844.5169067382812
v -10341.6923828125 -572.4005737304688 844.1072998046875
v -10342.2294921875 -569.4016723632812 843.5895385742188
v -10340.875 -566.6572875976562 843.1613159179688
v -10338.1474609375 -565.2156982421875 842.986328125
v -10335.087890625 -565.6275024414062 843.1312866210938
v -10332.8662109375 -567.7354125976562 843.5408935546875
v -10332.3291015625 -570.7343139648438 844.0586547851562
v -10333.68359375 -573.4786987304688 844.4868774414062
v -10078.2587890625 -2576.480712890625 -2783.885009765625
v -10081.314453125 -2576.019287109375 -2783.88818359375
v -10083.515625 -2573.857666015625 -2784.05859375
v -10084.0234375 -2570.821533203125 -2784.3310546875
v -10082.6416015625 -2568.070556640625 -2784.6015625
v -10079.8994140625 -2566.655517578125 -2784.766845703125
v -10076.84375 -2567.116943359375 -2784.763671875
v -10074.642578125 -2569.278564453125 -2784.59326171875
v -10074.134765625 -2572.314697265625 -2784.32080078125
v -10075.5166015625 -2575.065673828125 -2784.05029296875
v -10336.4111328125 -574.9202880859375 844.661865234375
v -10339.470703125 -574.5084838867188 844.5169067382812
v -10341.6923828125 -572.4005737304688 844.1072998046875
v -10342.2294921875 -569.4016723632812 843.5895385742188
v -10340.875 -566.6572875976562 843.1613159179688
v -10338.1474609375 -565.2156982421875 842.986328125
v -10335.087890625 -565.6275024414062 843.1312866210938
v -10332.8662109375 -567.7354125976562 843.5408935546875
v -10332.3291015625 -570.7343139648438 844.0586547851562
v -10333.68359375 -573.4786987304688 844.4868774414062
vn 0.16404986381530762 -0.9825032949447632 0.08817539364099503
vn -0.44705426692962646 -0.8902137875556946 0.08753206580877304
vn -0.8873988389968872 -0.45789289474487305 0.05345446616411209
vn -0.9887872338294983 0.14932754635810852 -0.0010409223614260554
vn -0.7124925255775452 0.6995099186897278 -0.055138714611530304
vn -0.16404986381530762 0.9825032949447632 -0.08817539364099503
vn 0.44705426692962646 0.8902137875556946 -0.08753206580877304
vn 0.8873988389968872 0.45789289474487305 -0.05345446616411209
vn 0.9887872338294983 -0.14932754635810852 0.0010409223614260554
vn 0.7124925255775452 -0.6995099186897278 0.055138714611530304
vn 0.160544291138649 -0.9120823740959167 0.3772682249546051
vn -0.4498903155326843 -0.8332420587539673 0.3214130699634552
vn -0.8884821534156799 -0.43613162636756897 0.1427890658378601
vn -0.9877039790153503 0.12756627798080444 -0.09037552028894424
vn -0.7096564769744873 0.6425381898880005 -0.28901973366737366
vn -0.160544291138649 0.9120823740959167 -0.3772682249546051
vn 0.4498903155326843 0.8332420587539673 -0.3214130699634552
vn 0.8884821534156799 0.43613162636756897 -0.1427890658378601
vn 0.9877039790153503 -0.12756627798080444 0.09037552028894424
vn 0.7096564769744873 -0.6425381898880005 0.28901973366737366
vn 0.14182892441749573 -0.7533870339393616 0.6421000957489014
vn -0.4649163782596588 -0.7057239413261414 0.5346087217330933
vn -0.8940793871879578 -0.3884982764720917 0.22291502356529236
vn -0.9817345142364502 0.07712052762508392 -0.17392465472221375
vn -0.6944003701210022 0.5132818818092346 -0.5043310523033142
vn -0.14182892441749573 0.7533870339393616 -0.6421000957489014
vn 0.4649163782596588 0.7057239413261414 -0.5346087217330933
vn 0.8940793871879578 0.3884982764720917 -0.22291502356529236
vn 0.9817345142364502 -0.07712052762508392 0.17392465472221375
vn 0.6944003701210022 -0.5132818818092346 0.5043310523033142
vn 0.1472325176000595 -0.7913201451301575 0.5934096574783325
vn -0.4602099359035492 -0.738813579082489 0.4923020303249359
vn -0.8918678164482117 -0.40410536527633667 0.20315179228782654
vn -0.9828625321388245 0.08495739102363586 -0.1635955423116684
vn -0.6984371542930603 0.5415692925453186 -0.46785491704940796
vn -0.1472325176000595 0.7913201451301575 -0.5934096574783325
vn 0.4602099359035492 0.738813579082489 -0.4923020303249359
vn 0.8918678164482117 0.40410536527633667 -0.20315179228782654
vn 0.9828625321388245 -0.08495739102363586 0.1635955423116684
vn 0.6984371542930603 -0.5415692925453186 0.46785491704940796
vn 0.16129377484321594 -0.8874567151069641 0.43174633383750916
vn -0.44827303290367126 -0.8204057216644287 0.35494473576545715
vn -0.8866147994995117 -0.4399875998497009 0.14256630837917328
vn -0.9862998127937317 0.10849080979824066 -0.12426760047674179
vn -0.7092518210411072 0.6155294179916382 -0.3436354994773865
vn -0.16129377484321594 0.8874567151069641 -0.43174633383750916
vn 0.44827303290367126 0.8204057216644287 -0.35494473576545715
vn 0.8866147994995117 0.4399875998497009 -0.14256630837917328
vn 0.9862998127937317 -0.10849080979824066 0.12426760047674179
vn 0.7092518210411072 -0.6155294179916382 0.3436354994773865
vn 0.17102579772472382 -0.9539176225662231 0.24655888974666595
vn -0.44032177329063416 -0.8747259974479675 0.20241336524486542
vn -0.8834813833236694 -0.4614187180995941 0.08095282316207886
vn -0.9891811609268188 0.1281348019838333 -0.07142895460128784
vn -0.7170473337173462 0.668745219707489 -0.19652730226516724
vn -0.17102579772472382 0.9539176225662231 -0.24655888974666595
vn 0.44032177329063416 0.8747259974479675 -0.20241336524486542
vn 0.8834813833236694 0.4614187180995941 -0.08095282316207886
vn 0.9891811609268188 -0.1281348019838333 0.07142895460128784
vn 0.7170473337173462 -0.668745219707489 0.19652730226516724
vn 0.17354737222194672 -0.970375120639801 0.1680876463651657
vn -0.43832385540008545 -0.8877381086349487 0.14068827033042908
vn -0.882770299911499 -0.46601536870002747 0.05955075845122337
vn -0.990028440952301 0.13370943069458008 -0.044333118945360184
vn -0.7191294431686401 0.6823617815971375 -0.1312832534313202
vn -0.17354737222194672 0.970375120639801 -0.1680876463651657
vn 0.43832385540008545 0.8877381086349487 -0.14068827033042908
vn 0.882770299911499 0.46601536870002747 -0.05955075845122337
vn 0.990028440952301 -0.13370943069458008 0.044333118945360184
vn 0.7191294431686401 -0.6823617815971375 0.1312832534313202
vn 0.1734660565853119 -0.9697766900062561 0.17158883810043335
vn -0.4383552372455597 -0.8875041604042053 0.14206010103225708
vn -0.8827397227287292 -0.4662351906299591 0.05826924368739128
vn -0.9899476766586304 0.13311974704265594 -0.04777848720550537
vn -0.7190291881561279 0.6816274523735046 -0.13557645678520203
vn -0.1734660565853119 0.9697766900062561 -0.17158883810043335
vn 0.4383552372455597 0.8875041604042053 -0.14206010103225708
vn 0.8827397227287292 0.4662351906299591 -0.05826924368739128
vn 0.9899476766586304 -0.13311974704265594 0.04777848720550537
vn 0.7190291881561279 -0.6816274523735046 0.13557645678520203
vn 0.17349515855312347 -0.969992995262146 0.170332133769989
vn -0.43831878900527954 -0.8877667188644409 0.14052368700504303
vn -0.8827098608016968 -0.4664437174797058 0.05703996866941452
vn -0.9899357557296753 0.13304491341114044 -0.04823107644915581
vn -0.7190398573875427 0.6817148923873901 -0.135079488158226
vn -0.17349515855312347 0.969992995262146 -0.170332133769989
vn 0.43831878900527954 0.8877667188644409 -0.14052368700504303
vn 0.8827098608016968 0.4664437174797058 -0.05703996866941452
vn 0.9899357557296753 -0.13304491341114044 0.04823107644915581
vn 0.7190398573875427 -0.6817148923873901 0.135079488158226
vn 0.1735658198595047 -0.9704631567001343 0.16755950450897217
vn -0.4382687509059906 -0.8880990743637085 0.13856610655784607
vn -0.8826995491981506 -0.4665113091468811 0.056645166128873825
vn -0.9899691343307495 0.13326789438724518 -0.0469123013317585
vn -0.7191041707992554 0.6821432709693909 -0.13255086541175842
vn -0.1735658198595047 0.9704631567001343 -0.16755950450897217
vn 0.4382687509059906 0.8880990743637085 -0.13856610655784607
vn 0.8826995491981506 0.4665113091468811 -0.056645166128873825
vn 0.9899691343307495 -0.13326789438724518 0.0469123013317585
vn 0.7191041707992554 -0.6821432709693909 0.13255086541175842
vn -0.012769277207553387 -0.09149397164583206 -0.9957237839698792
vn -0.012769277207553387 -0.09149397164583206 -0.9957237839698792
vn -0.012769277207553387 -0.09149397164583206 -0.9957237839698792
vn -0.012769277207553387 -0.09149397164583206 -0.9957237839698792
vn -0.012769277207553387 -0.09149397164583206 -0.9957237839698792
vn -0.012769277207553387 -0.09149397164583206 -0.9957237839698792
vn -0.012769277207553387 -0.09149397164583206 -0.9957237839698792
vn -0.012769277207553387 -0.09149397164583206 -0.9957237839698792
vn -0.012769277207553387 -0.09149397164583206 -0.9957237839698792
vn -0.012769277207553387 -0.09149397164583206 -0.9957237839698792
vn -0.024390093982219696 0.1658538281917572 0.9858486652374268
vn -0.024390093982219696 0.1658538281917572 0.9858486652374268
vn -0.024390093982219696 0.1658538281917572 0.9858486652374268
vn -0.024390093982219696 0.1658538281917572 0.9858486652374268
vn -0.024390093982219696 0.1658538281917572 0.9858486652374268
vn -0.024390093982219696 0.1658538281917572 0.9858486652374268
vn -0.024390093982219696 0.1658538281917572 0.9858486652374268
vn -0.024390093982219696 0.1658538281917572 0.9858486652374268
vn -0.024390093982219696 0.1658538281917572 0.9858486652374268
vn -0.024390093982219696 0.1658538281917572 0.9858486652374268
f 2//2 1//1 12//12
f 12//12 1//1 11//11
f 12//12 11//11 22//22
f 22//22 11//11 21//21
f 22//22 21//21 32//32
f 32//32 21//21 31//31
f 32//32 31//31 42//42
f 42//42 31//31 41//41
f 42//42 41//41 52//52
f 52//52 41//41 51//51
f 52//52 51//51 62//62
f 62//62 51//51 61//61
f 62//62 61//61 72//72
f 72//72 61//61 71//71
f 72//72 71//71 82//82
f 82//82 71//71 81//81
f 82//82 81//81 92//92
f 92//92 81//81 91//91
f 3//3 2//2 13//13
f 13//13 2//2 12//12
f 13//13 12//12 23//23
f 23//23 12//12 22//22
f 23//23 22//22 33//33
f 33//33 22//22 32//32
f 33//33 32//32 43//43
f 43//43 32//32 42//42
f 43//43 42//42 53//53
f 53//53 42//42 52//52
f 53//53 52//52 63//63
f 63//63 52//52 62//62
f 63//63 62//62 73//73
f 73//73 62//62 72//72
f 73//73 72//72 83//83
f 83//83 72//72 82//82
f 83//83 82//82 93//93
f 93//93 82//82 92//92
f 4//4 3//3 14//14
f 14//14 3//3 13//13
f 14//14 13//13 24//24
f 24//24 13//13 23//23
f 24//24 23//23 34//34
f 34//34 23//23 33//33
f 34//34 33//33 44//44
f 44//44 33//33 43//43
f 44//44 43//43 54//54
f 54//54 43//43 53//53
f 54//54 53//53 64//64
f 64//64 53//53 63//63
f 64//64 63//63 74//74
f 74//74 63//63 73//73
f 74//74 73//73 84//84
f 84//84 73//73 83//83
f 84//84 83//83 94//94
f 94//94 83//83 93//93
f 5//5 4//4 15//15
f 15//15 4//4 14//14
f 15//15 14//14 25//25
f 25//25 14//14 24//24
f 25//25 24//24 35//35
f 35//35 24//24 34//34
f 35//35 34//34 45//45
f 45//45 34//34 44//44
f 45//45 44//44 55//55
f 55//55 44//44 54//54
f 55//55 54//54 65//65
f 65//65 54//54 64//64
f 65//65 64//64 75//75
f 75//75 64//64 74//74
f 75//75 74//74 85//85
f 85//85 74//74 84//84
f 85//85 84//84 95//95
f 95//95 84//84 94//94
f 6//6 5//5 16//16
f 16//16 5//5 15//15
f 16//16 15//15 26//26
f 26//26 15//15 25//25
f 26//26 25//25 36//36
f 36//36 25//25 35//35
f 36//36 35//35 46//46
f 46//46 35//35 45//45
f 46//46 45//45 56//56
f 56//56 45//45 55//55
f 56//56 55//55 66//66
f 66//66 55//55 65//65
f 66//66 65//65 76//76
f 76//76 65//65 75//75
f 76//76 75//75 86//86
f 86//86 75//75 85//85
f 86//86 85//85 96//96
f 96//96 85//85 95//95
f 7//7 6//6 17//17
f 17//17 6//6 16//16
f 17//17 16//16 27//27
f 27//27 16//16 26//26
f 27//27 26//26 37//37
f 37//37 26//26 36//36
f 37//37 36//36 47//47
f 47//47 36//36 46//46
f 47//47 46//46 57//57
f 57//57 46//46 56//56
f 57//57 56//56 67//67
f 67//67 56//56 66//66
f 67//67 66//66 77//77
f 77//77 66//66 76//76
f 77//77 76//76 87//87
f 87//87 76//76 86//86
f 87//87 86//86 97//97
f 97//97 86//86 96//96
f 8//8 7//7 18//18
f 18//18 7//7 17//17
f 18//18 17//17 28//28
f 28//28 17//17 27//27
f 28//28 27//27 38//38
f 38//38 27//27 37//37
f 38//38 37//37 48//48
f 48//48 37//37 47//47
f 48//48 47//47 58//58
f 58//58 47//47 57//57
f 58//58 57//57 68//68
f 68//68 57//57 67//67
f 68//68 67//67 78//78
f 78//78 67//67 77//77
f 78//78 77//77 88//88
f 88//88 77//77 87//87
f 88//88 87//87 98//98
f 98//98 87//87 97//97
f 9//9 8//8 19//19
f 19//19 8//8 18//18
f 19//19 18//18 29//29
f 29//29 18//18 28//28
f 29//29 28//28 39//39
f 39//39 28//28 38//38
f 39//39 38//38 49//49
f 49//49 38//38 48//48
f 49//49 48//48 59//59
f 59//59 48//48 58//58
f 59//59 58//58 69//69
f 69//69 58//58 68//68
f 69//69 68//68 79//79
f 79//79 68//68 78//78
f 79//79 78//78 89//89
f 89//89 78//78 88//88
f 89//89 88//88 99//99
f 99//99 88//88 98//98
f 10//10 9//9 20//20
f 20//20 9//9 19//19
f 20//20 19//19 30//30
f 30//30 19//19 29//29
f 30//30 29//29 40//40
f 40//40 29//29 39//39
f 40//40 39//39 50//50
f 50//50 39//39 49//49
f 50//50 49//49 60//60
f 60//60 49//49 59//59
f 60//60 59//59 70//70
f 70//70 59//59 69//69
f 70//70 69//69 80//80
f 80//80 69//69 79//79
f 80//80 79//79 90//90
f 90//90 79//79 89//89
f 90//90 89//89 100//100
f 100//100 89//89 99//99
f 1//1 10//10 11//11
f 11//11 10//10 20//20
f 11//11 20//20 21//21
f 21//21 20//20 30//30
f 21//21 30//30 31//31
f 31//31 30//30 40//40
f 31//31 40//40 41//41
f 41//41 40//40 50//50
f 41//41 50//50 51//51
f 51//51 50//50 60//60
f 51//51 60//60 61//61
f 61//61 60//60 70//70
f 61//61 70//70 71//71
f 71//71 70//70 80//80
f 71//71 80//80 81//81
f 81//81 80//80 90//90
f 81//81 90//90 91//91
f 91//91 90//90 100//100
f 101//101 102//102 110//110
f 110//110 102//102 103//103
f 110//110 103//103 109//109
f 109//109 103//103 104//104
f 109//109 104//104 108//108
f 108//108 104//104 105//105
f 108//108 105//105 107//107
f 107//107 105//105 106//106
f 111//111 120//120 112//112
f 112//112 120//120 119//119
f 112//112 119//119 113//113
f 113//113 119//119 118//118
f 113//113 118//118 114//114
f 114//114 118//118 117//117
f 114//114 117//117 115//115
f 115//115 117//117 116//116
