# Generated by Visualization Toolkit
v -118.11968231201172 -112.65817260742188 -2793.9228515625
v -116.31624603271484 -115.15260314941406 -2794.196044921875
v -116.3321533203125 -118.22583770751953 -2794.518798828125
v -118.16131591796875 -120.70399475097656 -2794.767822265625
v -121.10505676269531 -121.64051818847656 -2794.84814453125
v -124.03897857666016 -120.67767333984375 -2794.72900390625
v -125.84241485595703 -118.18324279785156 -2794.455810546875
v -125.82650756835938 -115.1100082397461 -2794.133056640625
v -123.99734497070312 -112.63185119628906 -2793.884033203125
v -121.05360412597656 -111.69532775878906 -2793.8037109375
v -113.5290756225586 -191.3219757080078 -2045.2041015625
v -111.72384643554688 -193.80421447753906 -2045.5628662109375
v -111.73504638671875 -196.84555053710938 -2046.1099853515625
v -113.55840301513672 -199.28427124023438 -2046.636474609375
v -116.49744415283203 -200.1888885498047 -2046.941162109375
v -119.42957305908203 -199.21385192871094 -2046.90771484375
v -121.23480224609375 -196.7316131591797 -2046.5489501953125
v -121.22360229492188 -193.69027709960938 -2046.0018310546875
v -119.4002456665039 -191.25155639648438 -2045.475341796875
v -116.4612045288086 -190.34693908691406 -2045.170654296875
v -132.54725646972656 -237.9725799560547 -1863.5428466796875
v -130.7396697998047 -240.44387817382812 -1863.9605712890625
v -130.7042694091797 -243.38270568847656 -1864.9150390625
v -132.45458984375 -245.6665496826172 -1866.0418701171875
v -135.3220672607422 -246.4230499267578 -1866.910400390625
v -138.21141052246094 -245.36326599121094 -1867.1890869140625
v -140.0189971923828 -242.8919677734375 -1866.7713623046875
v -140.0543975830078 -239.95314025878906 -1865.81689453125
v -138.3040771484375 -237.66929626464844 -1864.6900634765625
v -135.4365997314453 -236.9127960205078 -1863.821533203125
v -601.763671875 -798.6781005859375 -477.28643798828125
v -599.7783203125 -800.8648681640625 -478.1950378417969
v -599.4358520507812 -803.3201904296875 -480.0398254394531
v -600.8670043945312 -805.106201171875 -482.1161193847656
v -603.5252075195312 -805.540771484375 -483.6308288574219
v -606.39501953125 -804.457763671875 -484.00543212890625
v -608.38037109375 -802.27099609375 -483.0968322753906
v -608.7228393554688 -799.815673828125 -481.2520446777344
v -607.2916870117188 -798.0296630859375 -479.1757507324219
v -604.6334838867188 -797.5950927734375 -477.6610412597656
v -702.015869140625 -1048.496337890625 -310.43133544921875
v -699.9252319335938 -1050.2113037109375 -311.9269714355469
v -699.4212646484375 -1051.87158203125 -314.4841003417969
v -700.6965942382812 -1052.8428955078125 -317.1259765625
v -703.2639770507812 -1052.754150390625 -318.84344482421875
v -706.142822265625 -1051.639404296875 -318.98052978515625
v -708.2334594726562 -1049.9244384765625 -317.4848937988281
v -708.7374267578125 -1048.26416015625 -314.9277648925781
v -707.4620971679688 -1047.2928466796875 -312.285888671875
v -704.8947143554688 -1047.381591796875 -310.56842041015625
v -866.6587524414062 -1435.58447265625 -126.94962310791016
v -864.543212890625 -1437.244384765625 -128.47210693359375
v -864.0075073242188 -1438.8369140625 -131.06556701660156
v -865.2562255859375 -1439.7537841796875 -133.73936462402344
v -867.8125 -1439.6446533203125 -135.4722137451172
v -870.6998901367188 -1438.55126953125 -135.6022186279297
v -872.8154296875 -1436.891357421875 -134.07974243164062
v -873.3511352539062 -1435.298828125 -131.4862823486328
v -872.1024169921875 -1434.3819580078125 -128.81248474121094
v -869.546142578125 -1434.4910888671875 -127.07963562011719
v -984.2545776367188 -1745.7694091796875 55.90111541748047
v -982.220458984375 -1747.634033203125 54.51025390625
v -981.8131103515625 -1749.5499267578125 52.12009811401367
v -983.1880493164062 -1750.7850341796875 49.64360809326172
v -985.8201293945312 -1750.8677978515625 48.0267219543457
v -988.7040405273438 -1749.7664794921875 47.88703155517578
v -990.7381591796875 -1747.90185546875 49.27789306640625
v -991.1455078125 -1745.9859619140625 51.66804885864258
v -989.7705688476562 -1744.7508544921875 54.14453887939453
v -987.1384887695312 -1744.6680908203125 55.76142501831055
v -999.7053833007812 -1779.21875 85.83512878417969
v -997.777587890625 -1781.3236083984375 84.65087890625
v -997.492919921875 -1783.521728515625 82.4976577758789
v -998.9600830078125 -1784.9735107421875 80.19791412353516
v -1001.6187133789062 -1785.12451171875 78.63008117675781
v -1004.4533081054688 -1783.9169921875 78.39302062988281
v -1006.381103515625 -1781.8121337890625 79.5772705078125
v -1006.665771484375 -1779.614013671875 81.7304916381836
v -1005.1986083984375 -1778.1622314453125 84.03023529052734
v -1002.5399780273438 -1778.01123046875 85.59806823730469
v -1021.3251342773438 -1818.254638671875 125.6021957397461
v -1019.4273071289062 -1820.42041015625 124.4810562133789
v -1019.1918334960938 -1822.718994140625 122.4290771484375
v -1020.7086791992188 -1824.272216796875 120.23004150390625
v -1023.3983764648438 -1824.4869384765625 118.72390747070312
v -1026.233642578125 -1823.28125 118.48595428466797
v -1028.1314697265625 -1821.115478515625 119.60709381103516
v -1028.3668212890625 -1818.81689453125 121.65907287597656
v -1026.85009765625 -1817.263671875 123.85810852050781
v -1024.160400390625 -1817.0489501953125 125.36424255371094
v -1059.0726318359375 -1897.8514404296875 213.5193634033203
v -1057.1697998046875 -1900.0062255859375 212.3855438232422
v -1056.9512939453125 -1902.3372802734375 210.36880493164062
v -1058.5006103515625 -1903.954345703125 208.239501953125
v -1061.225830078125 -1904.23974609375 206.81092834472656
v -1064.0860595703125 -1903.0843505859375 206.62876892089844
v -1065.9888916015625 -1900.9295654296875 207.76258850097656
v -1066.2073974609375 -1898.5985107421875 209.77932739257812
v -1064.6580810546875 -1896.9814453125 211.90863037109375
v -1061.932861328125 -1896.696044921875 213.3372039794922
v -118.11968231201172 -112.65817260742188 -2793.9228515625
v -116.31624603271484 -115.15260314941406 -2794.196044921875
v -116.3321533203125 -118.22583770751953 -2794.518798828125
v -118.16131591796875 -120.70399475097656 -2794.767822265625
v -121.10505676269531 -121.64051818847656 -2794.84814453125
v -124.03897857666016 -120.67767333984375 -2794.72900390625
v -125.84241485595703 -118.18324279785156 -2794.455810546875
v -125.82650756835938 -115.1100082397461 -2794.133056640625
v -123.99734497070312 -112.63185119628906 -2793.884033203125
v -121.05360412597656 -111.69532775878906 -2793.8037109375
v -1059.0726318359375 -1897.8514404296875 213.5193634033203
v -1057.1697998046875 -1900.0062255859375 212.3855438232422
v -1056.9512939453125 -1902.3372802734375 210.36880493164062
v -1058.5006103515625 -1903.954345703125 208.239501953125
v -1061.225830078125 -1904.23974609375 206.81092834472656
v -1064.0860595703125 -1903.0843505859375 206.62876892089844
v -1065.9888916015625 -1900.9295654296875 207.76258850097656
v -1066.2073974609375 -1898.5985107421875 209.77932739257812
v -1064.6580810546875 -1896.9814453125 211.90863037109375
v -1061.932861328125 -1896.696044921875 213.3372039794922
vn 0.5919294953346252 0.8019496202468872 0.08059971779584885
vn 0.952616274356842 0.303063303232193 0.02597822993993759
vn 0.9494360089302063 -0.31158289313316345 -0.03856605663895607
vn 0.5836035013198853 -0.8072149753570557 -0.08837942034006119
vn -0.005145763047039509 -0.9945183992385864 -0.10443484783172607
vn -0.5919294953346252 -0.8019496202468872 -0.08059971779584885
vn -0.952616274356842 -0.303063303232193 -0.02597822993993759
vn -0.9494360089302063 0.31158289313316345 0.03856605663895607
vn -0.5836035013198853 0.8072149753570557 0.08837942034006119
vn 0.005145763047039509 0.9945183992385864 0.10443484783172607
vn 0.5900493264198303 0.7891879677772522 0.1703648865222931
vn 0.9510951638221741 0.2927389144897461 0.09859977662563324
vn 0.9488549828529358 -0.31552645564079285 -0.010827095247805119
vn 0.584184467792511 -0.8032714128494263 -0.11611838638782501
vn -0.0036246515810489655 -0.9841940402984619 -0.17705640196800232
vn -0.5900493264198303 -0.7891879677772522 -0.1703648865222931
vn -0.9510951638221741 -0.2927389144897461 -0.09859977662563324
vn -0.9488549828529358 0.31552645564079285 0.010827095247805119
vn -0.584184467792511 0.8032714128494263 0.11611838638782501
vn 0.0036246515810489655 0.9841940402984619 0.17705640196800232
vn 0.5664151310920715 0.7390674352645874 0.36462751030921936
vn 0.9279333353042603 0.24480940401554108 0.2810836732387543
vn 0.9350125789642334 -0.3429574966430664 0.09017542004585266
vn 0.5849487781524658 -0.7997263073921204 -0.13517677783966064
vn 0.011454424820840359 -0.9510268568992615 -0.3088960349559784
vn -0.5664151310920715 -0.7390674352645874 -0.36462751030921936
vn -0.9279333353042603 -0.24480940401554108 -0.2810836732387543
vn -0.9350125789642334 0.3429574966430664 -0.09017542004585266
vn -0.5849487781524658 0.7997263073921204 0.13517677783966064
vn -0.011454424820840359 0.9510268568992615 0.3088960349559784
vn 0.46313726902008057 0.5779718160629272 0.6719021201133728
vn 0.8602045774459839 0.14061595499515533 0.4901787340641022
vn 0.9287030100822449 -0.35045042634010315 0.12122376263141632
vn 0.6424684524536133 -0.7076566815376282 -0.29403457045555115
vn 0.11083277314901352 -0.7945621013641357 -0.5969817042350769
vn -0.46313726902008057 -0.5779718160629272 -0.6719021201133728
vn -0.8602045774459839 -0.14061595499515533 -0.4901787340641022
vn -0.9287030100822449 0.35045042634010315 -0.12122376263141632
vn -0.6424684524536133 0.7076566815376282 0.29403457045555115
vn -0.11083277314901352 0.7945621013641357 0.5969817042350769
vn 0.4126972258090973 0.3143071234226227 0.8549222350120544
vn 0.8308277130126953 -0.028697889298200607 0.5557893514633179
vn 0.9316102266311646 -0.3607412874698639 0.04436379671096802
vn 0.6765493154525757 -0.554993748664856 -0.48400720953941345
vn 0.16306953132152557 -0.5372574925422668 -0.8275039196014404
vn -0.4126972258090973 -0.3143071234226227 -0.8549222350120544
vn -0.8308277130126953 0.028697889298200607 -0.5557893514633179
vn -0.9316102266311646 0.3607412874698639 -0.04436379671096802
vn -0.6765493154525757 0.554993748664856 0.48400720953941345
vn -0.16306953132152557 0.5372574925422668 0.8275039196014404
vn 0.4041080176830292 0.29668599367141724 0.86525958776474
vn 0.8272237181663513 -0.03530874103307724 0.5607622265815735
vn 0.9343680143356323 -0.3538167476654053 0.042072754353284836
vn 0.6846154928207397 -0.5371787548065186 -0.49268707633018494
vn 0.17336316406726837 -0.5153567790985107 -0.8392571806907654
vn -0.4041080176830292 -0.29668599367141724 -0.86525958776474
vn -0.8272237181663513 0.03530874103307724 -0.5607622265815735
vn -0.9343680143356323 0.3538167476654053 -0.042072754353284836
vn -0.6846154928207397 0.5371787548065186 0.49268707633018494
vn -0.17336316406726837 0.5153567790985107 0.8392571806907654
vn 0.4449441134929657 0.39971113204956055 0.801408588886261
vn 0.8517670631408691 0.02677535079419613 0.5232360363006592
vn 0.933243989944458 -0.3563877046108246 0.04520505666732788
vn 0.6582533717155457 -0.6034227609634399 -0.45009270310401917
vn 0.13183237612247467 -0.6199708580970764 -0.7734703421592712
vn -0.4449441134929657 -0.39971113204956055 -0.801408588886261
vn -0.8517670631408691 -0.02677535079419613 -0.5232360363006592
vn -0.933243989944458 0.3563877046108246 -0.04520505666732788
vn -0.6582533717155457 0.6034227609634399 0.45009270310401917
vn -0.13183237612247467 0.6199708580970764 0.7734703421592712
vn 0.4747891426086426 0.46981319785118103 0.7442115545272827
vn 0.8603478074073792 0.04884694144129753 0.5073614716529846
vn 0.9172828197479248 -0.39077720046043396 0.07671656459569931
vn 0.6238469481468201 -0.68113774061203 -0.3832314610481262
vn 0.09212280064821243 -0.7113267779350281 -0.6967980861663818
vn -0.4747891426086426 -0.46981319785118103 -0.7442115545272827
vn -0.8603478074073792 -0.04884694144129753 -0.5073614716529846
vn -0.9172828197479248 0.39077720046043396 -0.07671656459569931
vn -0.6238469481468201 0.68113774061203 0.3832314610481262
vn -0.09212280064821243 0.7113267779350281 0.6967980861663818
vn 0.49085065722465515 0.5026504397392273 0.7116236090660095
vn 0.8704105615615845 0.06949605792760849 0.4873969256877899
vn 0.9175031781196594 -0.39020344614982605 0.077001191675663
vn 0.6141408085823059 -0.700858473777771 -0.36280637979507446
vn 0.07619748264551163 -0.7438094019889832 -0.6640342473983765
vn -0.49085065722465515 -0.5026504397392273 -0.7116236090660095
vn -0.8704105615615845 -0.06949605792760849 -0.4873969256877899
vn -0.9175031781196594 0.39020344614982605 -0.077001191675663
vn -0.6141408085823059 0.700858473777771 0.36280637979507446
vn -0.07619748264551163 0.7438094019889832 0.6640342473983765
vn 0.5013502240180969 0.5233001112937927 0.6890609264373779
vn 0.8819042444229126 0.0923452153801918 0.46229562163352966
vn 0.9256008267402649 -0.3738824129104614 0.05894911289215088
vn 0.6157493591308594 -0.6972996592521667 -0.36691394448280334
vn 0.07070257514715195 -0.7543721795082092 -0.6526283621788025
vn -0.5013502240180969 -0.5233001112937927 -0.6890609264373779
vn -0.8819042444229126 -0.0923452153801918 -0.46229562163352966
vn -0.9256008267402649 0.3738824129104614 -0.05894911289215088
vn -0.6157493591308594 0.6972996592521667 0.36691394448280334
vn -0.07070257514715195 0.7543721795082092 0.6526283621788025
vn -0.006113769952207804 0.10446556657552719 -0.9945096969604492
vn -0.006113769952207804 0.10446556657552719 -0.9945096969604492
vn -0.006113769952207804 0.10446556657552719 -0.9945096969604492
vn -0.006113769952207804 0.10446556657552719 -0.9945096969604492
vn -0.006113769952207804 0.10446556657552719 -0.9945096969604492
vn -0.006113769952207804 0.10446556657552719 -0.9945096969604492
vn -0.006113769952207804 0.10446556657552719 -0.9945096969604492
vn -0.006113769952207804 0.10446556657552719 -0.9945096969604492
vn -0.006113769952207804 0.10446556657552719 -0.9945096969604492
vn -0.006113769952207804 0.10446556657552719 -0.9945096969604492
vn -0.3033214509487152 -0.6395426392555237 0.7063860893249512
vn -0.3033214509487152 -0.6395426392555237 0.7063860893249512
vn -0.3033214509487152 -0.6395426392555237 0.7063860893249512
vn -0.3033214509487152 -0.6395426392555237 0.7063860893249512
vn -0.3033214509487152 -0.6395426392555237 0.7063860893249512
vn -0.3033214509487152 -0.6395426392555237 0.7063860893249512
vn -0.3033214509487152 -0.6395426392555237 0.7063860893249512
vn -0.3033214509487152 -0.6395426392555237 0.7063860893249512
vn -0.3033214509487152 -0.6395426392555237 0.7063860893249512
vn -0.3033214509487152 -0.6395426392555237 0.7063860893249512
f 2//2 1//1 12//12
f 12//12 1//1 11//11
f 12//12 11//11 22//22
f 22//22 11//11 21//21
f 22//22 21//21 32//32
f 32//32 21//21 31//31
f 32//32 31//31 42//42
f 42//42 31//31 41//41
f 42//42 41//41 52//52
f 52//52 41//41 51//51
f 52//52 51//51 62//62
f 62//62 51//51 61//61
f 62//62 61//61 72//72
f 72//72 61//61 71//71
f 72//72 71//71 82//82
f 82//82 71//71 81//81
f 82//82 81//81 92//92
f 92//92 81//81 91//91
f 3//3 2//2 13//13
f 13//13 2//2 12//12
f 13//13 12//12 23//23
f 23//23 12//12 22//22
f 23//23 22//22 33//33
f 33//33 22//22 32//32
f 33//33 32//32 43//43
f 43//43 32//32 42//42
f 43//43 42//42 53//53
f 53//53 42//42 52//52
f 53//53 52//52 63//63
f 63//63 52//52 62//62
f 63//63 62//62 73//73
f 73//73 62//62 72//72
f 73//73 72//72 83//83
f 83//83 72//72 82//82
f 83//83 82//82 93//93
f 93//93 82//82 92//92
f 4//4 3//3 14//14
f 14//14 3//3 13//13
f 14//14 13//13 24//24
f 24//24 13//13 23//23
f 24//24 23//23 34//34
f 34//34 23//23 33//33
f 34//34 33//33 44//44
f 44//44 33//33 43//43
f 44//44 43//43 54//54
f 54//54 43//43 53//53
f 54//54 53//53 64//64
f 64//64 53//53 63//63
f 64//64 63//63 74//74
f 74//74 63//63 73//73
f 74//74 73//73 84//84
f 84//84 73//73 83//83
f 84//84 83//83 94//94
f 94//94 83//83 93//93
f 5//5 4//4 15//15
f 15//15 4//4 14//14
f 15//15 14//14 25//25
f 25//25 14//14 24//24
f 25//25 24//24 35//35
f 35//35 24//24 34//34
f 35//35 34//34 45//45
f 45//45 34//34 44//44
f 45//45 44//44 55//55
f 55//55 44//44 54//54
f 55//55 54//54 65//65
f 65//65 54//54 64//64
f 65//65 64//64 75//75
f 75//75 64//64 74//74
f 75//75 74//74 85//85
f 85//85 74//74 84//84
f 85//85 84//84 95//95
f 95//95 84//84 94//94
f 6//6 5//5 16//16
f 16//16 5//5 15//15
f 16//16 15//15 26//26
f 26//26 15//15 25//25
f 26//26 25//25 36//36
f 36//36 25//25 35//35
f 36//36 35//35 46//46
f 46//46 35//35 45//45
f 46//46 45//45 56//56
f 56//56 45//45 55//55
f 56//56 55//55 66//66
f 66//66 55//55 65//65
f 66//66 65//65 76//76
f 76//76 65//65 75//75
f 76//76 75//75 86//86
f 86//86 75//75 85//85
f 86//86 85//85 96//96
f 96//96 85//85 95//95
f 7//7 6//6 17//17
f 17//17 6//6 16//16
f 17//17 16//16 27//27
f 27//27 16//16 26//26
f 27//27 26//26 37//37
f 37//37 26//26 36//36
f 37//37 36//36 47//47
f 47//47 36//36 46//46
f 47//47 46//46 57//57
f 57//57 46//46 56//56
f 57//57 56//56 67//67
f 67//67 56//56 66//66
f 67//67 66//66 77//77
f 77//77 66//66 76//76
f 77//77 76//76 87//87
f 87//87 76//76 86//86
f 87//87 86//86 97//97
f 97//97 86//86 96//96
f 8//8 7//7 18//18
f 18//18 7//7 17//17
f 18//18 17//17 28//28
f 28//28 17//17 27//27
f 28//28 27//27 38//38
f 38//38 27//27 37//37
f 38//38 37//37 48//48
f 48//48 37//37 47//47
f 48//48 47//47 58//58
f 58//58 47//47 57//57
f 58//58 57//57 68//68
f 68//68 57//57 67//67
f 68//68 67//67 78//78
f 78//78 67//67 77//77
f 78//78 77//77 88//88
f 88//88 77//77 87//87
f 88//88 87//87 98//98
f 98//98 87//87 97//97
f 9//9 8//8 19//19
f 19//19 8//8 18//18
f 19//19 18//18 29//29
f 29//29 18//18 28//28
f 29//29 28//28 39//39
f 39//39 28//28 38//38
f 39//39 38//38 49//49
f 49//49 38//38 48//48
f 49//49 48//48 59//59
f 59//59 48//48 58//58
f 59//59 58//58 69//69
f 69//69 58//58 68//68
f 69//69 68//68 79//79
f 79//79 68//68 78//78
f 79//79 78//78 89//89
f 89//89 78//78 88//88
f 89//89 88//88 99//99
f 99//99 88//88 98//98
f 10//10 9//9 20//20
f 20//20 9//9 19//19
f 20//20 19//19 30//30
f 30//30 19//19 29//29
f 30//30 29//29 40//40
f 40//40 29//29 39//39
f 40//40 39//39 50//50
f 50//50 39//39 49//49
f 50//50 49//49 60//60
f 60//60 49//49 59//59
f 60//60 59//59 70//70
f 70//70 59//59 69//69
f 70//70 69//69 80//80
f 80//80 69//69 79//79
f 80//80 79//79 90//90
f 90//90 79//79 89//89
f 90//90 89//89 100//100
f 100//100 89//89 99//99
f 1//1 10//10 11//11
f 11//11 10//10 20//20
f 11//11 20//20 21//21
f 21//21 20//20 30//30
f 21//21 30//30 31//31
f 31//31 30//30 40//40
f 31//31 40//40 41//41
f 41//41 40//40 50//50
f 41//41 50//50 51//51
f 51//51 50//50 60//60
f 51//51 60//60 61//61
f 61//61 60//60 70//70
f 61//61 70//70 71//71
f 71//71 70//70 80//80
f 71//71 80//80 81//81
f 81//81 80//80 90//90
f 81//81 90//90 91//91
f 91//91 90//90 100//100
f 101//101 102//102 110//110
f 110//110 102//102 103//103
f 110//110 103//103 109//109
f 109//109 103//103 104//104
f 109//109 104//104 108//108
f 108//108 104//104 105//105
f 108//108 105//105 107//107
f 107//107 105//105 106//106
f 111//111 120//120 112//112
f 112//112 120//120 119//119
f 112//112 119//119 113//113
f 113//113 119//119 118//118
f 113//113 118//118 114//114
f 114//114 118//118 117//117
f 114//114 117//117 115//115
f 115//115 117//117 116//116
