# Generated by Visualization Toolkit
v -128.45358276367188 -117.25306701660156 -2793.689697265625
v -126.94111633300781 -114.56742095947266 -2793.46875
v -124.1445541381836 -113.25704956054688 -2793.574951171875
v -121.13209533691406 -113.82245635986328 -2793.96826171875
v -119.05439758300781 -116.04769134521484 -2794.498046875
v -118.70507049560547 -119.08277893066406 -2794.962158203125
v -120.21754455566406 -121.76842498779297 -2795.18310546875
v -123.01410675048828 -123.07879638671875 -2795.076904296875
v -126.02656555175781 -122.51338958740234 -2794.68359375
v -128.10426330566406 -120.28815460205078 -2794.15380859375
v -52.1741828918457 -220.5299530029297 -2060.87255859375
v -50.676876068115234 -217.82962036132812 -2060.748291015625
v -47.920013427734375 -216.48080444335938 -2061.108154296875
v -44.956626892089844 -216.99868774414062 -2061.81494140625
v -42.91862869262695 -219.18548583984375 -2062.59814453125
v -42.584468841552734 -222.2058868408203 -2063.1591796875
v -44.0817756652832 -224.90621948242188 -2063.283447265625
v -46.83863830566406 -226.25503540039062 -2062.923583984375
v -49.802024841308594 -225.73715209960938 -2062.216796875
v -51.840023040771484 -223.55035400390625 -2061.43359375
v 8.049181938171387 -255.203369140625 -1873.509521484375
v 9.442374229431152 -252.4506378173828 -1873.6846923828125
v 12.011370658874512 -251.00320434570312 -1874.6090087890625
v 14.774904251098633 -251.41392517089844 -1875.9293212890625
v 16.677398681640625 -253.52590942382812 -1877.1414794921875
v 16.992162704467773 -256.532470703125 -1877.7822265625
v 15.598971366882324 -259.2851867675781 -1877.6070556640625
v 13.029974937438965 -260.7326354980469 -1876.6827392578125
v 10.266441345214844 -260.3219299316406 -1875.3624267578125
v 8.363947868347168 -258.2099304199219 -1874.1502685546875
v 863.2503662109375 -461.5826110839844 -443.8018493652344
v 864.3775634765625 -458.7758483886719 -444.4347229003906
v 866.705322265625 -457.26470947265625 -445.7937927246094
v 869.3445434570312 -457.6264343261719 -447.3599548339844
v 871.287109375 -459.7228698730469 -448.53497314453125
v 871.791015625 -462.7532043457031 -448.8700256347656
v 870.663818359375 -465.5599670410156 -448.2371520996094
v 868.3360595703125 -467.07110595703125 -446.8780822753906
v 865.6968383789062 -466.7093811035156 -445.3119201660156
v 863.7542724609375 -464.6129455566406 -444.13690185546875
v 919.3107299804688 -450.179443359375 -348.03057861328125
v 920.1613159179688 -447.4228515625 -349.13818359375
v 922.3333129882812 -445.9439392089844 -350.764404296875
v 924.9970092773438 -446.3076477050781 -352.2880554199219
v 927.135009765625 -448.3750305175781 -353.127197265625
v 927.9306030273438 -451.35638427734375 -352.9613037109375
v 927.0800170898438 -454.11297607421875 -351.85369873046875
v 924.9080200195312 -455.5918884277344 -350.22747802734375
v 922.2443237304688 -455.2281799316406 -348.7038269042969
v 920.1063232421875 -453.1607971191406 -347.86468505859375
v 1012.2553100585938 -402.4771423339844 -197.79470825195312
v 1012.8851318359375 -399.8306579589844 -199.26051330566406
v 1015.0181884765625 -398.34429931640625 -200.93084716796875
v 1017.8397216796875 -398.5858154296875 -202.16766357421875
v 1020.2720336914062 -400.46295166015625 -202.49856567382812
v 1021.3860473632812 -403.2586975097656 -201.79714965820312
v 1020.7562255859375 -405.9051818847656 -200.3313446044922
v 1018.6231689453125 -407.39154052734375 -198.6610107421875
v 1015.8016357421875 -407.1500244140625 -197.4241943359375
v 1013.3693237304688 -405.27288818359375 -197.09329223632812
v 1074.3408203125 -298.8351135253906 -13.12500286102295
v 1074.89892578125 -296.2973937988281 -14.797599792480469
v 1077.0697021484375 -294.77972412109375 -16.389345169067383
v 1080.02392578125 -294.86181640625 -17.292247772216797
v 1082.633056640625 -296.5122985839844 -17.161426544189453
v 1083.900634765625 -299.1007385253906 -16.04685401916504
v 1083.342529296875 -301.6384582519531 -14.374256134033203
v 1081.1717529296875 -303.1561279296875 -12.782509803771973
v 1078.217529296875 -303.07403564453125 -11.879609107971191
v 1075.6083984375 -301.4235534667969 -12.010429382324219
v 1098.104736328125 -251.21163940429688 64.1655502319336
v 1098.5970458984375 -248.8017120361328 62.29499816894531
v 1100.70263671875 -247.41017150878906 60.511940002441406
v 1103.6173095703125 -247.56857299804688 59.4974479675293
v 1106.2275390625 -249.2163848876953 59.63902282714844
v 1107.53662109375 -251.72421264648438 60.88258743286133
v 1107.0443115234375 -254.13414001464844 62.753143310546875
v 1104.938720703125 -255.5256805419922 64.53620147705078
v 1102.0240478515625 -255.36727905273438 65.55069732666016
v 1099.413818359375 -253.71946716308594 65.40911865234375
v 1108.3138427734375 -234.2289581298828 85.72728729248047
v 1108.712890625 -231.97315979003906 83.6533203125
v 1110.7191162109375 -230.74667358398438 81.64839935302734
v 1113.5662841796875 -231.01797485351562 80.47833251953125
v 1116.1668701171875 -232.6834259033203 80.59004211425781
v 1117.5274658203125 -235.1068878173828 81.94086456298828
v 1117.12841796875 -237.36268615722656 84.01483154296875
v 1115.1221923828125 -238.58917236328125 86.0197525024414
v 1112.2750244140625 -238.31787109375 87.1898193359375
v 1109.6744384765625 -236.6524200439453 87.07810974121094
v 1124.025146484375 -207.01077270507812 116.69010925292969
v 1124.316162109375 -204.95115661621094 114.40485382080078
v 1126.2513427734375 -203.85284423828125 112.26062774658203
v 1129.0916748046875 -204.1353759765625 111.07644653320312
v 1131.7520751953125 -205.6908416748047 111.30464172363281
v 1133.21630859375 -207.92507934570312 112.8580322265625
v 1132.92529296875 -209.9846954345703 115.1432876586914
v 1130.9901123046875 -211.0830078125 117.28751373291016
v 1128.1497802734375 -210.80047607421875 118.47169494628906
v 1125.4893798828125 -209.24501037597656 118.24349975585938
v 1200.921630859375 -31.61747169494629 260.5136413574219
v 1201.136962890625 -29.71980857849121 258.08428955078125
v 1203.0267333984375 -28.719045639038086 255.85350036621094
v 1205.869140625 -28.997438430786133 254.67332458496094
v 1208.578369140625 -30.448650360107422 254.9945526123047
v 1210.11962890625 -32.518367767333984 256.6944885253906
v 1209.904296875 -34.41603088378906 259.12384033203125
v 1208.0145263671875 -35.41679382324219 261.3546142578125
v 1205.172119140625 -35.138404846191406 262.5348205566406
v 1202.462890625 -33.687191009521484 262.21356201171875
v -128.45358276367188 -117.25306701660156 -2793.689697265625
v -126.94111633300781 -114.56742095947266 -2793.46875
v -124.1445541381836 -113.25704956054688 -2793.574951171875
v -121.13209533691406 -113.82245635986328 -2793.96826171875
v -119.05439758300781 -116.04769134521484 -2794.498046875
v -118.70507049560547 -119.08277893066406 -2794.962158203125
v -120.21754455566406 -121.76842498779297 -2795.18310546875
v -123.01410675048828 -123.07879638671875 -2795.076904296875
v -126.02656555175781 -122.51338958740234 -2794.68359375
v -128.10426330566406 -120.28815460205078 -2794.15380859375
v 1200.921630859375 -31.61747169494629 260.5136413574219
v 1201.136962890625 -29.71980857849121 258.08428955078125
v 1203.0267333984375 -28.719045639038086 255.85350036621094
v 1205.869140625 -28.997438430786133 254.67332458496094
v 1208.578369140625 -30.448650360107422 254.9945526123047
v 1210.11962890625 -32.518367767333984 256.6944885253906
v 1209.904296875 -34.41603088378906 259.12384033203125
v 1208.0145263671875 -35.41679382324219 261.3546142578125
v 1205.172119140625 -35.138404846191406 262.5348205566406
v 1202.462890625 -33.687191009521484 262.21356201171875
vn -0.9748518466949463 0.18297088146209717 0.12722249329090118
vn -0.6723570823669434 0.7200999855995178 0.1714409440755844
vn -0.11304476112127304 0.982175350189209 0.15017478168010712
vn 0.48944681882858276 0.869093120098114 0.07154695689678192
vn 0.9049863219261169 0.4240468740463257 -0.03440937027335167
vn 0.9748518466949463 -0.18297088146209717 -0.12722249329090118
vn 0.6723570823669434 -0.7200999855995178 -0.1714409440755844
vn 0.11304476112127304 -0.982175350189209 -0.15017478168010712
vn -0.48944681882858276 -0.869093120098114 -0.07154695689678192
vn -0.9049863219261169 -0.4240468740463257 0.03440937027335167
vn -0.9589717984199524 0.16759315133094788 0.22866059839725494
vn -0.6595098376274109 0.707659125328064 0.2535060942173004
vn -0.10813754796981812 0.977423369884491 0.18152087926864624
vn 0.48453959822654724 0.873845100402832 0.0402008593082428
vn 0.8921390771865845 0.43648770451545715 -0.11647452414035797
vn 0.9589717984199524 -0.16759315133094788 -0.22866059839725494
vn 0.6595098376274109 -0.707659125328064 -0.2535060942173004
vn 0.10813754796981812 -0.977423369884491 -0.18152087926864624
vn -0.48453959822654724 -0.873845100402832 -0.0402008593082428
vn -0.8921390771865845 -0.43648770451545715 0.11647452414035797
vn -0.8942981362342834 0.13291127979755402 0.42727676033973694
vn -0.615659773349762 0.6834555864334106 0.3922390341758728
vn -0.10186033695936203 0.972943127155304 0.20737935602664948
vn 0.4508463144302368 0.8907994031906128 -0.0566922128200531
vn 0.8313449621200562 0.46840062737464905 -0.2991092801094055
vn 0.8942981362342834 -0.13291127979755402 -0.42727676033973694
vn 0.615659773349762 -0.6834555864334106 -0.3922390341758728
vn 0.10186033695936203 -0.972943127155304 -0.20737935602664948
vn -0.4508463144302368 -0.8907994031906128 0.0566922128200531
vn -0.8313449621200562 -0.46840062737464905 0.2991092801094055
vn -0.8540697693824768 0.11705861985683441 0.5068156719207764
vn -0.6286264061927795 0.6784142255783081 0.3802407681941986
vn -0.16306909918785095 0.9806386232376099 0.10842680931091309
vn 0.36477503180503845 0.9082924127578735 -0.2048024982213974
vn 0.7532874941825867 0.48900938034057617 -0.43980422616004944
vn 0.8540697693824768 -0.11705861985683441 -0.5068156719207764
vn 0.6286264061927795 -0.6784142255783081 -0.3802407681941986
vn 0.16306909918785095 -0.9806386232376099 -0.10842680931091309
vn -0.36477503180503845 -0.9082924127578735 0.2048024982213974
vn -0.7532874941825867 -0.48900938034057617 0.43980422616004944
vn -0.8619917035102844 0.11769609153270721 0.49306991696357727
vn -0.6918663382530212 0.6690150499343872 0.271550714969635
vn -0.25747159123420715 0.9647930264472961 -0.05369165912270546
vn 0.2752685844898224 0.8920528292655945 -0.35842564702033997
vn 0.702865481376648 0.4785788059234619 -0.5262532234191895
vn 0.8619917035102844 -0.11769609153270721 -0.49306991696357727
vn 0.6918663382530212 -0.6690150499343872 -0.271550714969635
vn 0.25747159123420715 -0.9647930264472961 0.05369165912270546
vn -0.2752685844898224 -0.8920528292655945 0.35842564702033997
vn -0.702865481376648 -0.4785788059234619 0.5262532234191895
vn -0.9130693078041077 0.07815469801425934 0.4002452492713928
vn -0.7871065139770508 0.6074510812759399 0.10708191990852356
vn -0.36049577593803406 0.9047217965126038 -0.22698307037353516
vn 0.20381209254264832 0.8564195036888123 -0.474348247051239
vn 0.6902706623077393 0.4809941053390503 -0.5405284762382507
vn 0.9130693078041077 -0.07815469801425934 -0.4002452492713928
vn 0.7871065139770508 -0.6074510812759399 -0.10708191990852356
vn 0.36049577593803406 -0.9047217965126038 0.22698307037353516
vn -0.20381209254264832 -0.8564195036888123 0.474348247051239
vn -0.6902706623077393 -0.4809941053390503 0.5405284762382507
vn -0.9559929370880127 0.02656008116900921 0.2921850383281708
vn -0.8443583846092224 0.5341036319732666 -0.042334407567977905
vn -0.4102076590061188 0.8376377820968628 -0.3606835603713989
vn 0.1806284636259079 0.821222722530365 -0.5412638783454895
vn 0.7024706602096558 0.491128534078598 -0.5150997638702393
vn 0.9559929370880127 -0.02656008116900921 -0.2921850383281708
vn 0.8443583846092224 -0.5341036319732666 0.042334407567977905
vn 0.4102076590061188 -0.8376377820968628 0.3606835603713989
vn -0.1806284636259079 -0.821222722530365 0.5412638783454895
vn -0.7024706602096558 -0.491128534078598 0.5150997638702393
vn -0.9431830644607544 0.0512569323182106 0.3282963037490845
vn -0.8447197675704956 0.5332443118095398 -0.04581485316157341
vn -0.42360228300094604 0.811550498008728 -0.4024263024330139
vn 0.15931691229343414 0.779871940612793 -0.6053245663642883
vn 0.681382417678833 0.4503088593482971 -0.5770094394683838
vn 0.9431830644607544 -0.0512569323182106 -0.3282963037490845
vn 0.8447197675704956 -0.5332443118095398 0.04581485316157341
vn 0.42360228300094604 -0.811550498008728 0.4024263024330139
vn -0.15931691229343414 -0.779871940612793 0.6053245663642883
vn -0.681382417678833 -0.4503088593482971 0.5770094394683838
vn -0.921369731426239 0.08779413998126984 0.37864232063293457
vn -0.8415603637695312 0.5389520525932312 -0.036150429397821426
vn -0.4403035342693329 0.7842485904693604 -0.4371349513530731
vn 0.12913426756858826 0.7299888134002686 -0.6711487770080566
vn 0.6492471694946289 0.39689815044403076 -0.6488065719604492
vn 0.921369731426239 -0.08779413998126984 -0.37864232063293457
vn 0.8415603637695312 -0.5389520525932312 0.036150429397821426
vn 0.4403035342693329 -0.7842485904693604 0.4371349513530731
vn -0.12913426756858826 -0.7299888134002686 0.6711487770080566
vn -0.6492471694946289 -0.39689815044403076 0.6488065719604492
vn -0.9191261529922485 0.09142997115850449 0.38320714235305786
vn -0.8609185814857483 0.5033549666404724 -0.07384391874074936
vn -0.4738694429397583 0.7230154871940613 -0.5026891231536865
vn 0.09418176114559174 0.666508674621582 -0.7395241856575012
vn 0.6262587308883667 0.3554181754589081 -0.6938861012458801
vn 0.9191261529922485 -0.09142997115850449 -0.38320714235305786
vn 0.8609185814857483 -0.5033549666404724 0.07384391874074936
vn 0.4738694429397583 -0.7230154871940613 0.5026891231536865
vn -0.09418176114559174 -0.666508674621582 0.7395241856575012
vn -0.6262587308883667 -0.3554181754589081 0.6938861012458801
vn -0.919796884059906 0.09008975327014923 0.3819130063056946
vn -0.8767260909080505 0.46962225437164307 -0.10395322740077972
vn -0.49877578020095825 0.6697750091552734 -0.5501128435134888
vn 0.06968995928764343 0.614096462726593 -0.7861480712890625
vn 0.6115365028381348 0.3238539695739746 -0.7219014763832092
vn 0.919796884059906 -0.09008975327014923 -0.3819130063056946
vn 0.8767260909080505 -0.46962225437164307 0.10395322740077972
vn 0.49877578020095825 -0.6697750091552734 0.5501128435134888
vn -0.06968995928764343 -0.614096462726593 0.7861480712890625
vn -0.6115365028381348 -0.3238539695739746 0.7219014763832092
vn -0.10249356925487518 0.1388101875782013 -0.9850009083747864
vn -0.10249356925487518 0.1388101875782013 -0.9850009083747864
vn -0.10249356925487518 0.1388101875782013 -0.9850009083747864
vn -0.10249356925487518 0.1388101875782013 -0.9850009083747864
vn -0.10249356925487518 0.1388101875782013 -0.9850009083747864
vn -0.10249356925487518 0.1388101875782013 -0.9850009083747864
vn -0.10249356925487518 0.1388101875782013 -0.9850009083747864
vn -0.10249356925487518 0.1388101875782013 -0.9850009083747864
vn -0.10249356925487518 0.1388101875782013 -0.9850009083747864
vn -0.10249356925487518 0.1388101875782013 -0.9850009083747864
vn 0.321069598197937 0.7323235273361206 0.6005135774612427
vn 0.321069598197937 0.7323235273361206 0.6005135774612427
vn 0.321069598197937 0.7323235273361206 0.6005135774612427
vn 0.321069598197937 0.7323235273361206 0.6005135774612427
vn 0.321069598197937 0.7323235273361206 0.6005135774612427
vn 0.321069598197937 0.7323235273361206 0.6005135774612427
vn 0.321069598197937 0.7323235273361206 0.6005135774612427
vn 0.321069598197937 0.7323235273361206 0.6005135774612427
vn 0.321069598197937 0.7323235273361206 0.6005135774612427
vn 0.321069598197937 0.7323235273361206 0.6005135774612427
f 2//2 1//1 12//12
f 12//12 1//1 11//11
f 12//12 11//11 22//22
f 22//22 11//11 21//21
f 22//22 21//21 32//32
f 32//32 21//21 31//31
f 32//32 31//31 42//42
f 42//42 31//31 41//41
f 42//42 41//41 52//52
f 52//52 41//41 51//51
f 52//52 51//51 62//62
f 62//62 51//51 61//61
f 62//62 61//61 72//72
f 72//72 61//61 71//71
f 72//72 71//71 82//82
f 82//82 71//71 81//81
f 82//82 81//81 92//92
f 92//92 81//81 91//91
f 92//92 91//91 102//102
f 102//102 91//91 101//101
f 3//3 2//2 13//13
f 13//13 2//2 12//12
f 13//13 12//12 23//23
f 23//23 12//12 22//22
f 23//23 22//22 33//33
f 33//33 22//22 32//32
f 33//33 32//32 43//43
f 43//43 32//32 42//42
f 43//43 42//42 53//53
f 53//53 42//42 52//52
f 53//53 52//52 63//63
f 63//63 52//52 62//62
f 63//63 62//62 73//73
f 73//73 62//62 72//72
f 73//73 72//72 83//83
f 83//83 72//72 82//82
f 83//83 82//82 93//93
f 93//93 82//82 92//92
f 93//93 92//92 103//103
f 103//103 92//92 102//102
f 4//4 3//3 14//14
f 14//14 3//3 13//13
f 14//14 13//13 24//24
f 24//24 13//13 23//23
f 24//24 23//23 34//34
f 34//34 23//23 33//33
f 34//34 33//33 44//44
f 44//44 33//33 43//43
f 44//44 43//43 54//54
f 54//54 43//43 53//53
f 54//54 53//53 64//64
f 64//64 53//53 63//63
f 64//64 63//63 74//74
f 74//74 63//63 73//73
f 74//74 73//73 84//84
f 84//84 73//73 83//83
f 84//84 83//83 94//94
f 94//94 83//83 93//93
f 94//94 93//93 104//104
f 104//104 93//93 103//103
f 5//5 4//4 15//15
f 15//15 4//4 14//14
f 15//15 14//14 25//25
f 25//25 14//14 24//24
f 25//25 24//24 35//35
f 35//35 24//24 34//34
f 35//35 34//34 45//45
f 45//45 34//34 44//44
f 45//45 44//44 55//55
f 55//55 44//44 54//54
f 55//55 54//54 65//65
f 65//65 54//54 64//64
f 65//65 64//64 75//75
f 75//75 64//64 74//74
f 75//75 74//74 85//85
f 85//85 74//74 84//84
f 85//85 84//84 95//95
f 95//95 84//84 94//94
f 95//95 94//94 105//105
f 105//105 94//94 104//104
f 6//6 5//5 16//16
f 16//16 5//5 15//15
f 16//16 15//15 26//26
f 26//26 15//15 25//25
f 26//26 25//25 36//36
f 36//36 25//25 35//35
f 36//36 35//35 46//46
f 46//46 35//35 45//45
f 46//46 45//45 56//56
f 56//56 45//45 55//55
f 56//56 55//55 66//66
f 66//66 55//55 65//65
f 66//66 65//65 76//76
f 76//76 65//65 75//75
f 76//76 75//75 86//86
f 86//86 75//75 85//85
f 86//86 85//85 96//96
f 96//96 85//85 95//95
f 96//96 95//95 106//106
f 106//106 95//95 105//105
f 7//7 6//6 17//17
f 17//17 6//6 16//16
f 17//17 16//16 27//27
f 27//27 16//16 26//26
f 27//27 26//26 37//37
f 37//37 26//26 36//36
f 37//37 36//36 47//47
f 47//47 36//36 46//46
f 47//47 46//46 57//57
f 57//57 46//46 56//56
f 57//57 56//56 67//67
f 67//67 56//56 66//66
f 67//67 66//66 77//77
f 77//77 66//66 76//76
f 77//77 76//76 87//87
f 87//87 76//76 86//86
f 87//87 86//86 97//97
f 97//97 86//86 96//96
f 97//97 96//96 107//107
f 107//107 96//96 106//106
f 8//8 7//7 18//18
f 18//18 7//7 17//17
f 18//18 17//17 28//28
f 28//28 17//17 27//27
f 28//28 27//27 38//38
f 38//38 27//27 37//37
f 38//38 37//37 48//48
f 48//48 37//37 47//47
f 48//48 47//47 58//58
f 58//58 47//47 57//57
f 58//58 57//57 68//68
f 68//68 57//57 67//67
f 68//68 67//67 78//78
f 78//78 67//67 77//77
f 78//78 77//77 88//88
f 88//88 77//77 87//87
f 88//88 87//87 98//98
f 98//98 87//87 97//97
f 98//98 97//97 108//108
f 108//108 97//97 107//107
f 9//9 8//8 19//19
f 19//19 8//8 18//18
f 19//19 18//18 29//29
f 29//29 18//18 28//28
f 29//29 28//28 39//39
f 39//39 28//28 38//38
f 39//39 38//38 49//49
f 49//49 38//38 48//48
f 49//49 48//48 59//59
f 59//59 48//48 58//58
f 59//59 58//58 69//69
f 69//69 58//58 68//68
f 69//69 68//68 79//79
f 79//79 68//68 78//78
f 79//79 78//78 89//89
f 89//89 78//78 88//88
f 89//89 88//88 99//99
f 99//99 88//88 98//98
f 99//99 98//98 109//109
f 109//109 98//98 108//108
f 10//10 9//9 20//20
f 20//20 9//9 19//19
f 20//20 19//19 30//30
f 30//30 19//19 29//29
f 30//30 29//29 40//40
f 40//40 29//29 39//39
f 40//40 39//39 50//50
f 50//50 39//39 49//49
f 50//50 49//49 60//60
f 60//60 49//49 59//59
f 60//60 59//59 70//70
f 70//70 59//59 69//69
f 70//70 69//69 80//80
f 80//80 69//69 79//79
f 80//80 79//79 90//90
f 90//90 79//79 89//89
f 90//90 89//89 100//100
f 100//100 89//89 99//99
f 100//100 99//99 110//110
f 110//110 99//99 109//109
f 1//1 10//10 11//11
f 11//11 10//10 20//20
f 11//11 20//20 21//21
f 21//21 20//20 30//30
f 21//21 30//30 31//31
f 31//31 30//30 40//40
f 31//31 40//40 41//41
f 41//41 40//40 50//50
f 41//41 50//50 51//51
f 51//51 50//50 60//60
f 51//51 60//60 61//61
f 61//61 60//60 70//70
f 61//61 70//70 71//71
f 71//71 70//70 80//80
f 71//71 80//80 81//81
f 81//81 80//80 90//90
f 81//81 90//90 91//91
f 91//91 90//90 100//100
f 91//91 100//100 101//101
f 101//101 100//100 110//110
f 111//111 112//112 120//120
f 120//120 112//112 113//113
f 120//120 113//113 119//119
f 119//119 113//113 114//114
f 119//119 114//114 118//118
f 118//118 114//114 115//115
f 118//118 115//115 117//117
f 117//117 115//115 116//116
f 121//121 130//130 122//122
f 122//122 130//130 129//129
f 122//122 129//129 123//123
f 123//123 129//129 128//128
f 123//123 128//128 124//124
f 124//124 128//128 127//127
f 124//124 127//127 125//125
f 125//125 127//127 126//126
